{
.appVersion = "1230";
DisplayStrings = (
"MPS\012hyabs",
"Mohammedanising Milkwort Muddles Menorah Miring Machicolating Murillo Malingers Mulls Moolvie Metabolizing Mooriest Malamute Mandelson Myxoviruses Masseuses Monilia Missive Matters Mambas Misstatement Markswomen Moiler Macrocephaly Muddily Mutessarifs Mesic Multihulls Mycotoxins Modularised Meerschaums Micky Mythopoets Mazer Molochise Mediatrices Missileries Mattery Mosses Mana Metallizes Mocked Muzaky Miscellanarian Motorised Multidentate Manufactured Mezereon Mountaineered Madling"
);
date = "2018-12-06 20:11:57 +0000";
designer = XXIX;
designerURL = "http://xxix.co";
familyName = "MPS Sans";
fontMaster = (
{
alignmentZones = (
"{725, 13}",
"{652, 12}",
"{538, 16}",
"{0, 20}",
"{-175, -13}"
);
ascender = 774;
capHeight = 725;
customParameters = (
{
name = typoAscender;
value = 774;
},
{
name = typoDescender;
value = -226;
},
{
name = typoLineGap;
value = 297;
},
{
name = winAscent;
value = 986;
},
{
name = winDescent;
value = 311;
},
{
name = hheaAscender;
value = 986;
},
{
name = hheaDescender;
value = -311;
},
{
name = underlinePosition;
value = -110;
},
{
name = underlineThickness;
value = 70;
}
);
descender = -226;
horizontalStems = (
55,
80,
88
);
id = "137AEC82-B0BC-44E1-9F98-144717E162AD";
verticalStems = (
74,
91,
102
);
weightValue = 400;
widthValue = 5;
xHeight = 538;
},
{
alignmentZones = (
"{725, 13}",
"{652, 12}",
"{538, 16}",
"{0, 20}",
"{-175, -13}"
);
ascender = 774;
capHeight = 725;
customParameters = (
{
name = typoAscender;
value = 774;
},
{
name = typoDescender;
value = -226;
},
{
name = typoLineGap;
value = 297;
},
{
name = winAscent;
value = 986;
},
{
name = winDescent;
value = 311;
},
{
name = hheaAscender;
value = 986;
},
{
name = hheaDescender;
value = -311;
},
{
name = underlinePosition;
value = -110;
},
{
name = underlineThickness;
value = 70;
}
);
descender = -226;
horizontalStems = (
55,
80,
88
);
id = "C5488009-C580-4381-A4EE-96D70C5119DC";
userData = {

glyphs = (
{
glyphname = A;
lastChange = "2018-12-18 18:21:57 +0000";
layers = (
{
background = {
paths = (
{
closed = 1;
nodes = (
"0 0 LINE",
"104 0 LINE",
"160 157 LINE",
"493 157 LINE",
"550 0 LINE",
"660 0 LINE",
"387 725 LINE",
"269 725 LINE"
);
},
{
closed = 1;
nodes = (
"325 622 LINE",
"461 244 LINE",
"191 244 LINE"
);
}
);
};
layerId = "137AEC82-B0BC-44E1-9F98-144717E162AD";
paths = (
{
closed = 1;
nodes = (
"0 0 LINE",
"104 0 LINE",
"160 157 LINE",
"493 157 LINE",
"550 0 LINE",
"660 0 LINE",
"387 725 LINE",
"269 725 LINE"
);
},
{
closed = 1;
nodes = (
"325 622 LINE",
"461 244 LINE",
"191 244 LINE"
);
}
);
width = 660;
},
{
background = {
paths = (
{
closed = 1;
nodes = (
"0 0 LINE",
"104 0 LINE",
"160 157 LINE",
"493 157 LINE",
"550 0 LINE",
"660 0 LINE",
"387 725 LINE",
"269 725 LINE"
);
},
{
closed = 1;
nodes = (
"325 622 LINE",
"461 244 LINE",
"191 244 LINE"
);
}
);
};
layerId = "C5488009-C580-4381-A4EE-96D70C5119DC";
paths = (
{
closed = 1;
nodes = (
"0 0 LINE",
"104 0 LINE",
"160 157 LINE",
"493 157 LINE",
"550 0 LINE",
"660 0 LINE",
"387 725 LINE",
"269 725 LINE"
);
},
{
closed = 1;
nodes = (
"325 622 LINE",
"461 244 LINE",
"191 244 LINE"
);
}
);
width = 660;
},
{
background = {
paths = (
{
closed = 1;
nodes = (
"0 0 LINE",
"104 0 LINE",
"160 157 LINE",
"493 157 LINE",
"550 0 LINE",
"660 0 LINE",
"387 725 LINE",
"269 725 LINE"
);
},
{
closed = 1;
nodes = (
"325 622 LINE",
"461 244 LINE",
"191 244 LINE"
);
}
);
};
layerId = "48ECFA74-86AE-4037-9A42-9B6212E42530";
paths = (
{
closed = 1;
nodes = (
"0 0 LINE",
"104 0 LINE",
"160 157 LINE",
"493 157 LINE",
"550 0 LINE",
"660 0 LINE",
"387 725 LINE",
"269 725 LINE"
);
},
{
closed = 1;
nodes = (
"325 622 LINE",
"461 244 LINE",
"191 244 LINE"
);
}
);
width = 660;
}
);
leftKerningGroup = A;
note = A;
rightKerningGroup = A;
unicode = 0041;
},
{
glyphname = B;
lastChange = "2018-12-18 18:21:57 +0000";
layers = (
{
background = {
paths = (
{
closed = 1;
nodes = (
"86 0 LINE",
"372 0 LINE SMOOTH",
"517 0 OFFCURVE",
"632 60 OFFCURVE",
"632 214 CURVE SMOOTH",
"632 303 OFFCURVE",
"591 357 OFFCURVE",
"522 386 CURVE",
"572 415 OFFCURVE",
"602 477 OFFCURVE",
"602 546 CURVE SMOOTH",
"602 690 OFFCURVE",
"482 725 OFFCURVE",
"347 725 CURVE SMOOTH",
"86 725 LINE"
);
},
{
closed = 1;
nodes = (
"188 334 LINE",
"367 334 LINE SMOOTH",
"476 334 OFFCURVE",
"527 298 OFFCURVE",
"527 213 CURVE SMOOTH",
"527 131 OFFCURVE",
"476 86 OFFCURVE",
"373 86 CURVE SMOOTH",
"188 86 LINE"
);
},
{
closed = 1;
nodes = (
"188 639 LINE",
"363 639 LINE SMOOTH",
"444 639 OFFCURVE",
"499 606 OFFCURVE",
"499 532 CURVE SMOOTH",
"499 447 OFFCURVE",
"446 415 OFFCURVE",
"363 415 CURVE SMOOTH",
"188 415 LINE"
);
}
);
};
layerId = "137AEC82-B0BC-44E1-9F98-144717E162AD";
paths = (
{
closed = 1;
nodes = (
"86 0 LINE",
"372 0 LINE SMOOTH",
"517 0 OFFCURVE",
"632 60 OFFCURVE",
"632 214 CURVE SMOOTH",
"632 303 OFFCURVE",
"591 357 OFFCURVE",
"522 386 CURVE",
"572 415 OFFCURVE",
"602 477 OFFCURVE",
"602 546 CURVE SMOOTH",
"602 690 OFFCURVE",
"482 725 OFFCURVE",
"347 725 CURVE SMOOTH",
"86 725 LINE"
);
},
{
closed = 1;
nodes = (
"188 334 LINE",
"367 334 LINE SMOOTH",
"476 334 OFFCURVE",
"527 298 OFFCURVE",
"527 213 CURVE SMOOTH",
"527 131 OFFCURVE",
"476 86 OFFCURVE",
"373 86 CURVE SMOOTH",
"188 86 LINE"
);
},
{
closed = 1;
nodes = (
"188 639 LINE",
"363 639 LINE SMOOTH",
"444 639 OFFCURVE",
"499 606 OFFCURVE",
"499 532 CURVE SMOOTH",
"499 447 OFFCURVE",
"446 415 OFFCURVE",
"363 415 CURVE SMOOTH",
"188 415 LINE"
);
}
);
width = 672;
},
{
background = {
paths = (
{
closed = 1;
nodes = (
"86 0 LINE",
"372 0 LINE SMOOTH",
"517 0 OFFCURVE",
"632 60 OFFCURVE",
"632 214 CURVE SMOOTH",
"632 303 OFFCURVE",
"591 357 OFFCURVE",
"522 386 CURVE",
"572 415 OFFCURVE",
"602 477 OFFCURVE",
"602 546 CURVE SMOOTH",
"602 690 OFFCURVE",
"482 725 OFFCURVE",
"347 725 CURVE SMOOTH",
"86 725 LINE"
);
},
{
closed = 1;
nodes = (
"188 334 LINE",
"367 334 LINE SMOOTH",
"476 334 OFFCURVE",
"527 298 OFFCURVE",
"527 213 CURVE SMOOTH",
"527 131 OFFCURVE",
"476 86 OFFCURVE",
"373 86 CURVE SMOOTH",
"188 86 LINE"
);
},
{
closed = 1;
nodes = (
"188 639 LINE",
"363 639 LINE SMOOTH",
"444 639 OFFCURVE",
"499 606 OFFCURVE",
"499 532 CURVE SMOOTH",
"499 447 OFFCURVE",
"446 415 OFFCURVE",
"363 415 CURVE SMOOTH",
"188 415 LINE"
);
}
);
};
layerId = "C5488009-C580-4381-A4EE-96D70C5119DC";
paths = (
{
closed = 1;
nodes = (
"86 0 LINE",
"372 0 LINE SMOOTH",
"517 0 OFFCURVE",
"632 60 OFFCURVE",
"632 214 CURVE SMOOTH",
"632 303 OFFCURVE",
"591 357 OFFCURVE",
"522 386 CURVE",
"572 415 OFFCURVE",
"602 477 OFFCURVE",
"602 546 CURVE SMOOTH",
"602 690 OFFCURVE",
"482 725 OFFCURVE",
"347 725 CURVE SMOOTH",
"86 725 LINE"
);
},
{
closed = 1;
nodes = (
"188 334 LINE",
"367 334 LINE SMOOTH",
"476 334 OFFCURVE",
"527 298 OFFCURVE",
"527 213 CURVE SMOOTH",
"527 131 OFFCURVE",
"476 86 OFFCURVE",
"373 86 CURVE SMOOTH",
"188 86 LINE"
);
},
{
closed = 1;
nodes = (
"188 639 LINE",
"363 639 LINE SMOOTH",
"444 639 OFFCURVE",
"499 606 OFFCURVE",
"499 532 CURVE SMOOTH",
"499 447 OFFCURVE",
"446 415 OFFCURVE",
"363 415 CURVE SMOOTH",
"188 415 LINE"
);
}
);
width = 672;
},
{
background = {
paths = (
{
closed = 1;
nodes = (
"86 0 LINE",
"372 0 LINE SMOOTH",
"517 0 OFFCURVE",
"632 60 OFFCURVE",
"632 214 CURVE SMOOTH",
"632 303 OFFCURVE",
"591 357 OFFCURVE",
"522 386 CURVE",
"572 415 OFFCURVE",
"602 477 OFFCURVE",
"602 546 CURVE SMOOTH",
"602 690 OFFCURVE",
"482 725 OFFCURVE",
"347 725 CURVE SMOOTH",
"86 725 LINE"
);
},
{
closed = 1;
nodes = (
"188 334 LINE",
"367 334 LINE SMOOTH",
"476 334 OFFCURVE",
"527 298 OFFCURVE",
"527 213 CURVE SMOOTH",
"527 131 OFFCURVE",
"476 86 OFFCURVE",
"373 86 CURVE SMOOTH",
"188 86 LINE"
);
},
{
closed = 1;
nodes = (
"188 639 LINE",
"363 639 LINE SMOOTH",
"444 639 OFFCURVE",
"499 606 OFFCURVE",
"499 532 CURVE SMOOTH",
"499 447 OFFCURVE",
"446 415 OFFCURVE",
"363 415 CURVE SMOOTH",
"188 415 LINE"
);
}
);
};
layerId = "48ECFA74-86AE-4037-9A42-9B6212E42530";
paths = (
{
closed = 1;
nodes = (
"86 0 LINE",
"372 0 LINE SMOOTH",
"517 0 OFFCURVE",
"632 60 OFFCURVE",
"632 214 CURVE SMOOTH",
"632 303 OFFCURVE",
"591 357 OFFCURVE",
"522 386 CURVE",
"572 415 OFFCURVE",
"602 477 OFFCURVE",
"602 546 CURVE SMOOTH",
"602 690 OFFCURVE",
"482 725 OFFCURVE",
"347 725 CURVE SMOOTH",
"86 725 LINE"
);
},
{
closed = 1;
nodes = (
"188 334 LINE",
"367 334 LINE SMOOTH",
"476 334 OFFCURVE",
"527 298 OFFCURVE",
"527 213 CURVE SMOOTH",
"527 131 OFFCURVE",
"476 86 OFFCURVE",
"373 86 CURVE SMOOTH",
"188 86 LINE"
);
},
{
closed = 1;
nodes = (
"188 639 LINE",
"363 639 LINE SMOOTH",
"444 639 OFFCURVE",
"499 606 OFFCURVE",
"499 532 CURVE SMOOTH",
"499 447 OFFCURVE",
"446 415 OFFCURVE",
"363 415 CURVE SMOOTH",
"188 415 LINE"
);
}
);
width = 672;
}
);
note = B;
rightKerningGroup = B;
unicode = 0042;
},
{
glyphname = C;
lastChange = "2018-12-18 18:21:57 +0000";
layers = (
{
background = {
paths = (
{
closed = 1;
nodes = (
"595 231 LINE",
"572 138 OFFCURVE",
"501 73 OFFCURVE",
"386 73 CURVE SMOOTH",
"251 73 OFFCURVE",
"155 181 OFFCURVE",
"155 364 CURVE SMOOTH",
"155 552 OFFCURVE",
"255 652 OFFCURVE",
"383 652 CURVE SMOOTH",
"499 652 OFFCURVE",
"569 584 OFFCURVE",
"591 494 CURVE",
"690 494 LINE",
"659 649 OFFCURVE",
"538 738 OFFCURVE",
"388 738 CURVE SMOOTH",
"183 738 OFFCURVE",
"51 589 OFFCURVE",
"51 364 CURVE SMOOTH",
"51 143 OFFCURVE",
"172 -13 OFFCURVE",
"380 -13 CURVE SMOOTH",
"537 -13 OFFCURVE",
"662 71 OFFCURVE",
"694 231 CURVE"
);
}
);
};
layerId = "137AEC82-B0BC-44E1-9F98-144717E162AD";
paths = (
{
closed = 1;
nodes = (
"595 231 LINE",
"572 138 OFFCURVE",
"501 73 OFFCURVE",
"386 73 CURVE SMOOTH",
"251 73 OFFCURVE",
"155 181 OFFCURVE",
"155 364 CURVE SMOOTH",
"155 552 OFFCURVE",
"255 652 OFFCURVE",
"383 652 CURVE SMOOTH",
"499 652 OFFCURVE",
"569 584 OFFCURVE",
"591 494 CURVE",
"690 494 LINE",
"659 649 OFFCURVE",
"538 738 OFFCURVE",
"388 738 CURVE SMOOTH",
"183 738 OFFCURVE",
"51 589 OFFCURVE",
"51 364 CURVE SMOOTH",
"51 143 OFFCURVE",
"172 -13 OFFCURVE",
"380 -13 CURVE SMOOTH",
"537 -13 OFFCURVE",
"662 71 OFFCURVE",
"694 231 CURVE"
);
}
);
width = 726;
},
{
background = {
paths = (
{
closed = 1;
nodes = (
"595 231 LINE",
"572 138 OFFCURVE",
"501 73 OFFCURVE",
"386 73 CURVE SMOOTH",
"251 73 OFFCURVE",
"155 181 OFFCURVE",
"155 364 CURVE SMOOTH",
"155 552 OFFCURVE",
"255 652 OFFCURVE",
"383 652 CURVE SMOOTH",
"499 652 OFFCURVE",
"569 584 OFFCURVE",
"591 494 CURVE",
"690 494 LINE",
"659 649 OFFCURVE",
"538 738 OFFCURVE",
"388 738 CURVE SMOOTH",
"183 738 OFFCURVE",
"51 589 OFFCURVE",
"51 364 CURVE SMOOTH",
"51 143 OFFCURVE",
"172 -13 OFFCURVE",
"380 -13 CURVE SMOOTH",
"537 -13 OFFCURVE",
"662 71 OFFCURVE",
"694 231 CURVE"
);
}
);
};
layerId = "C5488009-C580-4381-A4EE-96D70C5119DC";
paths = (
{
closed = 1;
nodes = (
"595 231 LINE",
"572 138 OFFCURVE",
"501 73 OFFCURVE",
"386 73 CURVE SMOOTH",
"251 73 OFFCURVE",
"155 181 OFFCURVE",
"155 364 CURVE SMOOTH",
"155 552 OFFCURVE",
"255 652 OFFCURVE",
"383 652 CURVE SMOOTH",
"499 652 OFFCURVE",
"569 584 OFFCURVE",
"591 494 CURVE",
"690 494 LINE",
"659 649 OFFCURVE",
"538 738 OFFCURVE",
"388 738 CURVE SMOOTH",
"183 738 OFFCURVE",
"51 589 OFFCURVE",
"51 364 CURVE SMOOTH",
"51 143 OFFCURVE",
"172 -13 OFFCURVE",
"380 -13 CURVE SMOOTH",
"537 -13 OFFCURVE",
"662 71 OFFCURVE",
"694 231 CURVE"
);
}
);
width = 726;
},
{
background = {
paths = (
{
closed = 1;
nodes = (
"595 231 LINE",
"572 138 OFFCURVE",
"501 73 OFFCURVE",
"386 73 CURVE SMOOTH",
"251 73 OFFCURVE",
"155 181 OFFCURVE",
"155 364 CURVE SMOOTH",
"155 552 OFFCURVE",
"255 652 OFFCURVE",
"383 652 CURVE SMOOTH",
"499 652 OFFCURVE",
"569 584 OFFCURVE",
"591 494 CURVE",
"690 494 LINE",
"659 649 OFFCURVE",
"538 738 OFFCURVE",
"388 738 CURVE SMOOTH",
"183 738 OFFCURVE",
"51 589 OFFCURVE",
"51 364 CURVE SMOOTH",
"51 143 OFFCURVE",
"172 -13 OFFCURVE",
"380 -13 CURVE SMOOTH",
"537 -13 OFFCURVE",
"662 71 OFFCURVE",
"694 231 CURVE"
);
}
);
};
layerId = "48ECFA74-86AE-4037-9A42-9B6212E42530";
paths = (
{
closed = 1;
nodes = (
"595 231 LINE",
"572 138 OFFCURVE",
"501 73 OFFCURVE",
"386 73 CURVE SMOOTH",
"251 73 OFFCURVE",
"155 181 OFFCURVE",
"155 364 CURVE SMOOTH",
"155 552 OFFCURVE",
"255 652 OFFCURVE",
"383 652 CURVE SMOOTH",
"499 652 OFFCURVE",
"569 584 OFFCURVE",
"591 494 CURVE",
"690 494 LINE",
"659 649 OFFCURVE",
"538 738 OFFCURVE",
"388 738 CURVE SMOOTH",
"183 738 OFFCURVE",
"51 589 OFFCURVE",
"51 364 CURVE SMOOTH",
"51 143 OFFCURVE",
"172 -13 OFFCURVE",
"380 -13 CURVE SMOOTH",
"537 -13 OFFCURVE",
"662 71 OFFCURVE",
"694 231 CURVE"
);
}
);
width = 726;
}
);
leftKerningGroup = C;
note = C;
rightKerningGroup = C;
unicode = 0043;
},
{
glyphname = D;
lastChange = "2018-12-18 18:21:57 +0000";
layers = (
{
background = {
paths = (
{
closed = 1;
nodes = (
"575 116 OFFCURVE",
"431 86 OFFCURVE",
"281 86 CURVE SMOOTH",
"188 86 LINE",
"188 639 LINE",
"281 639 LINE SMOOTH",
"431 639 OFFCURVE",
"575 609 OFFCURVE",
"575 363 CURVE SMOOTH"
);
},
{
closed = 1;
nodes = (
"86 725 LINE",
"86 0 LINE",
"284 0 LINE SMOOTH",
"514 0 OFFCURVE",
"679 86 OFFCURVE",
"679 363 CURVE SMOOTH",
"679 639 OFFCURVE",
"514 725 OFFCURVE",
"284 725 CURVE SMOOTH"
);
}
);
};
layerId = "137AEC82-B0BC-44E1-9F98-144717E162AD";
paths = (
{
closed = 1;
nodes = (
"575 116 OFFCURVE",
"431 86 OFFCURVE",
"281 86 CURVE SMOOTH",
"188 86 LINE",
"188 639 LINE",
"281 639 LINE SMOOTH",
"431 639 OFFCURVE",
"575 609 OFFCURVE",
"575 363 CURVE SMOOTH"
);
},
{
closed = 1;
nodes = (
"86 725 LINE",
"86 0 LINE",
"284 0 LINE SMOOTH",
"514 0 OFFCURVE",
"679 86 OFFCURVE",
"679 363 CURVE SMOOTH",
"679 639 OFFCURVE",
"514 725 OFFCURVE",
"284 725 CURVE SMOOTH"
);
}
);
width = 730;
},
{
background = {
paths = (
{
closed = 1;
nodes = (
"575 116 OFFCURVE",
"431 86 OFFCURVE",
"281 86 CURVE SMOOTH",
"188 86 LINE",
"188 639 LINE",
"281 639 LINE SMOOTH",
"431 639 OFFCURVE",
"575 609 OFFCURVE",
"575 363 CURVE SMOOTH"
);
},
{
closed = 1;
nodes = (
"86 725 LINE",
"86 0 LINE",
"284 0 LINE SMOOTH",
"514 0 OFFCURVE",
"679 86 OFFCURVE",
"679 363 CURVE SMOOTH",
"679 639 OFFCURVE",
"514 725 OFFCURVE",
"284 725 CURVE SMOOTH"
);
}
);
};
layerId = "C5488009-C580-4381-A4EE-96D70C5119DC";
paths = (
{
closed = 1;
nodes = (
"575 116 OFFCURVE",
"431 86 OFFCURVE",
"281 86 CURVE SMOOTH",
"188 86 LINE",
"188 639 LINE",
"281 639 LINE SMOOTH",
"431 639 OFFCURVE",
"575 609 OFFCURVE",
"575 363 CURVE SMOOTH"
);
},
{
closed = 1;
nodes = (
"86 725 LINE",
"86 0 LINE",
"284 0 LINE SMOOTH",
"514 0 OFFCURVE",
"679 86 OFFCURVE",
"679 363 CURVE SMOOTH",
"679 639 OFFCURVE",
"514 725 OFFCURVE",
"284 725 CURVE SMOOTH"
);
}
);
width = 730;
},
{
background = {
paths = (
{
closed = 1;
nodes = (
"575 116 OFFCURVE",
"431 86 OFFCURVE",
"281 86 CURVE SMOOTH",
"188 86 LINE",
"188 639 LINE",
"281 639 LINE SMOOTH",
"431 639 OFFCURVE",
"575 609 OFFCURVE",
"575 363 CURVE SMOOTH"
);
},
{
closed = 1;
nodes = (
"86 725 LINE",
"86 0 LINE",
"284 0 LINE SMOOTH",
"514 0 OFFCURVE",
"679 86 OFFCURVE",
"679 363 CURVE SMOOTH",
"679 639 OFFCURVE",
"514 725 OFFCURVE",
"284 725 CURVE SMOOTH"
);
}
);
};
layerId = "48ECFA74-86AE-4037-9A42-9B6212E42530";
paths = (
{
closed = 1;
nodes = (
"575 116 OFFCURVE",
"431 86 OFFCURVE",
"281 86 CURVE SMOOTH",
"188 86 LINE",
"188 639 LINE",
"281 639 LINE SMOOTH",
"431 639 OFFCURVE",
"575 609 OFFCURVE",
"575 363 CURVE SMOOTH"
);
},
{
closed = 1;
nodes = (
"86 725 LINE",
"86 0 LINE",
"284 0 LINE SMOOTH",
"514 0 OFFCURVE",
"679 86 OFFCURVE",
"679 363 CURVE SMOOTH",
"679 639 OFFCURVE",
"514 725 OFFCURVE",
"284 725 CURVE SMOOTH"
);
}
);
width = 730;
}
);
note = D;
rightKerningGroup = D;
unicode = 0044;
},
{
glyphname = E;
lastChange = "2018-12-18 18:21:57 +0000";
layers = (
{
background = {
paths = (
{
closed = 1;
nodes = (
"86 0 LINE",
"578 0 LINE",
"578 88 LINE",
"188 88 LINE",
"188 329 LINE",
"555 329 LINE",
"555 417 LINE",
"188 417 LINE",
"188 637 LINE",
"578 637 LINE",
"578 725 LINE",
"86 725 LINE"
);
}
);
};
layerId = "137AEC82-B0BC-44E1-9F98-144717E162AD";
paths = (
{
closed = 1;
nodes = (
"86 0 LINE",
"578 0 LINE",
"578 88 LINE",
"188 88 LINE",
"188 329 LINE",
"555 329 LINE",
"555 417 LINE",
"188 417 LINE",
"188 637 LINE",
"578 637 LINE",
"578 725 LINE",
"86 725 LINE"
);
}
);
width = 613;
},
{
background = {
paths = (
{
closed = 1;
nodes = (
"86 0 LINE",
"578 0 LINE",
"578 88 LINE",
"188 88 LINE",
"188 329 LINE",
"555 329 LINE",
"555 417 LINE",
"188 417 LINE",
"188 637 LINE",
"578 637 LINE",
"578 725 LINE",
"86 725 LINE"
);
}
);
};
layerId = "C5488009-C580-4381-A4EE-96D70C5119DC";
paths = (
{
closed = 1;
nodes = (
"86 0 LINE",
"578 0 LINE",
"578 88 LINE",
"188 88 LINE",
"188 329 LINE",
"555 329 LINE",
"555 417 LINE",
"188 417 LINE",
"188 637 LINE",
"578 637 LINE",
"578 725 LINE",
"86 725 LINE"
);
}
);
width = 613;
},
{
background = {
paths = (
{
closed = 1;
nodes = (
"86 0 LINE",
"578 0 LINE",
"578 88 LINE",
"188 88 LINE",
"188 329 LINE",
"555 329 LINE",
"555 417 LINE",
"188 417 LINE",
"188 637 LINE",
"578 637 LINE",
"578 725 LINE",
"86 725 LINE"
);
}
);
};
layerId = "48ECFA74-86AE-4037-9A42-9B6212E42530";
paths = (
{
closed = 1;
nodes = (
"86 0 LINE",
"578 0 LINE",
"578 88 LINE",
"188 88 LINE",
"188 329 LINE",
"555 329 LINE",
"555 417 LINE",
"188 417 LINE",
"188 637 LINE",
"578 637 LINE",
"578 725 LINE",
"86 725 LINE"
);
}
);
width = 613;
}
);
note = E;
rightKerningGroup = E;
unicode = 0045;
},
{
glyphname = F;
lastChange = "2018-12-18 18:21:57 +0000";
layers = (
{
background = {
paths = (
{
closed = 1;
nodes = (
"86 0 LINE",
"188 0 LINE",
"188 329 LINE",
"536 329 LINE",
"536 417 LINE",
"188 417 LINE",
"188 637 LINE",
"557 637 LINE",
"557 725 LINE",
"86 725 LINE"
);
}
);
};
layerId = "137AEC82-B0BC-44E1-9F98-144717E162AD";
paths = (
{
closed = 1;
nodes = (
"86 0 LINE",
"188 0 LINE",
"188 329 LINE",
"536 329 LINE",
"536 417 LINE",
"188 417 LINE",
"188 637 LINE",
"557 637 LINE",
"557 725 LINE",
"86 725 LINE"
);
}
);
width = 560;
},
{
background = {
paths = (
{
closed = 1;
nodes = (
"86 0 LINE",
"188 0 LINE",
"188 329 LINE",
"536 329 LINE",
"536 417 LINE",
"188 417 LINE",
"188 637 LINE",
"557 637 LINE",
"557 725 LINE",
"86 725 LINE"
);
}
);
};
layerId = "C5488009-C580-4381-A4EE-96D70C5119DC";
paths = (
{
closed = 1;
nodes = (
"86 0 LINE",
"188 0 LINE",
"188 329 LINE",
"536 329 LINE",
"536 417 LINE",
"188 417 LINE",
"188 637 LINE",
"557 637 LINE",
"557 725 LINE",
"86 725 LINE"
);
}
);
width = 560;
},
{
background = {
paths = (
{
closed = 1;
nodes = (
"86 0 LINE",
"188 0 LINE",
"188 329 LINE",
"536 329 LINE",
"536 417 LINE",
"188 417 LINE",
"188 637 LINE",
"557 637 LINE",
"557 725 LINE",
"86 725 LINE"
);
}
);
};
layerId = "48ECFA74-86AE-4037-9A42-9B6212E42530";
paths = (
{
closed = 1;
nodes = (
"86 0 LINE",
"188 0 LINE",
"188 329 LINE",
"536 329 LINE",
"536 417 LINE",
"188 417 LINE",
"188 637 LINE",
"557 637 LINE",
"557 725 LINE",
"86 725 LINE"
);
}
);
width = 560;
}
);
note = F;
rightKerningGroup = F;
unicode = 0046;
},
{
glyphname = G;
lastChange = "2018-12-18 18:21:57 +0000";
layers = (
{
background = {
paths = (
{
closed = 1;
nodes = (
"184 738 OFFCURVE",
"51 589 OFFCURVE",
"51 364 CURVE SMOOTH",
"51 143 OFFCURVE",
"170 -13 OFFCURVE",
"379 -13 CURVE SMOOTH",
"476 -13 OFFCURVE",
"561 17 OFFCURVE",
"608 91 CURVE",
"613 0 LINE",
"693 0 LINE",
"693 370 LINE",
"405 370 LINE",
"405 282 LINE",
"597 282 LINE",
"597 263 LINE SMOOTH",
"597 113 OFFCURVE",
"480 73 OFFCURVE",
"383 73 CURVE SMOOTH",
"249 73 OFFCURVE",
"155 181 OFFCURVE",
"155 364 CURVE SMOOTH",
"155 552 OFFCURVE",
"255 652 OFFCURVE",
"383 652 CURVE SMOOTH",
"499 652 OFFCURVE",
"565 595 OFFCURVE",
"589 514 CURVE",
"688 514 LINE",
"658 654 OFFCURVE",
"538 738 OFFCURVE",
"388 738 CURVE SMOOTH"
);
}
);
};
layerId = "137AEC82-B0BC-44E1-9F98-144717E162AD";
paths = (
{
closed = 1;
nodes = (
"184 738 OFFCURVE",
"51 589 OFFCURVE",
"51 364 CURVE SMOOTH",
"51 143 OFFCURVE",
"170 -13 OFFCURVE",
"379 -13 CURVE SMOOTH",
"476 -13 OFFCURVE",
"561 17 OFFCURVE",
"608 91 CURVE",
"613 0 LINE",
"693 0 LINE",
"693 370 LINE",
"405 370 LINE",
"405 282 LINE",
"597 282 LINE",
"597 263 LINE SMOOTH",
"597 113 OFFCURVE",
"480 73 OFFCURVE",
"383 73 CURVE SMOOTH",
"249 73 OFFCURVE",
"155 181 OFFCURVE",
"155 364 CURVE SMOOTH",
"155 552 OFFCURVE",
"255 652 OFFCURVE",
"383 652 CURVE SMOOTH",
"499 652 OFFCURVE",
"565 595 OFFCURVE",
"589 514 CURVE",
"688 514 LINE",
"658 654 OFFCURVE",
"538 738 OFFCURVE",
"388 738 CURVE SMOOTH"
);
}
);
width = 770;
},
{
background = {
paths = (
{
closed = 1;
nodes = (
"184 738 OFFCURVE",
"51 589 OFFCURVE",
"51 364 CURVE SMOOTH",
"51 143 OFFCURVE",
"170 -13 OFFCURVE",
"379 -13 CURVE SMOOTH",
"476 -13 OFFCURVE",
"561 17 OFFCURVE",
"608 91 CURVE",
"613 0 LINE",
"693 0 LINE",
"693 370 LINE",
"405 370 LINE",
"405 282 LINE",
"597 282 LINE",
"597 263 LINE SMOOTH",
"597 113 OFFCURVE",
"480 73 OFFCURVE",
"383 73 CURVE SMOOTH",
"249 73 OFFCURVE",
"155 181 OFFCURVE",
"155 364 CURVE SMOOTH",
"155 552 OFFCURVE",
"255 652 OFFCURVE",
"383 652 CURVE SMOOTH",
"499 652 OFFCURVE",
"565 595 OFFCURVE",
"589 514 CURVE",
"688 514 LINE",
"658 654 OFFCURVE",
"538 738 OFFCURVE",
"388 738 CURVE SMOOTH"
);
}
);
};
layerId = "C5488009-C580-4381-A4EE-96D70C5119DC";
paths = (
{
closed = 1;
nodes = (
"184 738 OFFCURVE",
"51 589 OFFCURVE",
"51 364 CURVE SMOOTH",
"51 143 OFFCURVE",
"170 -13 OFFCURVE",
"379 -13 CURVE SMOOTH",
"476 -13 OFFCURVE",
"561 17 OFFCURVE",
"608 91 CURVE",
"613 0 LINE",
"693 0 LINE",
"693 370 LINE",
"405 370 LINE",
"405 282 LINE",
"597 282 LINE",
"597 263 LINE SMOOTH",
"597 113 OFFCURVE",
"480 73 OFFCURVE",
"383 73 CURVE SMOOTH",
"249 73 OFFCURVE",
"155 181 OFFCURVE",
"155 364 CURVE SMOOTH",
"155 552 OFFCURVE",
"255 652 OFFCURVE",
"383 652 CURVE SMOOTH",
"499 652 OFFCURVE",
"565 595 OFFCURVE",
"589 514 CURVE",
"688 514 LINE",
"658 654 OFFCURVE",
"538 738 OFFCURVE",
"388 738 CURVE SMOOTH"
);
}
);
width = 770;
},
{
background = {
paths = (
{
closed = 1;
nodes = (
"184 738 OFFCURVE",
"51 589 OFFCURVE",
"51 364 CURVE SMOOTH",
"51 143 OFFCURVE",
"170 -13 OFFCURVE",
"379 -13 CURVE SMOOTH",
"476 -13 OFFCURVE",
"561 17 OFFCURVE",
"608 91 CURVE",
"613 0 LINE",
"693 0 LINE",
"693 370 LINE",
"405 370 LINE",
"405 282 LINE",
"597 282 LINE",
"597 263 LINE SMOOTH",
"597 113 OFFCURVE",
"480 73 OFFCURVE",
"383 73 CURVE SMOOTH",
"249 73 OFFCURVE",
"155 181 OFFCURVE",
"155 364 CURVE SMOOTH",
"155 552 OFFCURVE",
"255 652 OFFCURVE",
"383 652 CURVE SMOOTH",
"499 652 OFFCURVE",
"565 595 OFFCURVE",
"589 514 CURVE",
"688 514 LINE",
"658 654 OFFCURVE",
"538 738 OFFCURVE",
"388 738 CURVE SMOOTH"
);
}
);
};
layerId = "48ECFA74-86AE-4037-9A42-9B6212E42530";
paths = (
{
closed = 1;
nodes = (
"184 738 OFFCURVE",
"51 589 OFFCURVE",
"51 364 CURVE SMOOTH",
"51 143 OFFCURVE",
"170 -13 OFFCURVE",
"379 -13 CURVE SMOOTH",
"476 -13 OFFCURVE",
"561 17 OFFCURVE",
"608 91 CURVE",
"613 0 LINE",
"693 0 LINE",
"693 370 LINE",
"405 370 LINE",
"405 282 LINE",
"597 282 LINE",
"597 263 LINE SMOOTH",
"597 113 OFFCURVE",
"480 73 OFFCURVE",
"383 73 CURVE SMOOTH",
"249 73 OFFCURVE",
"155 181 OFFCURVE",
"155 364 CURVE SMOOTH",
"155 552 OFFCURVE",
"255 652 OFFCURVE",
"383 652 CURVE SMOOTH",
"499 652 OFFCURVE",
"565 595 OFFCURVE",
"589 514 CURVE",
"688 514 LINE",
"658 654 OFFCURVE",
"538 738 OFFCURVE",
"388 738 CURVE SMOOTH"
);
}
);
width = 770;
}
);
leftKerningGroup = C;
note = G;
rightKerningGroup = G;
unicode = 0047;
},
{
glyphname = H;
lastChange = "2018-12-18 18:21:57 +0000";
layers = (
{
background = {
paths = (
{
closed = 1;
nodes = (
"569 725 LINE",
"569 417 LINE",
"188 417 LINE",
"188 725 LINE",
"86 725 LINE",
"86 0 LINE",
"188 0 LINE",
"188 329 LINE",
"569 329 LINE",
"569 0 LINE",
"671 0 LINE",
"671 725 LINE"
);
}
);
};
layerId = "137AEC82-B0BC-44E1-9F98-144717E162AD";
paths = (
{
closed = 1;
nodes = (
"569 725 LINE",
"569 417 LINE",
"188 417 LINE",
"188 725 LINE",
"86 725 LINE",
"86 0 LINE",
"188 0 LINE",
"188 329 LINE",
"569 329 LINE",
"569 0 LINE",
"671 0 LINE",
"671 725 LINE"
);
}
);
width = 757;
},
{
background = {
paths = (
{
closed = 1;
nodes = (
"569 725 LINE",
"569 417 LINE",
"188 417 LINE",
"188 725 LINE",
"86 725 LINE",
"86 0 LINE",
"188 0 LINE",
"188 329 LINE",
"569 329 LINE",
"569 0 LINE",
"671 0 LINE",
"671 725 LINE"
);
}
);
};
layerId = "C5488009-C580-4381-A4EE-96D70C5119DC";
paths = (
{
closed = 1;
nodes = (
"569 725 LINE",
"569 417 LINE",
"188 417 LINE",
"188 725 LINE",
"86 725 LINE",
"86 0 LINE",
"188 0 LINE",
"188 329 LINE",
"569 329 LINE",
"569 0 LINE",
"671 0 LINE",
"671 725 LINE"
);
}
);
width = 757;
},
{
background = {
paths = (
{
closed = 1;
nodes = (
"569 725 LINE",
"569 417 LINE",
"188 417 LINE",
"188 725 LINE",
"86 725 LINE",
"86 0 LINE",
"188 0 LINE",
"188 329 LINE",
"569 329 LINE",
"569 0 LINE",
"671 0 LINE",
"671 725 LINE"
);
}
);
};
layerId = "48ECFA74-86AE-4037-9A42-9B6212E42530";
paths = (
{
closed = 1;
nodes = (
"569 725 LINE",
"569 417 LINE",
"188 417 LINE",
"188 725 LINE",
"86 725 LINE",
"86 0 LINE",
"188 0 LINE",
"188 329 LINE",
"569 329 LINE",
"569 0 LINE",
"671 0 LINE",
"671 725 LINE"
);
}
);
width = 757;
}
);
note = H;
rightKerningGroup = H;
unicode = 0048;
},
{
glyphname = I;
lastChange = "2018-12-18 18:21:57 +0000";
layers = (
{
background = {
paths = (
{
closed = 1;
nodes = (
"188 725 LINE",
"86 725 LINE",
"86 0 LINE",
"188 0 LINE"
);
}
);
};
layerId = "137AEC82-B0BC-44E1-9F98-144717E162AD";
paths = (
{
closed = 1;
nodes = (
"188 725 LINE",
"86 725 LINE",
"86 0 LINE",
"188 0 LINE"
);
}
);
width = 274;
},
{
background = {
paths = (
{
closed = 1;
nodes = (
"188 725 LINE",
"86 725 LINE",
"86 0 LINE",
"188 0 LINE"
);
}
);
};
layerId = "C5488009-C580-4381-A4EE-96D70C5119DC";
paths = (
{
closed = 1;
nodes = (
"188 725 LINE",
"86 725 LINE",
"86 0 LINE",
"188 0 LINE"
);
}
);
width = 274;
},
{
background = {
paths = (
{
closed = 1;
nodes = (
"188 725 LINE",
"86 725 LINE",
"86 0 LINE",
"188 0 LINE"
);
}
);
};
layerId = "48ECFA74-86AE-4037-9A42-9B6212E42530";
paths = (
{
closed = 1;
nodes = (
"188 725 LINE",
"86 725 LINE",
"86 0 LINE",
"188 0 LINE"
);
}
);
width = 274;
}
);
note = I;
rightKerningGroup = H;
unicode = 0049;
},
{
glyphname = J;
lastChange = "2018-12-18 18:21:57 +0000";
layers = (
{
background = {
paths = (
{
closed = 1;
nodes = (
"364 231 LINE SMOOTH",
"364 100 OFFCURVE",
"297 70 OFFCURVE",
"238 70 CURVE SMOOTH",
"166 70 OFFCURVE",
"106 123 OFFCURVE",
"106 224 CURVE",
"11 224 LINE",
"11 67 OFFCURVE",
"97 -13 OFFCURVE",
"238 -13 CURVE SMOOTH",
"380 -13 OFFCURVE",
"466 72 OFFCURVE",
"466 230 CURVE SMOOTH",
"466 725 LINE",
"364 725 LINE"
);
}
);
};
layerId = "137AEC82-B0BC-44E1-9F98-144717E162AD";
paths = (
{
closed = 1;
nodes = (
"364 231 LINE SMOOTH",
"364 100 OFFCURVE",
"297 70 OFFCURVE",
"238 70 CURVE SMOOTH",
"166 70 OFFCURVE",
"106 123 OFFCURVE",
"106 224 CURVE",
"11 224 LINE",
"11 67 OFFCURVE",
"97 -13 OFFCURVE",
"238 -13 CURVE SMOOTH",
"380 -13 OFFCURVE",
"466 72 OFFCURVE",
"466 230 CURVE SMOOTH",
"466 725 LINE",
"364 725 LINE"
);
}
);
width = 552;
},
{
background = {
paths = (
{
closed = 1;
nodes = (
"364 231 LINE SMOOTH",
"364 100 OFFCURVE",
"297 70 OFFCURVE",
"238 70 CURVE SMOOTH",
"166 70 OFFCURVE",
"106 123 OFFCURVE",
"106 224 CURVE",
"11 224 LINE",
"11 67 OFFCURVE",
"97 -13 OFFCURVE",
"238 -13 CURVE SMOOTH",
"380 -13 OFFCURVE",
"466 72 OFFCURVE",
"466 230 CURVE SMOOTH",
"466 725 LINE",
"364 725 LINE"
);
}
);
};
layerId = "C5488009-C580-4381-A4EE-96D70C5119DC";
paths = (
{
closed = 1;
nodes = (
"364 231 LINE SMOOTH",
"364 100 OFFCURVE",
"297 70 OFFCURVE",
"238 70 CURVE SMOOTH",
"166 70 OFFCURVE",
"106 123 OFFCURVE",
"106 224 CURVE",
"11 224 LINE",
"11 67 OFFCURVE",
"97 -13 OFFCURVE",
"238 -13 CURVE SMOOTH",
"380 -13 OFFCURVE",
"466 72 OFFCURVE",
"466 230 CURVE SMOOTH",
"466 725 LINE",
"364 725 LINE"
);
}
);
width = 552;
},
{
background = {
paths = (
{
closed = 1;
nodes = (
"364 231 LINE SMOOTH",
"364 100 OFFCURVE",
"297 70 OFFCURVE",
"238 70 CURVE SMOOTH",
"166 70 OFFCURVE",
"106 123 OFFCURVE",
"106 224 CURVE",
"11 224 LINE",
"11 67 OFFCURVE",
"97 -13 OFFCURVE",
"238 -13 CURVE SMOOTH",
"380 -13 OFFCURVE",
"466 72 OFFCURVE",
"466 230 CURVE SMOOTH",
"466 725 LINE",
"364 725 LINE"
);
}
);
};
layerId = "48ECFA74-86AE-4037-9A42-9B6212E42530";
paths = (
{
closed = 1;
nodes = (
"364 231 LINE SMOOTH",
"364 100 OFFCURVE",
"297 70 OFFCURVE",
"238 70 CURVE SMOOTH",
"166 70 OFFCURVE",
"106 123 OFFCURVE",
"106 224 CURVE",
"11 224 LINE",
"11 67 OFFCURVE",
"97 -13 OFFCURVE",
"238 -13 CURVE SMOOTH",
"380 -13 OFFCURVE",
"466 72 OFFCURVE",
"466 230 CURVE SMOOTH",
"466 725 LINE",
"364 725 LINE"
);
}
);
width = 552;
}
);
leftKerningGroup = J;
note = J;
rightKerningGroup = J;
unicode = 004A;
},
{
glyphname = K;
lastChange = "2018-12-18 18:21:57 +0000";
layers = (
{
background = {
paths = (
{
closed = 1;
nodes = (
"188 725 LINE",
"86 725 LINE",
"86 0 LINE",
"188 0 LINE",
"188 228 LINE",
"302 354 LINE",
"551 0 LINE",
"673 0 LINE",
"371 429 LINE",
"642 725 LINE",
"515 725 LINE",
"188 360 LINE"
);
}
);
};
layerId = "137AEC82-B0BC-44E1-9F98-144717E162AD";
paths = (
{
closed = 1;
nodes = (
"188 725 LINE",
"86 725 LINE",
"86 0 LINE",
"188 0 LINE",
"188 228 LINE",
"302 354 LINE",
"551 0 LINE",
"673 0 LINE",
"371 429 LINE",
"642 725 LINE",
"515 725 LINE",
"188 360 LINE"
);
}
);
width = 666;
},
{
background = {
paths = (
{
closed = 1;
nodes = (
"188 725 LINE",
"86 725 LINE",
"86 0 LINE",
"188 0 LINE",
"188 228 LINE",
"302 354 LINE",
"551 0 LINE",
"673 0 LINE",
"371 429 LINE",
"642 725 LINE",
"515 725 LINE",
"188 360 LINE"
);
}
);
};
layerId = "C5488009-C580-4381-A4EE-96D70C5119DC";
paths = (
{
closed = 1;
nodes = (
"188 725 LINE",
"86 725 LINE",
"86 0 LINE",
"188 0 LINE",
"188 228 LINE",
"302 354 LINE",
"551 0 LINE",
"673 0 LINE",
"371 429 LINE",
"642 725 LINE",
"515 725 LINE",
"188 360 LINE"
);
}
);
width = 666;
},
{
background = {
paths = (
{
closed = 1;
nodes = (
"188 725 LINE",
"86 725 LINE",
"86 0 LINE",
"188 0 LINE",
"188 228 LINE",
"302 354 LINE",
"551 0 LINE",
"673 0 LINE",
"371 429 LINE",
"642 725 LINE",
"515 725 LINE",
"188 360 LINE"
);
}
);
};
layerId = "48ECFA74-86AE-4037-9A42-9B6212E42530";
paths = (
{
closed = 1;
nodes = (
"188 725 LINE",
"86 725 LINE",
"86 0 LINE",
"188 0 LINE",
"188 228 LINE",
"302 354 LINE",
"551 0 LINE",
"673 0 LINE",
"371 429 LINE",
"642 725 LINE",
"515 725 LINE",
"188 360 LINE"
);
}
);
width = 666;
}
);
note = K;
rightKerningGroup = K;
unicode = 004B;
},
{
glyphname = L;
lastChange = "2018-12-18 18:21:57 +0000";
layers = (
{
background = {
paths = (
{
closed = 1;
nodes = (
"188 725 LINE",
"86 725 LINE",
"86 0 LINE",
"571 0 LINE",
"571 88 LINE",
"188 88 LINE"
);
}
);
};
layerId = "137AEC82-B0BC-44E1-9F98-144717E162AD";
paths = (
{
closed = 1;
nodes = (
"188 725 LINE",
"86 725 LINE",
"86 0 LINE",
"571 0 LINE",
"571 88 LINE",
"188 88 LINE"
);
}
);
width = 571;
},
{
background = {
paths = (
{
closed = 1;
nodes = (
"188 725 LINE",
"86 725 LINE",
"86 0 LINE",
"571 0 LINE",
"571 88 LINE",
"188 88 LINE"
);
}
);
};
layerId = "C5488009-C580-4381-A4EE-96D70C5119DC";
paths = (
{
closed = 1;
nodes = (
"188 725 LINE",
"86 725 LINE",
"86 0 LINE",
"571 0 LINE",
"571 88 LINE",
"188 88 LINE"
);
}
);
width = 571;
},
{
background = {
paths = (
{
closed = 1;
nodes = (
"188 725 LINE",
"86 725 LINE",
"86 0 LINE",
"571 0 LINE",
"571 88 LINE",
"188 88 LINE"
);
}
);
};
layerId = "48ECFA74-86AE-4037-9A42-9B6212E42530";
paths = (
{
closed = 1;
nodes = (
"188 725 LINE",
"86 725 LINE",
"86 0 LINE",
"571 0 LINE",
"571 88 LINE",
"188 88 LINE"
);
}
);
width = 571;
}
);
note = L;
rightKerningGroup = L;
unicode = 004C;
},
{
glyphname = M;
lastChange = "2019-01-15 23:46:45 +0000";
layers = (
{
background = {
paths = (
{
closed = 1;
nodes = (
"496 0 LINE",
"696 632 LINE",
"696 0 LINE",
"798 0 LINE",
"798 725 LINE",
"627 725 LINE",
"442 121 LINE",
"257 725 LINE",
"86 725 LINE",
"86 0 LINE",
"188 0 LINE",
"188 632 LINE",
"388 0 LINE"
);
}
);
};
layerId = "137AEC82-B0BC-44E1-9F98-144717E162AD";
paths = (
{
closed = 1;
nodes = (
"496 0 LINE",
"696 632 LINE",
"696 0 LINE",
"798 0 LINE",
"798 725 LINE",
"627 725 LINE",
"442 121 LINE",
"257 725 LINE",
"86 725 LINE",
"86 0 LINE",
"188 0 LINE",
"188 632 LINE",
"388 0 LINE"
);
}
);
width = 884;
},
{
background = {
paths = (
{
closed = 1;
nodes = (
"496 0 LINE",
"696 632 LINE",
"696 0 LINE",
"798 0 LINE",
"798 725 LINE",
"627 725 LINE",
"442 121 LINE",
"257 725 LINE",
"86 725 LINE",
"86 0 LINE",
"188 0 LINE",
"188 632 LINE",
"388 0 LINE"
);
}
);
};
layerId = "C5488009-C580-4381-A4EE-96D70C5119DC";
paths = (
{
closed = 1;
nodes = (
"86 723 LINE",
"86 -2 LINE",
"188 -2 LINE",
"188 723 LINE"
);
},
{
closed = 1;
nodes = (
"188 475 LINE",
"188 572 OFFCURVE",
"233 642 OFFCURVE",
"322 642 CURVE SMOOTH",
"443 642 OFFCURVE",
"482 510 OFFCURVE",
"482 405 CURVE SMOOTH",
"482 320 OFFCURVE",
"457 242 OFFCURVE",
"420 242 CURVE SMOOTH",
"385 242 OFFCURVE",
"371 301 OFFCURVE",
"371 336 CURVE SMOOTH",
"371 444 OFFCURVE",
"480 529 OFFCURVE",
"581 529 CURVE SMOOTH",
"693 529 OFFCURVE",
"742 483 OFFCURVE",
"742 402 CURVE SMOOTH",
"742 384 OFFCURVE",
"743 362 OFFCURVE",
"728 318 CURVE SMOOTH",
"712 270 OFFCURVE",
"682 232 OFFCURVE",
"663 191 CURVE SMOOTH",
"646 155 OFFCURVE",
"632 110 OFFCURVE",
"632 58 CURVE SMOOTH",
"632 30 OFFCURVE",
"644 0 OFFCURVE",
"680 0 CURVE SMOOTH",
"705 0 OFFCURVE",
"730 16 OFFCURVE",
"734 54 CURVE SMOOTH",
"737 87 OFFCURVE",
"742 131 OFFCURVE",
"770 182 CURVE SMOOTH",
"791 220 OFFCURVE",
"822 262 OFFCURVE",
"837 352 CURVE SMOOTH",
"839 366 OFFCURVE",
"840 380 OFFCURVE",
"840 393 CURVE SMOOTH",
"840 519 OFFCURVE",
"737 625 OFFCURVE",
"593 625 CURVE SMOOTH",
"426 625 OFFCURVE",
"275 496 OFFCURVE",
"275 317 CURVE SMOOTH",
"275 220 OFFCURVE",
"338 146 OFFCURVE",
"418 146 CURVE SMOOTH",
"508 146 OFFCURVE",
"578 251 OFFCURVE",
"578 393 CURVE SMOOTH",
"578 600 OFFCURVE",
"463 738 OFFCURVE",
"334 738 CURVE SMOOTH",
"181 738 OFFCURVE",
"166 624 OFFCURVE",
"160 520 CURVE"
);
}
);
width = 884;
},
{
background = {
paths = (
{
closed = 1;
nodes = (
"496 0 LINE",
"696 632 LINE",
"696 0 LINE",
"798 0 LINE",
"798 725 LINE",
"627 725 LINE",
"442 121 LINE",
"257 725 LINE",
"86 725 LINE",
"86 0 LINE",
"188 0 LINE",
"188 632 LINE",
"388 0 LINE"
);
}
);
};
layerId = "48ECFA74-86AE-4037-9A42-9B6212E42530";
paths = (
{
closed = 1;
nodes = (
"696 0 LINE",
"798 0 LINE",
"798 725 LINE",
"696 725 LINE"
);
},
{
closed = 1;
nodes = (
"188 725 LINE",
"86 725 LINE",
"86 0 LINE",
"188 0 LINE"
);
},
{
closed = 1;
nodes = (
"265 302 LINE",
"356 302 LINE",
"356 562 LINE",
"265 562 LINE"
);
},
{
closed = 1;
nodes = (
"188 562 LINE",
"279 562 LINE",
"279 725 LINE",
"188 725 LINE"
);
},
{
closed = 1;
nodes = (
"397 0 LINE",
"488 0 LINE",
"488 89 LINE",
"397 89 LINE"
);
},
{
closed = 1;
nodes = (
"326 89 LINE",
"417 89 LINE",
"417 302 LINE",
"326 302 LINE"
);
},
{
closed = 1;
nodes = (
"529 562 LINE",
"529 302 LINE",
"620 302 LINE",
"620 562 LINE"
);
},
{
closed = 1;
nodes = (
"605 725 LINE",
"605 562 LINE",
"696 562 LINE",
"696 725 LINE"
);
},
{
closed = 1;
nodes = (
"468 302 LINE",
"468 89 LINE",
"559 89 LINE",
"559 302 LINE"
);
}
);
width = 884;
},
{
associatedMasterId = "48ECFA74-86AE-4037-9A42-9B6212E42530";
background = {
paths = (
{
closed = 1;
nodes = (
"496 0 LINE",
"696 632 LINE",
"696 0 LINE",
"798 0 LINE",
"798 725 LINE",
"627 725 LINE",
"442 121 LINE",
"257 725 LINE",
"86 725 LINE",
"86 0 LINE",
"188 0 LINE",
"188 632 LINE",
"388 0 LINE"
);
}
);
};
layerId = "19C97B93-9119-40BF-837F-53FE0EF82012";
name = "Dec 18 18, 16:28";
paths = (
{
closed = 1;
nodes = (
"86 723 LINE",
"86 -2 LINE",
"188 -2 LINE",
"188 723 LINE"
);
},
{
closed = 1;
nodes = (
"140 520 OFFCURVE",
"169 498 OFFCURVE",
"188 475 CURVE",
"188 572 OFFCURVE",
"243 652 OFFCURVE",
"332 652 CURVE SMOOTH",
"422 652 OFFCURVE",
"482 536 OFFCURVE",
"482 386 CURVE SMOOTH",
"482 321 OFFCURVE",
"462 278 OFFCURVE",
"433 278 CURVE SMOOTH",
"409 278 OFFCURVE",
"393 301 OFFCURVE",
"393 336 CURVE SMOOTH",
"393 444 OFFCURVE",
"480 529 OFFCURVE",
"581 529 CURVE SMOOTH",
"684 529 OFFCURVE",
"711 431 OFFCURVE",
"711 331 CURVE SMOOTH",
"711 248 OFFCURVE",
"624 227 OFFCURVE",
"624 137 CURVE SMOOTH",
"624 70 OFFCURVE",
"667 100 OFFCURVE",
"676 61 CURVE SMOOTH",
"685 21 OFFCURVE",
"689 0 OFFCURVE",
"740 0 CURVE SMOOTH",
"767 0 OFFCURVE",
"788 16 OFFCURVE",
"797 37 CURVE SMOOTH",
"799 42 OFFCURVE",
"799 47 OFFCURVE",
"799 49 CURVE SMOOTH",
"799 76 OFFCURVE",
"702 97 OFFCURVE",
"702 137 CURVE SMOOTH",
"702 182 OFFCURVE",
"797 220 OFFCURVE",
"797 314 CURVE SMOOTH",
"797 495 OFFCURVE",
"727 615 OFFCURVE",
"593 615 CURVE SMOOTH",
"426 615 OFFCURVE",
"295 496 OFFCURVE",
"295 317 CURVE SMOOTH",
"295 220 OFFCURVE",
"348 156 OFFCURVE",
"428 156 CURVE SMOOTH",
"518 156 OFFCURVE",
"578 251 OFFCURVE",
"578 393 CURVE SMOOTH",
"578 600 OFFCURVE",
"480 738 OFFCURVE",
"334 738 CURVE SMOOTH",
"206 738 OFFCURVE",
"121 660 OFFCURVE",
"121 543 CURVE"
);
}
);
width = 884;
},
{
associatedMasterId = "C5488009-C580-4381-A4EE-96D70C5119DC";
background = {
paths = (
{
closed = 1;
nodes = (
"496 0 LINE",
"696 632 LINE",
"696 0 LINE",
"798 0 LINE",
"798 725 LINE",
"627 725 LINE",
"442 121 LINE",
"257 725 LINE",
"86 725 LINE",
"86 0 LINE",
"188 0 LINE",
"188 632 LINE",
"388 0 LINE"
);
}
);
};
layerId = "4BB1E21A-7BFB-4FAF-846B-664C1DF6928B";
name = "Dec 21 18, 13:36";
paths = (
{
closed = 1;
nodes = (
"86 723 LINE",
"86 -2 LINE",
"188 -2 LINE",
"188 723 LINE"
);
},
{
closed = 1;
nodes = (
"188 475 LINE",
"188 572 OFFCURVE",
"233 642 OFFCURVE",
"322 642 CURVE SMOOTH",
"443 642 OFFCURVE",
"492 510 OFFCURVE",
"492 405 CURVE SMOOTH",
"492 320 OFFCURVE",
"467 242 OFFCURVE",
"430 242 CURVE SMOOTH",
"395 242 OFFCURVE",
"381 301 OFFCURVE",
"381 336 CURVE SMOOTH",
"381 444 OFFCURVE",
"480 529 OFFCURVE",
"581 529 CURVE SMOOTH",
"665 529 OFFCURVE",
"702 483 OFFCURVE",
"702 402 CURVE SMOOTH",
"702 384 OFFCURVE",
"700 363 OFFCURVE",
"696 341 CURVE SMOOTH",
"682 258 OFFCURVE",
"659 218 OFFCURVE",
"617 178 CURVE SMOOTH",
"587 149 OFFCURVE",
"572 110 OFFCURVE",
"572 79 CURVE SMOOTH",
"572 30 OFFCURVE",
"615 0 OFFCURVE",
"643 0 CURVE SMOOTH",
"657 0 OFFCURVE",
"687 5 OFFCURVE",
"690 28 CURVE SMOOTH",
"695 68 OFFCURVE",
"675 72 OFFCURVE",
"679 101 CURVE SMOOTH",
"684 134 OFFCURVE",
"700 150 OFFCURVE",
"730 182 CURVE SMOOTH",
"760 214 OFFCURVE",
"782 248 OFFCURVE",
"797 352 CURVE SMOOTH",
"799 366 OFFCURVE",
"800 380 OFFCURVE",
"800 393 CURVE SMOOTH",
"800 519 OFFCURVE",
"714 625 OFFCURVE",
"593 625 CURVE SMOOTH",
"426 625 OFFCURVE",
"285 496 OFFCURVE",
"285 317 CURVE SMOOTH",
"285 220 OFFCURVE",
"348 146 OFFCURVE",
"428 146 CURVE SMOOTH",
"518 146 OFFCURVE",
"588 251 OFFCURVE",
"588 393 CURVE SMOOTH",
"588 600 OFFCURVE",
"463 738 OFFCURVE",
"334 738 CURVE SMOOTH",
"181 738 OFFCURVE",
"166 624 OFFCURVE",
"160 520 CURVE"
);
}
);
width = 884;
}
);
note = M;
rightKerningGroup = H;
unicode = 004D;
},
{
glyphname = N;
lastChange = "2018-12-19 16:43:55 +0000";
layers = (
{
background = {
paths = (
{
closed = 1;
nodes = (
"669 0 LINE",
"669 725 LINE",
"567 725 LINE",
"567 108 LINE",
"236 725 LINE",
"86 725 LINE",
"86 0 LINE",
"188 0 LINE",
"188 619 LINE",
"520 0 LINE"
);
}
);
};
layerId = "137AEC82-B0BC-44E1-9F98-144717E162AD";
paths = (
{
closed = 1;
nodes = (
"669 0 LINE",
"669 725 LINE",
"567 725 LINE",
"567 108 LINE",
"236 725 LINE",
"86 725 LINE",
"86 0 LINE",
"188 0 LINE",
"188 619 LINE",
"520 0 LINE"
);
}
);
width = 755;
},
{
background = {
paths = (
{
closed = 1;
nodes = (
"669 0 LINE",
"669 725 LINE",
"567 725 LINE",
"567 108 LINE",
"236 725 LINE",
"86 725 LINE",
"86 0 LINE",
"188 0 LINE",
"188 619 LINE",
"520 0 LINE"
);
}
);
};
layerId = "C5488009-C580-4381-A4EE-96D70C5119DC";
paths = (
{
closed = 1;
nodes = (
"86 725 LINE",
"86 0 LINE",
"188 0 LINE",
"188 725 LINE"
);
},
{
closed = 1;
nodes = (
"567 725 LINE",
"567 0 LINE",
"669 0 LINE",
"669 725 LINE"
);
},
{
closed = 1;
nodes = (
"306 598 OFFCURVE",
"223 553 OFFCURVE",
"257 491 CURVE",
"410 206 LINE",
"445 143 OFFCURVE",
"527 188 OFFCURVE",
"492 251 CURVE",
"339 536 LINE"
);
}
);
width = 755;
},
{
background = {
paths = (
{
closed = 1;
nodes = (
"669 0 LINE",
"669 725 LINE",
"567 725 LINE",
"567 108 LINE",
"236 725 LINE",
"86 725 LINE",
"86 0 LINE",
"188 0 LINE",
"188 619 LINE",
"520 0 LINE"
);
}
);
};
layerId = "48ECFA74-86AE-4037-9A42-9B6212E42530";
paths = (
{
closed = 1;
nodes = (
"669 0 LINE",
"669 725 LINE",
"567 725 LINE",
"567 108 LINE",
"236 725 LINE",
"86 725 LINE",
"86 0 LINE",
"188 0 LINE",
"188 619 LINE",
"520 0 LINE"
);
}
);
width = 755;
}
);
note = N;
rightKerningGroup = H;
unicode = 004E;
},
{
glyphname = O;
lastChange = "2018-12-18 18:21:57 +0000";
layers = (
{
background = {
paths = (
{
closed = 1;
nodes = (
"155 550 OFFCURVE",
"259 652 OFFCURVE",
"391 652 CURVE SMOOTH",
"523 652 OFFCURVE",
"627 550 OFFCURVE",
"627 363 CURVE SMOOTH",
"627 176 OFFCURVE",
"523 73 OFFCURVE",
"391 73 CURVE SMOOTH",
"259 73 OFFCURVE",
"155 176 OFFCURVE",
"155 363 CURVE SMOOTH"
);
},
{
closed = 1;
nodes = (
"731 582 OFFCURVE",
"600 738 OFFCURVE",
"391 738 CURVE SMOOTH",
"182 738 OFFCURVE",
"51 582 OFFCURVE",
"51 363 CURVE SMOOTH",
"51 144 OFFCURVE",
"182 -13 OFFCURVE",
"391 -13 CURVE SMOOTH",
"600 -13 OFFCURVE",
"731 144 OFFCURVE",
"731 363 CURVE SMOOTH"
);
}
);
};
layerId = "137AEC82-B0BC-44E1-9F98-144717E162AD";
paths = (
{
closed = 1;
nodes = (
"155 550 OFFCURVE",
"259 652 OFFCURVE",
"391 652 CURVE SMOOTH",
"523 652 OFFCURVE",
"627 550 OFFCURVE",
"627 363 CURVE SMOOTH",
"627 176 OFFCURVE",
"523 73 OFFCURVE",
"391 73 CURVE SMOOTH",
"259 73 OFFCURVE",
"155 176 OFFCURVE",
"155 363 CURVE SMOOTH"
);
},
{
closed = 1;
nodes = (
"731 582 OFFCURVE",
"600 738 OFFCURVE",
"391 738 CURVE SMOOTH",
"182 738 OFFCURVE",
"51 582 OFFCURVE",
"51 363 CURVE SMOOTH",
"51 144 OFFCURVE",
"182 -13 OFFCURVE",
"391 -13 CURVE SMOOTH",
"600 -13 OFFCURVE",
"731 144 OFFCURVE",
"731 363 CURVE SMOOTH"
);
}
);
width = 782;
},
{
background = {
paths = (
{
closed = 1;
nodes = (
"155 550 OFFCURVE",
"259 652 OFFCURVE",
"391 652 CURVE SMOOTH",
"523 652 OFFCURVE",
"627 550 OFFCURVE",
"627 363 CURVE SMOOTH",
"627 176 OFFCURVE",
"523 73 OFFCURVE",
"391 73 CURVE SMOOTH",
"259 73 OFFCURVE",
"155 176 OFFCURVE",
"155 363 CURVE SMOOTH"
);
},
{
closed = 1;
nodes = (
"731 582 OFFCURVE",
"600 738 OFFCURVE",
"391 738 CURVE SMOOTH",
"182 738 OFFCURVE",
"51 582 OFFCURVE",
"51 363 CURVE SMOOTH",
"51 144 OFFCURVE",
"182 -13 OFFCURVE",
"391 -13 CURVE SMOOTH",
"600 -13 OFFCURVE",
"731 144 OFFCURVE",
"731 363 CURVE SMOOTH"
);
}
);
};
layerId = "C5488009-C580-4381-A4EE-96D70C5119DC";
paths = (
{
closed = 1;
nodes = (
"155 550 OFFCURVE",
"259 652 OFFCURVE",
"391 652 CURVE SMOOTH",
"523 652 OFFCURVE",
"627 550 OFFCURVE",
"627 363 CURVE SMOOTH",
"627 176 OFFCURVE",
"523 73 OFFCURVE",
"391 73 CURVE SMOOTH",
"259 73 OFFCURVE",
"155 176 OFFCURVE",
"155 363 CURVE SMOOTH"
);
},
{
closed = 1;
nodes = (
"731 582 OFFCURVE",
"600 738 OFFCURVE",
"391 738 CURVE SMOOTH",
"182 738 OFFCURVE",
"51 582 OFFCURVE",
"51 363 CURVE SMOOTH",
"51 144 OFFCURVE",
"182 -13 OFFCURVE",
"391 -13 CURVE SMOOTH",
"600 -13 OFFCURVE",
"731 144 OFFCURVE",
"731 363 CURVE SMOOTH"
);
}
);
width = 782;
},
{
background = {
paths = (
{
closed = 1;
nodes = (
"155 550 OFFCURVE",
"259 652 OFFCURVE",
"391 652 CURVE SMOOTH",
"523 652 OFFCURVE",
"627 550 OFFCURVE",
"627 363 CURVE SMOOTH",
"627 176 OFFCURVE",
"523 73 OFFCURVE",
"391 73 CURVE SMOOTH",
"259 73 OFFCURVE",
"155 176 OFFCURVE",
"155 363 CURVE SMOOTH"
);
},
{
closed = 1;
nodes = (
"731 582 OFFCURVE",
"600 738 OFFCURVE",
"391 738 CURVE SMOOTH",
"182 738 OFFCURVE",
"51 582 OFFCURVE",
"51 363 CURVE SMOOTH",
"51 144 OFFCURVE",
"182 -13 OFFCURVE",
"391 -13 CURVE SMOOTH",
"600 -13 OFFCURVE",
"731 144 OFFCURVE",
"731 363 CURVE SMOOTH"
);
}
);
};
layerId = "48ECFA74-86AE-4037-9A42-9B6212E42530";
paths = (
{
closed = 1;
nodes = (
"155 550 OFFCURVE",
"259 652 OFFCURVE",
"391 652 CURVE SMOOTH",
"523 652 OFFCURVE",
"627 550 OFFCURVE",
"627 363 CURVE SMOOTH",
"627 176 OFFCURVE",
"523 73 OFFCURVE",
"391 73 CURVE SMOOTH",
"259 73 OFFCURVE",
"155 176 OFFCURVE",
"155 363 CURVE SMOOTH"
);
},
{
closed = 1;
nodes = (
"731 582 OFFCURVE",
"600 738 OFFCURVE",
"391 738 CURVE SMOOTH",
"182 738 OFFCURVE",
"51 582 OFFCURVE",
"51 363 CURVE SMOOTH",
"51 144 OFFCURVE",
"182 -13 OFFCURVE",
"391 -13 CURVE SMOOTH",
"600 -13 OFFCURVE",
"731 144 OFFCURVE",
"731 363 CURVE SMOOTH"
);
}
);
width = 782;
}
);
leftKerningGroup = C;
note = O;
rightKerningGroup = D;
unicode = 004F;
},
{
glyphname = P;
lastChange = "2019-01-15 20:03:41 +0000";
layers = (
{
background = {
paths = (
{
closed = 1;
nodes = (
"86 725 LINE",
"86 0 LINE",
"188 0 LINE",
"188 287 LINE",
"313 287 LINE SMOOTH",
"490 287 OFFCURVE",
"614 326 OFFCURVE",
"614 506 CURVE SMOOTH",
"614 685 OFFCURVE",
"490 725 OFFCURVE",
"313 725 CURVE SMOOTH"
);
},
{
closed = 1;
nodes = (
"321 639 LINE SMOOTH",
"427 639 OFFCURVE",
"510 624 OFFCURVE",
"510 506 CURVE SMOOTH",
"510 387 OFFCURVE",
"427 376 OFFCURVE",
"321 376 CURVE SMOOTH",
"188 376 LINE",
"188 639 LINE"
);
}
);
};
layerId = "137AEC82-B0BC-44E1-9F98-144717E162AD";
paths = (
{
closed = 1;
nodes = (
"86 725 LINE",
"86 0 LINE",
"188 0 LINE",
"188 287 LINE",
"313 287 LINE SMOOTH",
"490 287 OFFCURVE",
"614 326 OFFCURVE",
"614 506 CURVE SMOOTH",
"614 685 OFFCURVE",
"490 725 OFFCURVE",
"313 725 CURVE SMOOTH"
);
},
{
closed = 1;
nodes = (
"321 639 LINE SMOOTH",
"427 639 OFFCURVE",
"510 624 OFFCURVE",
"510 506 CURVE SMOOTH",
"510 387 OFFCURVE",
"427 376 OFFCURVE",
"321 376 CURVE SMOOTH",
"188 376 LINE",
"188 639 LINE"
);
}
);
width = 636;
},
{
associatedMasterId = "48ECFA74-86AE-4037-9A42-9B6212E42530";
background = {
paths = (
{
closed = 1;
nodes = (
"86 725 LINE",
"86 0 LINE",
"188 0 LINE",
"188 287 LINE",
"313 287 LINE SMOOTH",
"490 287 OFFCURVE",
"614 326 OFFCURVE",
"614 506 CURVE SMOOTH",
"614 685 OFFCURVE",
"490 725 OFFCURVE",
"313 725 CURVE SMOOTH"
);
},
{
closed = 1;
nodes = (
"321 639 LINE SMOOTH",
"427 639 OFFCURVE",
"510 624 OFFCURVE",
"510 506 CURVE SMOOTH",
"510 387 OFFCURVE",
"427 376 OFFCURVE",
"321 376 CURVE SMOOTH",
"188 376 LINE",
"188 639 LINE"
);
}
);
};
layerId = "35C38BCE-AC0E-4FBE-8FF3-2D151D8639B1";
name = pixel;
paths = (
{
closed = 1;
nodes = (
"145 725 LINE",
"145 639 LINE",
"523 639 LINE",
"523 725 LINE"
);
},
{
closed = 1;
nodes = (
"86 0 LINE",
"188 0 LINE",
"188 725 LINE",
"86 725 LINE"
);
},
{
closed = 1;
nodes = (
"510 358 LINE",
"614 358 LINE",
"614 645 LINE",
"510 645 LINE"
);
},
{
closed = 1;
nodes = (
"150 376 LINE",
"150 287 LINE",
"528 287 LINE",
"528 376 LINE"
);
}
);
width = 636;
},
{
background = {
paths = (
{
closed = 1;
nodes = (
"86 725 LINE",
"86 0 LINE",
"188 0 LINE",
"188 287 LINE",
"313 287 LINE SMOOTH",
"490 287 OFFCURVE",
"614 326 OFFCURVE",
"614 506 CURVE SMOOTH",
"614 685 OFFCURVE",
"490 725 OFFCURVE",
"313 725 CURVE SMOOTH"
);
},
{
closed = 1;
nodes = (
"321 639 LINE SMOOTH",
"427 639 OFFCURVE",
"510 624 OFFCURVE",
"510 506 CURVE SMOOTH",
"510 387 OFFCURVE",
"427 376 OFFCURVE",
"321 376 CURVE SMOOTH",
"188 376 LINE",
"188 639 LINE"
);
}
);
};
layerId = "48ECFA74-86AE-4037-9A42-9B6212E42530";
paths = (
{
closed = 1;
nodes = (
"86 0 LINE",
"188 0 LINE",
"188 725 LINE",
"86 725 LINE"
);
},
{
closed = 1;
nodes = (
"486 639 LINE",
"505 639 OFFCURVE",
"513 632 OFFCURVE",
"513 614 CURVE",
"513 498 LINE",
"614 498 LINE",
"614 619 LINE",
"614 635 OFFCURVE",
"605 645 OFFCURVE",
"589 645 CURVE",
"541 645 LINE",
"530 645 OFFCURVE",
"526 651 OFFCURVE",
"526 661 CURVE",
"526 709 LINE SMOOTH",
"526 720 OFFCURVE",
"516 725 OFFCURVE",
"505 725 CURVE SMOOTH",
"145 725 LINE",
"145 639 LINE"
);
},
{
closed = 1;
nodes = (
"145 287 LINE",
"505 287 LINE SMOOTH",
"516 287 OFFCURVE",
"526 292 OFFCURVE",
"526 303 CURVE SMOOTH",
"526 354 LINE",
"526 364 OFFCURVE",
"530 370 OFFCURVE",
"541 370 CURVE",
"589 370 LINE",
"605 370 OFFCURVE",
"614 380 OFFCURVE",
"614 396 CURVE",
"614 519 LINE",
"513 519 LINE",
"513 401 LINE",
"513 383 OFFCURVE",
"505 376 OFFCURVE",
"486 376 CURVE",
"145 376 LINE"
);
}
);
width = 636;
},
{
associatedMasterId = "C5488009-C580-4381-A4EE-96D70C5119DC";
background = {
paths = (
{
closed = 1;
nodes = (
"86 725 LINE",
"86 0 LINE",
"188 0 LINE",
"188 287 LINE",
"313 287 LINE SMOOTH",
"490 287 OFFCURVE",
"614 326 OFFCURVE",
"614 506 CURVE SMOOTH",
"614 685 OFFCURVE",
"490 725 OFFCURVE",
"313 725 CURVE SMOOTH"
);
},
{
closed = 1;
nodes = (
"321 639 LINE SMOOTH",
"427 639 OFFCURVE",
"510 624 OFFCURVE",
"510 506 CURVE SMOOTH",
"510 387 OFFCURVE",
"427 376 OFFCURVE",
"321 376 CURVE SMOOTH",
"188 376 LINE",
"188 639 LINE"
);
}
);
};
layerId = "4165734B-F190-4AED-85F9-AA5226D61172";
name = linework;
paths = (
{
closed = 1;
nodes = (
"211 588 LINE",
"217 588 LINE",
"217 725 LINE",
"211 725 LINE"
);
},
{
closed = 1;
nodes = (
"225 588 LINE",
"231 588 LINE",
"231 725 LINE",
"225 725 LINE"
);
},
{
closed = 1;
nodes = (
"240 588 LINE",
"246 588 LINE",
"246 725 LINE",
"240 725 LINE"
);
},
{
closed = 1;
nodes = (
"255 588 LINE",
"261 588 LINE",
"261 725 LINE",
"255 725 LINE"
);
},
{
closed = 1;
nodes = (
"269 588 LINE",
"275 588 LINE",
"275 725 LINE",
"269 725 LINE"
);
},
{
closed = 1;
nodes = (
"284 588 LINE",
"290 588 LINE",
"290 725 LINE",
"284 725 LINE"
);
},
{
closed = 1;
nodes = (
"299 588 LINE",
"305 588 LINE",
"305 725 LINE",
"299 725 LINE"
);
},
{
closed = 1;
nodes = (
"314 588 LINE",
"320 588 LINE",
"320 725 LINE",
"314 725 LINE"
);
},
{
closed = 1;
nodes = (
"329 588 LINE",
"335 588 LINE",
"335 725 LINE",
"329 725 LINE"
);
},
{
closed = 1;
nodes = (
"374 588 LINE",
"380 588 LINE",
"380 723 LINE",
"374 723 LINE"
);
},
{
closed = 1;
nodes = (
"389 588 LINE",
"395 588 LINE",
"396 721 LINE",
"389 722 LINE"
);
},
{
closed = 1;
nodes = (
"474 513 LINE",
"474 506 LINE",
"614 506 LINE",
"614 513 LINE"
);
},
{
closed = 1;
nodes = (
"473 529 LINE",
"474 523 LINE",
"611 550 LINE",
"610 557 LINE"
);
},
{
closed = 1;
nodes = (
"467 545 LINE",
"469 539 LINE",
"603 588 LINE",
"601 595 LINE"
);
},
{
closed = 1;
nodes = (
"459 560 LINE",
"462 555 LINE",
"586 627 LINE",
"583 632 LINE"
);
},
{
closed = 1;
nodes = (
"452 571 LINE",
"455 567 LINE",
"564 656 LINE",
"559 660 LINE"
);
},
{
closed = 1;
nodes = (
"441 580 LINE",
"444 577 LINE",
"531 682 LINE",
"527 685 LINE"
);
},
{
closed = 1;
nodes = (
"429 586 LINE",
"434 584 LINE",
"483 704 LINE",
"477 706 LINE"
);
},
{
closed = 1;
nodes = (
"417 588 LINE",
"422 587 LINE",
"443 714 LINE",
"437 715 LINE"
);
},
{
closed = 1;
nodes = (
"403 588 LINE",
"409 588 LINE",
"414 719 LINE",
"407 720 LINE"
);
},
{
closed = 1;
nodes = (
"344 588 LINE",
"350 588 LINE",
"351 724 LINE",
"344 725 LINE"
);
},
{
closed = 1;
nodes = (
"359 588 LINE",
"365 588 LINE",
"365 724 LINE",
"359 724 LINE"
);
},
{
closed = 1;
nodes = (
"217 287 LINE",
"217 430 LINE",
"211 430 LINE",
"211 287 LINE"
);
},
{
closed = 1;
nodes = (
"231 287 LINE",
"231 430 LINE",
"225 430 LINE",
"225 287 LINE"
);
},
{
closed = 1;
nodes = (
"246 287 LINE",
"246 430 LINE",
"240 430 LINE",
"240 287 LINE"
);
},
{
closed = 1;
nodes = (
"261 287 LINE",
"261 430 LINE",
"255 430 LINE",
"255 287 LINE"
);
},
{
closed = 1;
nodes = (
"275 287 LINE",
"275 430 LINE",
"269 430 LINE",
"269 287 LINE"
);
},
{
closed = 1;
nodes = (
"290 287 LINE",
"290 430 LINE",
"284 430 LINE",
"284 287 LINE"
);
},
{
closed = 1;
nodes = (
"305 287 LINE",
"305 430 LINE",
"299 430 LINE",
"299 287 LINE"
);
},
{
closed = 1;
nodes = (
"320 287 LINE",
"320 430 LINE",
"314 430 LINE",
"314 287 LINE"
);
},
{
closed = 1;
nodes = (
"335 287 LINE",
"335 430 LINE",
"329 430 LINE",
"329 287 LINE"
);
},
{
closed = 1;
nodes = (
"380 289 LINE",
"380 430 LINE",
"374 430 LINE",
"373 289 LINE"
);
},
{
closed = 1;
nodes = (
"403 292 LINE",
"395 430 LINE",
"389 430 LINE",
"395 291 LINE"
);
},
{
closed = 1;
nodes = (
"612 468 LINE",
"474 495 LINE",
"473 489 LINE",
"611 461 LINE"
);
},
{
closed = 1;
nodes = (
"604 429 LINE",
"469 479 LINE",
"467 473 LINE",
"602 422 LINE"
);
},
{
closed = 1;
nodes = (
"589 389 LINE",
"462 463 LINE",
"459 458 LINE",
"586 384 LINE"
);
},
{
closed = 1;
nodes = (
"567 359 LINE",
"455 451 LINE",
"452 447 LINE",
"563 355 LINE"
);
},
{
closed = 1;
nodes = (
"535 332 LINE",
"444 441 LINE",
"441 438 LINE",
"530 329 LINE"
);
},
{
closed = 1;
nodes = (
"492 311 LINE",
"434 434 LINE",
"429 432 LINE",
"484 308 LINE"
);
},
{
closed = 1;
nodes = (
"454 300 LINE",
"422 431 LINE",
"417 430 LINE",
"446 298 LINE"
);
},
{
closed = 1;
nodes = (
"425 294 LINE",
"409 430 LINE",
"403 430 LINE",
"417 293 LINE"
);
},
{
closed = 1;
nodes = (
"350 288 LINE",
"350 430 LINE",
"344 430 LINE",
"344 288 LINE"
);
},
{
closed = 1;
nodes = (
"365 288 LINE",
"365 430 LINE",
"359 430 LINE",
"359 288 LINE"
);
},
{
closed = 1;
nodes = (
"202 287 LINE",
"202 430 LINE",
"196 430 LINE",
"196 287 LINE"
);
},
{
closed = 1;
nodes = (
"196 588 LINE",
"202 588 LINE",
"202 725 LINE",
"196 725 LINE"
);
},
{
closed = 1;
nodes = (
"185 685 LINE",
"185 691 LINE",
"86 691 LINE",
"86 685 LINE"
);
},
{
closed = 1;
nodes = (
"185 668 LINE",
"185 674 LINE",
"86 674 LINE",
"86 668 LINE"
);
},
{
closed = 1;
nodes = (
"185 719 LINE",
"185 725 LINE",
"86 725 LINE",
"86 719 LINE"
);
},
{
closed = 1;
nodes = (
"185 702 LINE",
"185 708 LINE",
"86 708 LINE",
"86 702 LINE"
);
},
{
closed = 1;
nodes = (
"185 618 LINE",
"185 624 LINE",
"86 624 LINE",
"86 618 LINE"
);
},
{
closed = 1;
nodes = (
"185 601 LINE",
"185 607 LINE",
"86 607 LINE",
"86 601 LINE"
);
},
{
closed = 1;
nodes = (
"185 652 LINE",
"185 658 LINE",
"86 658 LINE",
"86 652 LINE"
);
},
{
closed = 1;
nodes = (
"185 635 LINE",
"185 641 LINE",
"86 641 LINE",
"86 635 LINE"
);
},
{
closed = 1;
nodes = (
"185 551 LINE",
"185 557 LINE",
"86 557 LINE",
"86 551 LINE"
);
},
{
closed = 1;
nodes = (
"185 534 LINE",
"185 540 LINE",
"86 540 LINE",
"86 534 LINE"
);
},
{
closed = 1;
nodes = (
"185 585 LINE",
"185 591 LINE",
"86 591 LINE",
"86 585 LINE"
);
},
{
closed = 1;
nodes = (
"185 568 LINE",
"185 574 LINE",
"86 574 LINE",
"86 568 LINE"
);
},
{
closed = 1;
nodes = (
"185 484 LINE",
"185 490 LINE",
"86 490 LINE",
"86 484 LINE"
);
},
{
closed = 1;
nodes = (
"185 467 LINE",
"185 473 LINE",
"86 473 LINE",
"86 467 LINE"
);
},
{
closed = 1;
nodes = (
"185 518 LINE",
"185 524 LINE",
"86 524 LINE",
"86 518 LINE"
);
},
{
closed = 1;
nodes = (
"185 501 LINE",
"185 507 LINE",
"86 507 LINE",
"86 501 LINE"
);
},
{
closed = 1;
nodes = (
"185 416 LINE",
"185 422 LINE",
"86 422 LINE",
"86 416 LINE"
);
},
{
closed = 1;
nodes = (
"185 399 LINE",
"185 405 LINE",
"86 405 LINE",
"86 399 LINE"
);
},
{
closed = 1;
nodes = (
"185 450 LINE",
"185 456 LINE",
"86 456 LINE",
"86 450 LINE"
);
},
{
closed = 1;
nodes = (
"185 433 LINE",
"185 439 LINE",
"86 439 LINE",
"86 433 LINE"
);
},
{
closed = 1;
nodes = (
"185 349 LINE",
"185 355 LINE",
"86 355 LINE",
"86 349 LINE"
);
},
{
closed = 1;
nodes = (
"185 332 LINE",
"185 338 LINE",
"86 338 LINE",
"86 332 LINE"
);
},
{
closed = 1;
nodes = (
"185 383 LINE",
"185 389 LINE",
"86 389 LINE",
"86 383 LINE"
);
},
{
closed = 1;
nodes = (
"185 366 LINE",
"185 372 LINE",
"86 372 LINE",
"86 366 LINE"
);
},
{
closed = 1;
nodes = (
"185 280 LINE",
"185 286 LINE",
"86 286 LINE",
"86 280 LINE"
);
},
{
closed = 1;
nodes = (
"185 263 LINE",
"185 269 LINE",
"86 269 LINE",
"86 263 LINE"
);
},
{
closed = 1;
nodes = (
"185 314 LINE",
"185 320 LINE",
"86 320 LINE",
"86 314 LINE"
);
},
{
closed = 1;
nodes = (
"185 297 LINE",
"185 303 LINE",
"86 303 LINE",
"86 297 LINE"
);
},
{
closed = 1;
nodes = (
"185 213 LINE",
"185 219 LINE",
"86 219 LINE",
"86 213 LINE"
);
},
{
closed = 1;
nodes = (
"185 196 LINE",
"185 202 LINE",
"86 202 LINE",
"86 196 LINE"
);
},
{
closed = 1;
nodes = (
"185 247 LINE",
"185 253 LINE",
"86 253 LINE",
"86 247 LINE"
);
},
{
closed = 1;
nodes = (
"185 230 LINE",
"185 236 LINE",
"86 236 LINE",
"86 230 LINE"
);
},
{
closed = 1;
nodes = (
"185 145 LINE",
"185 151 LINE",
"86 151 LINE",
"86 145 LINE"
);
},
{
closed = 1;
nodes = (
"185 128 LINE",
"185 134 LINE",
"86 134 LINE",
"86 128 LINE"
);
},
{
closed = 1;
nodes = (
"185 179 LINE",
"185 185 LINE",
"86 185 LINE",
"86 179 LINE"
);
},
{
closed = 1;
nodes = (
"185 162 LINE",
"185 168 LINE",
"86 168 LINE",
"86 162 LINE"
);
},
{
closed = 1;
nodes = (
"185 78 LINE",
"185 84 LINE",
"86 84 LINE",
"86 78 LINE"
);
},
{
closed = 1;
nodes = (
"185 61 LINE",
"185 67 LINE",
"86 67 LINE",
"86 61 LINE"
);
},
{
closed = 1;
nodes = (
"185 112 LINE",
"185 118 LINE",
"86 118 LINE",
"86 112 LINE"
);
},
{
closed = 1;
nodes = (
"185 95 LINE",
"185 101 LINE",
"86 101 LINE",
"86 95 LINE"
);
},
{
closed = 1;
nodes = (
"185 27 LINE",
"185 33 LINE",
"86 33 LINE",
"86 27 LINE"
);
},
{
closed = 1;
nodes = (
"185 10 LINE",
"185 16 LINE",
"86 16 LINE",
"86 10 LINE"
);
},
{
closed = 1;
nodes = (
"185 44 LINE",
"185 50 LINE",
"86 50 LINE",
"86 44 LINE"
);
}
);
width = 636;
},
{
background = {
paths = (
{
closed = 1;
nodes = (
"86 725 LINE",
"86 0 LINE",
"188 0 LINE",
"188 287 LINE",
"313 287 LINE SMOOTH",
"490 287 OFFCURVE",
"614 326 OFFCURVE",
"614 506 CURVE SMOOTH",
"614 685 OFFCURVE",
"490 725 OFFCURVE",
"313 725 CURVE SMOOTH"
);
},
{
closed = 1;
nodes = (
"321 639 LINE SMOOTH",
"427 639 OFFCURVE",
"510 624 OFFCURVE",
"510 506 CURVE SMOOTH",
"510 387 OFFCURVE",
"427 376 OFFCURVE",
"321 376 CURVE SMOOTH",
"188 376 LINE",
"188 639 LINE"
);
}
);
};
layerId = "C5488009-C580-4381-A4EE-96D70C5119DC";
paths = (
{
closed = 1;
nodes = (
"86 725 LINE",
"86 0 LINE",
"188 0 LINE",
"188 287 LINE",
"373 287 LINE SMOOTH",
"490 287 OFFCURVE",
"614 326 OFFCURVE",
"614 506 CURVE SMOOTH",
"614 685 OFFCURVE",
"490 725 OFFCURVE",
"373 725 CURVE SMOOTH"
);
},
{
closed = 1;
nodes = (
"260 346 OFFCURVE",
"188 418 OFFCURVE",
"188 507 CURVE SMOOTH",
"188 598 OFFCURVE",
"259 670 OFFCURVE",
"350 669 CURVE",
"439 669 OFFCURVE",
"511 596 OFFCURVE",
"511 507 CURVE",
"511 418 OFFCURVE",
"439 346 OFFCURVE",
"350 346 CURVE"
);
}
);
width = 636;
},
{
associatedMasterId = "C5488009-C580-4381-A4EE-96D70C5119DC";
background = {
paths = (
{
closed = 1;
nodes = (
"86 725 LINE",
"86 0 LINE",
"188 0 LINE",
"188 287 LINE",
"313 287 LINE SMOOTH",
"490 287 OFFCURVE",
"614 326 OFFCURVE",
"614 506 CURVE SMOOTH",
"614 685 OFFCURVE",
"490 725 OFFCURVE",
"313 725 CURVE SMOOTH"
);
},
{
closed = 1;
nodes = (
"321 639 LINE SMOOTH",
"427 639 OFFCURVE",
"510 624 OFFCURVE",
"510 506 CURVE SMOOTH",
"510 387 OFFCURVE",
"427 376 OFFCURVE",
"321 376 CURVE SMOOTH",
"188 376 LINE",
"188 639 LINE"
);
}
);
};
layerId = "CAA479D8-7D73-4BF2-84FA-1FF478BFF1CE";
name = "Jan 15 19, 14:33";
paths = (
{
closed = 1;
nodes = (
"86 725 LINE",
"86 0 LINE",
"188 0 LINE",
"188 287 LINE",
"313 287 LINE SMOOTH",
"490 287 OFFCURVE",
"614 326 OFFCURVE",
"614 506 CURVE SMOOTH",
"614 685 OFFCURVE",
"490 725 OFFCURVE",
"313 725 CURVE SMOOTH"
);
},
{
closed = 1;
nodes = (
"437 558 LINE SMOOTH",
"478 558 OFFCURVE",
"510 552 OFFCURVE",
"510 507 CURVE SMOOTH",
"510 461 OFFCURVE",
"478 457 OFFCURVE",
"437 457 CURVE SMOOTH",
"188 457 LINE",
"188 558 LINE"
);
}
);
width = 636;
}
);
note = P;
rightKerningGroup = P;
unicode = 0050;
},
{
glyphname = Q;
lastChange = "2018-12-18 18:21:57 +0000";
layers = (
{
background = {
paths = (
{
closed = 1;
nodes = (
"731 582 OFFCURVE",
"600 738 OFFCURVE",
"391 738 CURVE SMOOTH",
"182 738 OFFCURVE",
"51 582 OFFCURVE",
"51 363 CURVE SMOOTH",
"51 144 OFFCURVE",
"182 -13 OFFCURVE",
"391 -13 CURVE SMOOTH",
"464 -13 OFFCURVE",
"528 6 OFFCURVE",
"580 41 CURVE",
"669 -48 LINE",
"731 14 LINE",
"645 100 LINE",
"700 166 OFFCURVE",
"731 257 OFFCURVE",
"731 363 CURVE SMOOTH"
);
},
{
closed = 1;
nodes = (
"155 550 OFFCURVE",
"259 652 OFFCURVE",
"391 652 CURVE SMOOTH",
"523 652 OFFCURVE",
"627 550 OFFCURVE",
"627 363 CURVE SMOOTH",
"627 282 OFFCURVE",
"608 218 OFFCURVE",
"575 170 CURVE",
"508 238 LINE",
"446 175 LINE",
"513 108 LINE",
"477 85 OFFCURVE",
"436 73 OFFCURVE",
"391 73 CURVE SMOOTH",
"259 73 OFFCURVE",
"155 176 OFFCURVE",
"155 363 CURVE SMOOTH"
);
}
);
};
layerId = "137AEC82-B0BC-44E1-9F98-144717E162AD";
paths = (
{
closed = 1;
nodes = (
"731 582 OFFCURVE",
"600 738 OFFCURVE",
"391 738 CURVE SMOOTH",
"182 738 OFFCURVE",
"51 582 OFFCURVE",
"51 363 CURVE SMOOTH",
"51 144 OFFCURVE",
"182 -13 OFFCURVE",
"391 -13 CURVE SMOOTH",
"464 -13 OFFCURVE",
"528 6 OFFCURVE",
"580 41 CURVE",
"669 -48 LINE",
"731 14 LINE",
"645 100 LINE",
"700 166 OFFCURVE",
"731 257 OFFCURVE",
"731 363 CURVE SMOOTH"
);
},
{
closed = 1;
nodes = (
"155 550 OFFCURVE",
"259 652 OFFCURVE",
"391 652 CURVE SMOOTH",
"523 652 OFFCURVE",
"627 550 OFFCURVE",
"627 363 CURVE SMOOTH",
"627 282 OFFCURVE",
"608 218 OFFCURVE",
"575 170 CURVE",
"508 238 LINE",
"446 175 LINE",
"513 108 LINE",
"477 85 OFFCURVE",
"436 73 OFFCURVE",
"391 73 CURVE SMOOTH",
"259 73 OFFCURVE",
"155 176 OFFCURVE",
"155 363 CURVE SMOOTH"
);
}
);
width = 782;
},
{
background = {
paths = (
{
closed = 1;
nodes = (
"731 582 OFFCURVE",
"600 738 OFFCURVE",
"391 738 CURVE SMOOTH",
"182 738 OFFCURVE",
"51 582 OFFCURVE",
"51 363 CURVE SMOOTH",
"51 144 OFFCURVE",
"182 -13 OFFCURVE",
"391 -13 CURVE SMOOTH",
"464 -13 OFFCURVE",
"528 6 OFFCURVE",
"580 41 CURVE",
"669 -48 LINE",
"731 14 LINE",
"645 100 LINE",
"700 166 OFFCURVE",
"731 257 OFFCURVE",
"731 363 CURVE SMOOTH"
);
},
{
closed = 1;
nodes = (
"155 550 OFFCURVE",
"259 652 OFFCURVE",
"391 652 CURVE SMOOTH",
"523 652 OFFCURVE",
"627 550 OFFCURVE",
"627 363 CURVE SMOOTH",
"627 282 OFFCURVE",
"608 218 OFFCURVE",
"575 170 CURVE",
"508 238 LINE",
"446 175 LINE",
"513 108 LINE",
"477 85 OFFCURVE",
"436 73 OFFCURVE",
"391 73 CURVE SMOOTH",
"259 73 OFFCURVE",
"155 176 OFFCURVE",
"155 363 CURVE SMOOTH"
);
}
);
};
layerId = "C5488009-C580-4381-A4EE-96D70C5119DC";
paths = (
{
closed = 1;
nodes = (
"731 582 OFFCURVE",
"600 738 OFFCURVE",
"391 738 CURVE SMOOTH",
"182 738 OFFCURVE",
"51 582 OFFCURVE",
"51 363 CURVE SMOOTH",
"51 144 OFFCURVE",
"182 -13 OFFCURVE",
"391 -13 CURVE SMOOTH",
"464 -13 OFFCURVE",
"528 6 OFFCURVE",
"580 41 CURVE",
"669 -48 LINE",
"731 14 LINE",
"645 100 LINE",
"700 166 OFFCURVE",
"731 257 OFFCURVE",
"731 363 CURVE SMOOTH"
);
},
{
closed = 1;
nodes = (
"155 550 OFFCURVE",
"259 652 OFFCURVE",
"391 652 CURVE SMOOTH",
"523 652 OFFCURVE",
"627 550 OFFCURVE",
"627 363 CURVE SMOOTH",
"627 282 OFFCURVE",
"608 218 OFFCURVE",
"575 170 CURVE",
"508 238 LINE",
"446 175 LINE",
"513 108 LINE",
"477 85 OFFCURVE",
"436 73 OFFCURVE",
"391 73 CURVE SMOOTH",
"259 73 OFFCURVE",
"155 176 OFFCURVE",
"155 363 CURVE SMOOTH"
);
}
);
width = 782;
},
{
background = {
paths = (
{
closed = 1;
nodes = (
"731 582 OFFCURVE",
"600 738 OFFCURVE",
"391 738 CURVE SMOOTH",
"182 738 OFFCURVE",
"51 582 OFFCURVE",
"51 363 CURVE SMOOTH",
"51 144 OFFCURVE",
"182 -13 OFFCURVE",
"391 -13 CURVE SMOOTH",
"464 -13 OFFCURVE",
"528 6 OFFCURVE",
"580 41 CURVE",
"669 -48 LINE",
"731 14 LINE",
"645 100 LINE",
"700 166 OFFCURVE",
"731 257 OFFCURVE",
"731 363 CURVE SMOOTH"
);
},
{
closed = 1;
nodes = (
"155 550 OFFCURVE",
"259 652 OFFCURVE",
"391 652 CURVE SMOOTH",
"523 652 OFFCURVE",
"627 550 OFFCURVE",
"627 363 CURVE SMOOTH",
"627 282 OFFCURVE",
"608 218 OFFCURVE",
"575 170 CURVE",
"508 238 LINE",
"446 175 LINE",
"513 108 LINE",
"477 85 OFFCURVE",
"436 73 OFFCURVE",
"391 73 CURVE SMOOTH",
"259 73 OFFCURVE",
"155 176 OFFCURVE",
"155 363 CURVE SMOOTH"
);
}
);
};
layerId = "48ECFA74-86AE-4037-9A42-9B6212E42530";
paths = (
{
closed = 1;
nodes = (
"731 582 OFFCURVE",
"600 738 OFFCURVE",
"391 738 CURVE SMOOTH",
"182 738 OFFCURVE",
"51 582 OFFCURVE",
"51 363 CURVE SMOOTH",
"51 144 OFFCURVE",
"182 -13 OFFCURVE",
"391 -13 CURVE SMOOTH",
"464 -13 OFFCURVE",
"528 6 OFFCURVE",
"580 41 CURVE",
"669 -48 LINE",
"731 14 LINE",
"645 100 LINE",
"700 166 OFFCURVE",
"731 257 OFFCURVE",
"731 363 CURVE SMOOTH"
);
},
{
closed = 1;
nodes = (
"155 550 OFFCURVE",
"259 652 OFFCURVE",
"391 652 CURVE SMOOTH",
"523 652 OFFCURVE",
"627 550 OFFCURVE",
"627 363 CURVE SMOOTH",
"627 282 OFFCURVE",
"608 218 OFFCURVE",
"575 170 CURVE",
"508 238 LINE",
"446 175 LINE",
"513 108 LINE",
"477 85 OFFCURVE",
"436 73 OFFCURVE",
"391 73 CURVE SMOOTH",
"259 73 OFFCURVE",
"155 176 OFFCURVE",
"155 363 CURVE SMOOTH"
);
}
);
width = 782;
}
);
leftKerningGroup = C;
note = Q;
rightKerningGroup = Q;
unicode = 0051;
},
{
glyphname = R;
lastChange = "2018-12-18 18:21:57 +0000";
layers = (
{
background = {
paths = (
{
closed = 1;
nodes = (
"528 0 LINE",
"642 0 LINE",
"474 322 LINE",
"563 346 OFFCURVE",
"618 401 OFFCURVE",
"618 516 CURVE SMOOTH",
"618 690 OFFCURVE",
"493 725 OFFCURVE",
"316 725 CURVE SMOOTH",
"86 725 LINE",
"86 0 LINE",
"188 0 LINE",
"188 305 LINE",
"316 305 LINE SMOOTH",
"335 305 OFFCURVE",
"353 305 OFFCURVE",
"371 306 CURVE"
);
},
{
closed = 1;
nodes = (
"324 639 LINE SMOOTH",
"430 639 OFFCURVE",
"513 626 OFFCURVE",
"513 514 CURVE SMOOTH",
"513 402 OFFCURVE",
"430 391 OFFCURVE",
"324 391 CURVE SMOOTH",
"188 391 LINE",
"188 639 LINE"
);
}
);
};
layerId = "137AEC82-B0BC-44E1-9F98-144717E162AD";
paths = (
{
closed = 1;
nodes = (
"528 0 LINE",
"642 0 LINE",
"474 322 LINE",
"563 346 OFFCURVE",
"618 401 OFFCURVE",
"618 516 CURVE SMOOTH",
"618 690 OFFCURVE",
"493 725 OFFCURVE",
"316 725 CURVE SMOOTH",
"86 725 LINE",
"86 0 LINE",
"188 0 LINE",
"188 305 LINE",
"316 305 LINE SMOOTH",
"335 305 OFFCURVE",
"353 305 OFFCURVE",
"371 306 CURVE"
);
},
{
closed = 1;
nodes = (
"324 639 LINE SMOOTH",
"430 639 OFFCURVE",
"513 626 OFFCURVE",
"513 514 CURVE SMOOTH",
"513 402 OFFCURVE",
"430 391 OFFCURVE",
"324 391 CURVE SMOOTH",
"188 391 LINE",
"188 639 LINE"
);
}
);
width = 679;
},
{
background = {
paths = (
{
closed = 1;
nodes = (
"528 0 LINE",
"642 0 LINE",
"474 322 LINE",
"563 346 OFFCURVE",
"618 401 OFFCURVE",
"618 516 CURVE SMOOTH",
"618 690 OFFCURVE",
"493 725 OFFCURVE",
"316 725 CURVE SMOOTH",
"86 725 LINE",
"86 0 LINE",
"188 0 LINE",
"188 305 LINE",
"316 305 LINE SMOOTH",
"335 305 OFFCURVE",
"353 305 OFFCURVE",
"371 306 CURVE"
);
},
{
closed = 1;
nodes = (
"324 639 LINE SMOOTH",
"430 639 OFFCURVE",
"513 626 OFFCURVE",
"513 514 CURVE SMOOTH",
"513 402 OFFCURVE",
"430 391 OFFCURVE",
"324 391 CURVE SMOOTH",
"188 391 LINE",
"188 639 LINE"
);
}
);
};
layerId = "C5488009-C580-4381-A4EE-96D70C5119DC";
paths = (
{
closed = 1;
nodes = (
"528 0 LINE",
"642 0 LINE",
"474 322 LINE",
"563 346 OFFCURVE",
"618 401 OFFCURVE",
"618 516 CURVE SMOOTH",
"618 690 OFFCURVE",
"493 725 OFFCURVE",
"316 725 CURVE SMOOTH",
"86 725 LINE",
"86 0 LINE",
"188 0 LINE",
"188 305 LINE",
"316 305 LINE SMOOTH",
"335 305 OFFCURVE",
"353 305 OFFCURVE",
"371 306 CURVE"
);
},
{
closed = 1;
nodes = (
"324 639 LINE SMOOTH",
"430 639 OFFCURVE",
"513 626 OFFCURVE",
"513 514 CURVE SMOOTH",
"513 402 OFFCURVE",
"430 391 OFFCURVE",
"324 391 CURVE SMOOTH",
"188 391 LINE",
"188 639 LINE"
);
}
);
width = 679;
},
{
background = {
paths = (
{
closed = 1;
nodes = (
"528 0 LINE",
"642 0 LINE",
"474 322 LINE",
"563 346 OFFCURVE",
"618 401 OFFCURVE",
"618 516 CURVE SMOOTH",
"618 690 OFFCURVE",
"493 725 OFFCURVE",
"316 725 CURVE SMOOTH",
"86 725 LINE",
"86 0 LINE",
"188 0 LINE",
"188 305 LINE",
"316 305 LINE SMOOTH",
"335 305 OFFCURVE",
"353 305 OFFCURVE",
"371 306 CURVE"
);
},
{
closed = 1;
nodes = (
"324 639 LINE SMOOTH",
"430 639 OFFCURVE",
"513 626 OFFCURVE",
"513 514 CURVE SMOOTH",
"513 402 OFFCURVE",
"430 391 OFFCURVE",
"324 391 CURVE SMOOTH",
"188 391 LINE",
"188 639 LINE"
);
}
);
};
layerId = "48ECFA74-86AE-4037-9A42-9B6212E42530";
paths = (
{
closed = 1;
nodes = (
"528 0 LINE",
"642 0 LINE",
"474 322 LINE",
"563 346 OFFCURVE",
"618 401 OFFCURVE",
"618 516 CURVE SMOOTH",
"618 690 OFFCURVE",
"493 725 OFFCURVE",
"316 725 CURVE SMOOTH",
"86 725 LINE",
"86 0 LINE",
"188 0 LINE",
"188 305 LINE",
"316 305 LINE SMOOTH",
"335 305 OFFCURVE",
"353 305 OFFCURVE",
"371 306 CURVE"
);
},
{
closed = 1;
nodes = (
"324 639 LINE SMOOTH",
"430 639 OFFCURVE",
"513 626 OFFCURVE",
"513 514 CURVE SMOOTH",
"513 402 OFFCURVE",
"430 391 OFFCURVE",
"324 391 CURVE SMOOTH",
"188 391 LINE",
"188 639 LINE"
);
}
);
width = 679;
}
);
note = R;
rightKerningGroup = R;
unicode = 0052;
},
{
glyphname = S;
lastChange = "2018-12-21 19:20:16 +0000";
layers = (
{
background = {
paths = (
{
closed = 1;
nodes = (
"56 419 OFFCURVE",
"156 364 OFFCURVE",
"255 342 CURVE SMOOTH",
"345 323 LINE SMOOTH",
"436 303 OFFCURVE",
"501 271 OFFCURVE",
"501 195 CURVE SMOOTH",
"501 124 OFFCURVE",
"439 73 OFFCURVE",
"332 73 CURVE SMOOTH",
"221 73 OFFCURVE",
"151 125 OFFCURVE",
"132 225 CURVE",
"32 225 LINE",
"51 80 OFFCURVE",
"159 -13 OFFCURVE",
"330 -13 CURVE SMOOTH",
"474 -13 OFFCURVE",
"606 62 OFFCURVE",
"606 204 CURVE SMOOTH",
"606 350 OFFCURVE",
"473 392 OFFCURVE",
"362 416 CURVE SMOOTH",
"278 435 LINE SMOOTH",
"211 450 OFFCURVE",
"160 482 OFFCURVE",
"160 546 CURVE SMOOTH",
"160 627 OFFCURVE",
"258 652 OFFCURVE",
"314 652 CURVE SMOOTH",
"387 652 OFFCURVE",
"469 624 OFFCURVE",
"494 540 CURVE",
"593 540 LINE",
"565 680 OFFCURVE",
"448 738 OFFCURVE",
"318 738 CURVE SMOOTH",
"201 738 OFFCURVE",
"56 678 OFFCURVE",
"56 540 CURVE SMOOTH"
);
}
);
};
layerId = "137AEC82-B0BC-44E1-9F98-144717E162AD";
paths = (
{
closed = 1;
nodes = (
"56 419 OFFCURVE",
"156 364 OFFCURVE",
"255 342 CURVE SMOOTH",
"345 323 LINE SMOOTH",
"436 303 OFFCURVE",
"501 271 OFFCURVE",
"501 195 CURVE SMOOTH",
"501 124 OFFCURVE",
"439 73 OFFCURVE",
"332 73 CURVE SMOOTH",
"221 73 OFFCURVE",
"151 125 OFFCURVE",
"132 225 CURVE",
"32 225 LINE",
"51 80 OFFCURVE",
"159 -13 OFFCURVE",
"330 -13 CURVE SMOOTH",
"474 -13 OFFCURVE",
"606 62 OFFCURVE",
"606 204 CURVE SMOOTH",
"606 350 OFFCURVE",
"473 392 OFFCURVE",
"362 416 CURVE SMOOTH",
"278 435 LINE SMOOTH",
"211 450 OFFCURVE",
"160 482 OFFCURVE",
"160 546 CURVE SMOOTH",
"160 627 OFFCURVE",
"258 652 OFFCURVE",
"314 652 CURVE SMOOTH",
"387 652 OFFCURVE",
"469 624 OFFCURVE",
"494 540 CURVE",
"593 540 LINE",
"565 680 OFFCURVE",
"448 738 OFFCURVE",
"318 738 CURVE SMOOTH",
"201 738 OFFCURVE",
"56 678 OFFCURVE",
"56 540 CURVE SMOOTH"
);
}
);
width = 641;
},
{
background = {
paths = (
{
closed = 1;
nodes = (
"56 419 OFFCURVE",
"156 364 OFFCURVE",
"255 342 CURVE SMOOTH",
"345 323 LINE SMOOTH",
"436 303 OFFCURVE",
"501 271 OFFCURVE",
"501 195 CURVE SMOOTH",
"501 124 OFFCURVE",
"439 73 OFFCURVE",
"332 73 CURVE SMOOTH",
"221 73 OFFCURVE",
"151 125 OFFCURVE",
"132 225 CURVE",
"32 225 LINE",
"51 80 OFFCURVE",
"159 -13 OFFCURVE",
"330 -13 CURVE SMOOTH",
"474 -13 OFFCURVE",
"606 62 OFFCURVE",
"606 204 CURVE SMOOTH",
"606 350 OFFCURVE",
"473 392 OFFCURVE",
"362 416 CURVE SMOOTH",
"278 435 LINE SMOOTH",
"211 450 OFFCURVE",
"160 482 OFFCURVE",
"160 546 CURVE SMOOTH",
"160 627 OFFCURVE",
"258 652 OFFCURVE",
"314 652 CURVE SMOOTH",
"387 652 OFFCURVE",
"469 624 OFFCURVE",
"494 540 CURVE",
"593 540 LINE",
"565 680 OFFCURVE",
"448 738 OFFCURVE",
"318 738 CURVE SMOOTH",
"201 738 OFFCURVE",
"56 678 OFFCURVE",
"56 540 CURVE SMOOTH"
);
}
);
};
layerId = "C5488009-C580-4381-A4EE-96D70C5119DC";
paths = (
{
closed = 1;
nodes = (
"582 306 OFFCURVE",
"482 361 OFFCURVE",
"383 383 CURVE SMOOTH",
"293 402 LINE SMOOTH",
"202 422 OFFCURVE",
"137 454 OFFCURVE",
"137 530 CURVE SMOOTH",
"137 601 OFFCURVE",
"199 652 OFFCURVE",
"306 652 CURVE SMOOTH",
"417 652 OFFCURVE",
"487 600 OFFCURVE",
"506 500 CURVE",
"606 500 LINE",
"587 645 OFFCURVE",
"479 738 OFFCURVE",
"308 738 CURVE SMOOTH",
"164 738 OFFCURVE",
"32 663 OFFCURVE",
"32 521 CURVE SMOOTH",
"32 375 OFFCURVE",
"165 333 OFFCURVE",
"276 309 CURVE SMOOTH",
"360 290 LINE SMOOTH",
"427 275 OFFCURVE",
"478 243 OFFCURVE",
"478 179 CURVE SMOOTH",
"478 98 OFFCURVE",
"380 73 OFFCURVE",
"324 73 CURVE SMOOTH",
"251 73 OFFCURVE",
"169 101 OFFCURVE",
"144 185 CURVE",
"45 185 LINE",
"73 45 OFFCURVE",
"190 -13 OFFCURVE",
"320 -13 CURVE SMOOTH",
"437 -13 OFFCURVE",
"582 47 OFFCURVE",
"582 185 CURVE SMOOTH"
);
}
);
width = 641;
},
{
background = {
paths = (
{
closed = 1;
nodes = (
"56 419 OFFCURVE",
"156 364 OFFCURVE",
"255 342 CURVE SMOOTH",
"345 323 LINE SMOOTH",
"436 303 OFFCURVE",
"501 271 OFFCURVE",
"501 195 CURVE SMOOTH",
"501 124 OFFCURVE",
"439 73 OFFCURVE",
"332 73 CURVE SMOOTH",
"221 73 OFFCURVE",
"151 125 OFFCURVE",
"132 225 CURVE",
"32 225 LINE",
"51 80 OFFCURVE",
"159 -13 OFFCURVE",
"330 -13 CURVE SMOOTH",
"474 -13 OFFCURVE",
"606 62 OFFCURVE",
"606 204 CURVE SMOOTH",
"606 350 OFFCURVE",
"473 392 OFFCURVE",
"362 416 CURVE SMOOTH",
"278 435 LINE SMOOTH",
"211 450 OFFCURVE",
"160 482 OFFCURVE",
"160 546 CURVE SMOOTH",
"160 627 OFFCURVE",
"258 652 OFFCURVE",
"314 652 CURVE SMOOTH",
"387 652 OFFCURVE",
"469 624 OFFCURVE",
"494 540 CURVE",
"593 540 LINE",
"565 680 OFFCURVE",
"448 738 OFFCURVE",
"318 738 CURVE SMOOTH",
"201 738 OFFCURVE",
"56 678 OFFCURVE",
"56 540 CURVE SMOOTH"
);
}
);
};
layerId = "48ECFA74-86AE-4037-9A42-9B6212E42530";
paths = (
{
closed = 1;
nodes = (
"57 421 OFFCURVE",
"66 411 OFFCURVE",
"82 411 CURVE SMOOTH",
"130 411 LINE SMOOTH",
"141 411 OFFCURVE",
"145 405 OFFCURVE",
"145 395 CURVE SMOOTH",
"145 347 LINE SMOOTH",
"145 336 OFFCURVE",
"155 331 OFFCURVE",
"166 331 CURVE SMOOTH",
"488 331 LINE SMOOTH",
"507 331 OFFCURVE",
"515 324 OFFCURVE",
"515 306 CURVE SMOOTH",
"515 114 LINE SMOOTH",
"515 96 OFFCURVE",
"507 89 OFFCURVE",
"488 89 CURVE SMOOTH",
"190 89 LINE SMOOTH",
"171 89 OFFCURVE",
"163 96 OFFCURVE",
"163 114 CURVE",
"162 227 LINE",
"61 227 LINE",
"62 109 LINE SMOOTH",
"62 93 OFFCURVE",
"71 83 OFFCURVE",
"87 83 CURVE SMOOTH",
"135 83 LINE SMOOTH",
"146 83 OFFCURVE",
"150 77 OFFCURVE",
"150 67 CURVE SMOOTH",
"150 16 LINE SMOOTH",
"150 5 OFFCURVE",
"160 0 OFFCURVE",
"171 0 CURVE SMOOTH",
"507 0 LINE SMOOTH",
"518 0 OFFCURVE",
"528 5 OFFCURVE",
"528 16 CURVE SMOOTH",
"528 67 LINE SMOOTH",
"528 77 OFFCURVE",
"532 83 OFFCURVE",
"543 83 CURVE SMOOTH",
"581 83 LINE SMOOTH",
"597 83 OFFCURVE",
"606 93 OFFCURVE",
"606 109 CURVE SMOOTH",
"606 311 LINE SMOOTH",
"606 327 OFFCURVE",
"597 337 OFFCURVE",
"581 337 CURVE SMOOTH",
"533 337 LINE SMOOTH",
"522 337 OFFCURVE",
"518 343 OFFCURVE",
"518 353 CURVE SMOOTH",
"518 401 LINE SMOOTH",
"518 412 OFFCURVE",
"508 417 OFFCURVE",
"497 417 CURVE SMOOTH",
"185 417 LINE SMOOTH",
"166 417 OFFCURVE",
"158 424 OFFCURVE",
"158 442 CURVE SMOOTH",
"158 614 LINE SMOOTH",
"158 632 OFFCURVE",
"166 639 OFFCURVE",
"185 639 CURVE SMOOTH",
"448 639 LINE SMOOTH",
"467 639 OFFCURVE",
"475 632 OFFCURVE",
"475 614 CURVE SMOOTH",
"477 538 LINE",
"578 538 LINE",
"576 619 LINE",
"576 635 OFFCURVE",
"567 645 OFFCURVE",
"551 645 CURVE SMOOTH",
"503 645 LINE SMOOTH",
"492 645 OFFCURVE",
"488 651 OFFCURVE",
"488 661 CURVE SMOOTH",
"488 709 LINE SMOOTH",
"488 720 OFFCURVE",
"478 725 OFFCURVE",
"467 725 CURVE SMOOTH",
"166 725 LINE SMOOTH",
"155 725 OFFCURVE",
"145 720 OFFCURVE",
"145 709 CURVE SMOOTH",
"145 661 LINE SMOOTH",
"145 651 OFFCURVE",
"141 645 OFFCURVE",
"130 645 CURVE SMOOTH",
"82 645 LINE SMOOTH",
"66 645 OFFCURVE",
"57 635 OFFCURVE",
"57 619 CURVE SMOOTH",
"57 437 LINE SMOOTH"
);
}
);
width = 641;
}
);
leftKerningGroup = S;
note = S;
rightKerningGroup = S;
unicode = 0053;
},
{
glyphname = T;
lastChange = "2018-12-18 18:21:57 +0000";
layers = (
{
background = {
paths = (
{
closed = 1;
nodes = (
"236 0 LINE",
"338 0 LINE",
"338 637 LINE",
"574 637 LINE",
"574 725 LINE",
"0 725 LINE",
"0 637 LINE",
"236 637 LINE"
);
}
);
};
layerId = "137AEC82-B0BC-44E1-9F98-144717E162AD";
paths = (
{
closed = 1;
nodes = (
"236 0 LINE",
"338 0 LINE",
"338 637 LINE",
"574 637 LINE",
"574 725 LINE",
"0 725 LINE",
"0 637 LINE",
"236 637 LINE"
);
}
);
width = 574;
},
{
background = {
paths = (
{
closed = 1;
nodes = (
"236 0 LINE",
"338 0 LINE",
"338 637 LINE",
"574 637 LINE",
"574 725 LINE",
"0 725 LINE",
"0 637 LINE",
"236 637 LINE"
);
}
);
};
layerId = "C5488009-C580-4381-A4EE-96D70C5119DC";
paths = (
{
closed = 1;
nodes = (
"236 0 LINE",
"338 0 LINE",
"338 637 LINE",
"574 637 LINE",
"574 725 LINE",
"0 725 LINE",
"0 637 LINE",
"236 637 LINE"
);
}
);
width = 574;
},
{
background = {
paths = (
{
closed = 1;
nodes = (
"236 0 LINE",
"338 0 LINE",
"338 637 LINE",
"574 637 LINE",
"574 725 LINE",
"0 725 LINE",
"0 637 LINE",
"236 637 LINE"
);
}
);
};
layerId = "48ECFA74-86AE-4037-9A42-9B6212E42530";
paths = (
{
closed = 1;
nodes = (
"236 0 LINE",
"338 0 LINE",
"338 637 LINE",
"574 637 LINE",
"574 725 LINE",
"0 725 LINE",
"0 637 LINE",
"236 637 LINE"
);
}
);
width = 574;
}
);
leftKerningGroup = T;
note = T;
rightKerningGroup = T;
unicode = 0054;
},
{
glyphname = U;
lastChange = "2018-12-18 18:21:57 +0000";
layers = (
{
background = {
paths = (
{
closed = 1;
nodes = (
"75 725 LINE",
"75 295 LINE SMOOTH",
"75 69 OFFCURVE",
"163 -13 OFFCURVE",
"364 -13 CURVE SMOOTH",
"575 -13 OFFCURVE",
"656 91 OFFCURVE",
"656 303 CURVE SMOOTH",
"656 725 LINE",
"554 725 LINE",
"554 295 LINE SMOOTH",
"554 152 OFFCURVE",
"503 75 OFFCURVE",
"364 75 CURVE SMOOTH",
"228 75 OFFCURVE",
"177 142 OFFCURVE",
"177 284 CURVE SMOOTH",
"177 725 LINE"
);
}
);
};
layerId = "137AEC82-B0BC-44E1-9F98-144717E162AD";
paths = (
{
closed = 1;
nodes = (
"75 725 LINE",
"75 295 LINE SMOOTH",
"75 69 OFFCURVE",
"163 -13 OFFCURVE",
"364 -13 CURVE SMOOTH",
"575 -13 OFFCURVE",
"656 91 OFFCURVE",
"656 303 CURVE SMOOTH",
"656 725 LINE",
"554 725 LINE",
"554 295 LINE SMOOTH",
"554 152 OFFCURVE",
"503 75 OFFCURVE",
"364 75 CURVE SMOOTH",
"228 75 OFFCURVE",
"177 142 OFFCURVE",
"177 284 CURVE SMOOTH",
"177 725 LINE"
);
}
);
width = 731;
},
{
background = {
paths = (
{
closed = 1;
nodes = (
"75 725 LINE",
"75 295 LINE SMOOTH",
"75 69 OFFCURVE",
"163 -13 OFFCURVE",
"364 -13 CURVE SMOOTH",
"575 -13 OFFCURVE",
"656 91 OFFCURVE",
"656 303 CURVE SMOOTH",
"656 725 LINE",
"554 725 LINE",
"554 295 LINE SMOOTH",
"554 152 OFFCURVE",
"503 75 OFFCURVE",
"364 75 CURVE SMOOTH",
"228 75 OFFCURVE",
"177 142 OFFCURVE",
"177 284 CURVE SMOOTH",
"177 725 LINE"
);
}
);
};
layerId = "C5488009-C580-4381-A4EE-96D70C5119DC";
paths = (
{
closed = 1;
nodes = (
"75 725 LINE",
"75 295 LINE SMOOTH",
"75 69 OFFCURVE",
"163 -13 OFFCURVE",
"364 -13 CURVE SMOOTH",
"575 -13 OFFCURVE",
"656 91 OFFCURVE",
"656 303 CURVE SMOOTH",
"656 725 LINE",
"554 725 LINE",
"554 295 LINE SMOOTH",
"554 152 OFFCURVE",
"503 75 OFFCURVE",
"364 75 CURVE SMOOTH",
"228 75 OFFCURVE",
"177 142 OFFCURVE",
"177 284 CURVE SMOOTH",
"177 725 LINE"
);
}
);
width = 731;
},
{
background = {
paths = (
{
closed = 1;
nodes = (
"75 725 LINE",
"75 295 LINE SMOOTH",
"75 69 OFFCURVE",
"163 -13 OFFCURVE",
"364 -13 CURVE SMOOTH",
"575 -13 OFFCURVE",
"656 91 OFFCURVE",
"656 303 CURVE SMOOTH",
"656 725 LINE",
"554 725 LINE",
"554 295 LINE SMOOTH",
"554 152 OFFCURVE",
"503 75 OFFCURVE",
"364 75 CURVE SMOOTH",
"228 75 OFFCURVE",
"177 142 OFFCURVE",
"177 284 CURVE SMOOTH",
"177 725 LINE"
);
}
);
};
layerId = "48ECFA74-86AE-4037-9A42-9B6212E42530";
paths = (
{
closed = 1;
nodes = (
"75 725 LINE",
"75 295 LINE SMOOTH",
"75 69 OFFCURVE",
"163 -13 OFFCURVE",
"364 -13 CURVE SMOOTH",
"575 -13 OFFCURVE",
"656 91 OFFCURVE",
"656 303 CURVE SMOOTH",
"656 725 LINE",
"554 725 LINE",
"554 295 LINE SMOOTH",
"554 152 OFFCURVE",
"503 75 OFFCURVE",
"364 75 CURVE SMOOTH",
"228 75 OFFCURVE",
"177 142 OFFCURVE",
"177 284 CURVE SMOOTH",
"177 725 LINE"
);
}
);
width = 731;
}
);
leftKerningGroup = U;
note = U;
rightKerningGroup = J;
unicode = 0055;
},
{
glyphname = V;
lastChange = "2018-12-18 18:21:57 +0000";
layers = (
{
background = {
paths = (
{
closed = 1;
nodes = (
"11 725 LINE",
"260 0 LINE",
"382 0 LINE",
"628 725 LINE",
"521 725 LINE",
"324 105 LINE",
"123 725 LINE"
);
}
);
};
layerId = "137AEC82-B0BC-44E1-9F98-144717E162AD";
paths = (
{
closed = 1;
nodes = (
"11 725 LINE",
"260 0 LINE",
"382 0 LINE",
"628 725 LINE",
"521 725 LINE",
"324 105 LINE",
"123 725 LINE"
);
}
);
width = 638;
},
{
background = {
paths = (
{
closed = 1;
nodes = (
"11 725 LINE",
"260 0 LINE",
"382 0 LINE",
"628 725 LINE",
"521 725 LINE",
"324 105 LINE",
"123 725 LINE"
);
}
);
};
layerId = "C5488009-C580-4381-A4EE-96D70C5119DC";
paths = (
{
closed = 1;
nodes = (
"11 725 LINE",
"260 0 LINE",
"382 0 LINE",
"628 725 LINE",
"521 725 LINE",
"324 105 LINE",
"123 725 LINE"
);
}
);
width = 638;
},
{
background = {
paths = (
{
closed = 1;
nodes = (
"11 725 LINE",
"260 0 LINE",
"382 0 LINE",
"628 725 LINE",
"521 725 LINE",
"324 105 LINE",
"123 725 LINE"
);
}
);
};
layerId = "48ECFA74-86AE-4037-9A42-9B6212E42530";
paths = (
{
closed = 1;
nodes = (
"11 725 LINE",
"260 0 LINE",
"382 0 LINE",
"628 725 LINE",
"521 725 LINE",
"324 105 LINE",
"123 725 LINE"
);
}
);
width = 638;
}
);
leftKerningGroup = V;
note = V;
rightKerningGroup = V;
unicode = 0056;
},
{
glyphname = W;
lastChange = "2018-12-18 18:21:57 +0000";
layers = (
{
background = {
paths = (
{
closed = 1;
nodes = (
"522 725 LINE",
"402 725 LINE",
"268 116 LINE",
"128 725 LINE",
"16 725 LINE",
"200 0 LINE",
"324 0 LINE",
"461 596 LINE",
"601 0 LINE",
"725 0 LINE",
"906 725 LINE",
"799 725 LINE",
"665 116 LINE"
);
}
);
};
layerId = "137AEC82-B0BC-44E1-9F98-144717E162AD";
paths = (
{
closed = 1;
nodes = (
"522 725 LINE",
"402 725 LINE",
"268 116 LINE",
"128 725 LINE",
"16 725 LINE",
"200 0 LINE",
"324 0 LINE",
"461 596 LINE",
"601 0 LINE",
"725 0 LINE",
"906 725 LINE",
"799 725 LINE",
"665 116 LINE"
);
}
);
width = 922;
},
{
background = {
paths = (
{
closed = 1;
nodes = (
"522 725 LINE",
"402 725 LINE",
"268 116 LINE",
"128 725 LINE",
"16 725 LINE",
"200 0 LINE",
"324 0 LINE",
"461 596 LINE",
"601 0 LINE",
"725 0 LINE",
"906 725 LINE",
"799 725 LINE",
"665 116 LINE"
);
}
);
};
layerId = "C5488009-C580-4381-A4EE-96D70C5119DC";
paths = (
{
closed = 1;
nodes = (
"522 725 LINE",
"402 725 LINE",
"268 116 LINE",
"128 725 LINE",
"16 725 LINE",
"200 0 LINE",
"324 0 LINE",
"461 596 LINE",
"601 0 LINE",
"725 0 LINE",
"906 725 LINE",
"799 725 LINE",
"665 116 LINE"
);
}
);
width = 922;
},
{
background = {
paths = (
{
closed = 1;
nodes = (
"522 725 LINE",
"402 725 LINE",
"268 116 LINE",
"128 725 LINE",
"16 725 LINE",
"200 0 LINE",
"324 0 LINE",
"461 596 LINE",
"601 0 LINE",
"725 0 LINE",
"906 725 LINE",
"799 725 LINE",
"665 116 LINE"
);
}
);
};
layerId = "48ECFA74-86AE-4037-9A42-9B6212E42530";
paths = (
{
closed = 1;
nodes = (
"522 725 LINE",
"402 725 LINE",
"268 116 LINE",
"128 725 LINE",
"16 725 LINE",
"200 0 LINE",
"324 0 LINE",
"461 596 LINE",
"601 0 LINE",
"725 0 LINE",
"906 725 LINE",
"799 725 LINE",
"665 116 LINE"
);
}
);
width = 922;
}
);
leftKerningGroup = W;
note = W;
rightKerningGroup = W;
unicode = 0057;
},
{
glyphname = X;
lastChange = "2018-12-18 18:21:57 +0000";
layers = (
{
background = {
paths = (
{
closed = 1;
nodes = (
"0 0 LINE",
"115 0 LINE",
"326 293 LINE",
"536 0 LINE",
"656 0 LINE",
"387 377 LINE",
"638 725 LINE",
"523 725 LINE",
"330 457 LINE",
"139 725 LINE",
"18 725 LINE",
"269 373 LINE"
);
}
);
};
layerId = "137AEC82-B0BC-44E1-9F98-144717E162AD";
paths = (
{
closed = 1;
nodes = (
"0 0 LINE",
"115 0 LINE",
"326 293 LINE",
"536 0 LINE",
"656 0 LINE",
"387 377 LINE",
"638 725 LINE",
"523 725 LINE",
"330 457 LINE",
"139 725 LINE",
"18 725 LINE",
"269 373 LINE"
);
}
);
width = 656;
},
{
background = {
paths = (
{
closed = 1;
nodes = (
"0 0 LINE",
"115 0 LINE",
"326 293 LINE",
"536 0 LINE",
"656 0 LINE",
"387 377 LINE",
"638 725 LINE",
"523 725 LINE",
"330 457 LINE",
"139 725 LINE",
"18 725 LINE",
"269 373 LINE"
);
}
);
};
layerId = "C5488009-C580-4381-A4EE-96D70C5119DC";
paths = (
{
closed = 1;
nodes = (
"0 0 LINE",
"115 0 LINE",
"326 293 LINE",
"536 0 LINE",
"656 0 LINE",
"387 377 LINE",
"638 725 LINE",
"523 725 LINE",
"330 457 LINE",
"139 725 LINE",
"18 725 LINE",
"269 373 LINE"
);
}
);
width = 656;
},
{
background = {
paths = (
{
closed = 1;
nodes = (
"0 0 LINE",
"115 0 LINE",
"326 293 LINE",
"536 0 LINE",
"656 0 LINE",
"387 377 LINE",
"638 725 LINE",
"523 725 LINE",
"330 457 LINE",
"139 725 LINE",
"18 725 LINE",
"269 373 LINE"
);
}
);
};
layerId = "48ECFA74-86AE-4037-9A42-9B6212E42530";
paths = (
{
closed = 1;
nodes = (
"0 0 LINE",
"115 0 LINE",
"326 293 LINE",
"536 0 LINE",
"656 0 LINE",
"387 377 LINE",
"638 725 LINE",
"523 725 LINE",
"330 457 LINE",
"139 725 LINE",
"18 725 LINE",
"269 373 LINE"
);
}
);
width = 656;
}
);
leftKerningGroup = X;
note = X;
rightKerningGroup = X;
unicode = 0058;
},
{
glyphname = Y;
lastChange = "2018-12-18 18:21:57 +0000";
layers = (
{
background = {
paths = (
{
closed = 1;
nodes = (
"0 725 LINE",
"256 283 LINE",
"256 0 LINE",
"358 0 LINE",
"358 281 LINE",
"624 725 LINE",
"512 725 LINE",
"310 371 LINE",
"112 725 LINE"
);
}
);
};
layerId = "137AEC82-B0BC-44E1-9F98-144717E162AD";
paths = (
{
closed = 1;
nodes = (
"0 725 LINE",
"256 283 LINE",
"256 0 LINE",
"358 0 LINE",
"358 281 LINE",
"624 725 LINE",
"512 725 LINE",
"310 371 LINE",
"112 725 LINE"
);
}
);
width = 624;
},
{
background = {
paths = (
{
closed = 1;
nodes = (
"0 725 LINE",
"256 283 LINE",
"256 0 LINE",
"358 0 LINE",
"358 281 LINE",
"624 725 LINE",
"512 725 LINE",
"310 371 LINE",
"112 725 LINE"
);
}
);
};
layerId = "C5488009-C580-4381-A4EE-96D70C5119DC";
paths = (
{
closed = 1;
nodes = (
"0 725 LINE",
"256 283 LINE",
"256 0 LINE",
"358 0 LINE",
"358 281 LINE",
"624 725 LINE",
"512 725 LINE",
"310 371 LINE",
"112 725 LINE"
);
}
);
width = 624;
},
{
background = {
paths = (
{
closed = 1;
nodes = (
"0 725 LINE",
"256 283 LINE",
"256 0 LINE",
"358 0 LINE",
"358 281 LINE",
"624 725 LINE",
"512 725 LINE",
"310 371 LINE",
"112 725 LINE"
);
}
);
};
layerId = "48ECFA74-86AE-4037-9A42-9B6212E42530";
paths = (
{
closed = 1;
nodes = (
"0 725 LINE",
"256 283 LINE",
"256 0 LINE",
"358 0 LINE",
"358 281 LINE",
"624 725 LINE",
"512 725 LINE",
"310 371 LINE",
"112 725 LINE"
);
}
);
width = 624;
}
);
leftKerningGroup = Y;
note = Y;
rightKerningGroup = Y;
unicode = 0059;
},
{
glyphname = Z;
lastChange = "2018-12-18 18:21:57 +0000";
layers = (
{
background = {
paths = (
{
closed = 1;
nodes = (
"588 725 LINE",
"74 725 LINE",
"74 637 LINE",
"468 637 LINE",
"41 88 LINE",
"41 0 LINE",
"604 0 LINE",
"604 88 LINE",
"162 88 LINE",
"588 637 LINE"
);
}
);
};
layerId = "137AEC82-B0BC-44E1-9F98-144717E162AD";
paths = (
{
closed = 1;
nodes = (
"588 725 LINE",
"74 725 LINE",
"74 637 LINE",
"468 637 LINE",
"41 88 LINE",
"41 0 LINE",
"604 0 LINE",
"604 88 LINE",
"162 88 LINE",
"588 637 LINE"
);
}
);
width = 633;
},
{
background = {
paths = (
{
closed = 1;
nodes = (
"588 725 LINE",
"74 725 LINE",
"74 637 LINE",
"468 637 LINE",
"41 88 LINE",
"41 0 LINE",
"604 0 LINE",
"604 88 LINE",
"162 88 LINE",
"588 637 LINE"
);
}
);
};
layerId = "C5488009-C580-4381-A4EE-96D70C5119DC";
paths = (
{
closed = 1;
nodes = (
"588 725 LINE",
"74 725 LINE",
"74 637 LINE",
"468 637 LINE",
"41 88 LINE",
"41 0 LINE",
"604 0 LINE",
"604 88 LINE",
"162 88 LINE",
"588 637 LINE"
);
}
);
width = 633;
},
{
background = {
paths = (
{
closed = 1;
nodes = (
"588 725 LINE",
"74 725 LINE",
"74 637 LINE",
"468 637 LINE",
"41 88 LINE",
"41 0 LINE",
"604 0 LINE",
"604 88 LINE",
"162 88 LINE",
"588 637 LINE"
);
}
);
};
layerId = "48ECFA74-86AE-4037-9A42-9B6212E42530";
paths = (
{
closed = 1;
nodes = (
"588 725 LINE",
"74 725 LINE",
"74 637 LINE",
"468 637 LINE",
"41 88 LINE",
"41 0 LINE",
"604 0 LINE",
"604 88 LINE",
"162 88 LINE",
"588 637 LINE"
);
}
);
width = 633;
}
);
leftKerningGroup = Z;
note = Z;
rightKerningGroup = Z;
unicode = 005A;
},
{
glyphname = a;
lastChange = "2019-01-15 19:45:09 +0000";
layers = (
{
background = {
paths = (
{
closed = 1;
nodes = (
"411 225 LINE SMOOTH",
"411 98 OFFCURVE",
"330 59 OFFCURVE",
"245 59 CURVE SMOOTH",
"180 59 OFFCURVE",
"141 93 OFFCURVE",
"141 144 CURVE SMOOTH",
"141 218 OFFCURVE",
"246 242 OFFCURVE",
"411 259 CURVE"
);
},
{
closed = 1;
nodes = (
"320 -13 OFFCURVE",
"376 19 OFFCURVE",
"409 74 CURVE",
"410 42 OFFCURVE",
"413 20 OFFCURVE",
"416 0 CURVE",
"508 0 LINE",
"498 51 OFFCURVE",
"493 113 OFFCURVE",
"494 203 CURVE SMOOTH",
"495 327 LINE SMOOTH",
"496 478 OFFCURVE",
"429 549 OFFCURVE",
"281 549 CURVE SMOOTH",
"176 549 OFFCURVE",
"74 484 OFFCURVE",
"65 368 CURVE",
"159 368 LINE",
"163 434 OFFCURVE",
"207 475 OFFCURVE",
"282 475 CURVE SMOOTH",
"349 475 OFFCURVE",
"404 442 OFFCURVE",
"404 344 CURVE SMOOTH",
"404 331 LINE",
"183 306 OFFCURVE",
"40 269 OFFCURVE",
"40 142 CURVE SMOOTH",
"40 43 OFFCURVE",
"124 -13 OFFCURVE",
"225 -13 CURVE SMOOTH"
);
}
);
};
layerId = "137AEC82-B0BC-44E1-9F98-144717E162AD";
paths = (
{
closed = 1;
nodes = (
"411 225 LINE SMOOTH",
"411 98 OFFCURVE",
"330 59 OFFCURVE",
"245 59 CURVE SMOOTH",
"180 59 OFFCURVE",
"141 93 OFFCURVE",
"141 144 CURVE SMOOTH",
"141 218 OFFCURVE",
"246 242 OFFCURVE",
"411 259 CURVE"
);
},
{
closed = 1;
nodes = (
"320 -13 OFFCURVE",
"376 19 OFFCURVE",
"409 74 CURVE",
"410 42 OFFCURVE",
"413 20 OFFCURVE",
"416 0 CURVE",
"508 0 LINE",
"498 51 OFFCURVE",
"493 113 OFFCURVE",
"494 203 CURVE SMOOTH",
"495 327 LINE SMOOTH",
"496 478 OFFCURVE",
"429 549 OFFCURVE",
"281 549 CURVE SMOOTH",
"176 549 OFFCURVE",
"74 484 OFFCURVE",
"65 368 CURVE",
"159 368 LINE",
"163 434 OFFCURVE",
"207 475 OFFCURVE",
"282 475 CURVE SMOOTH",
"349 475 OFFCURVE",
"404 442 OFFCURVE",
"404 344 CURVE SMOOTH",
"404 331 LINE",
"183 306 OFFCURVE",
"40 269 OFFCURVE",
"40 142 CURVE SMOOTH",
"40 43 OFFCURVE",
"124 -13 OFFCURVE",
"225 -13 CURVE SMOOTH"
);
}
);
width = 559;
},
{
background = {
paths = (
{
closed = 1;
nodes = (
"411 225 LINE SMOOTH",
"411 98 OFFCURVE",
"330 59 OFFCURVE",
"245 59 CURVE SMOOTH",
"180 59 OFFCURVE",
"141 93 OFFCURVE",
"141 144 CURVE SMOOTH",
"141 218 OFFCURVE",
"246 242 OFFCURVE",
"411 259 CURVE"
);
},
{
closed = 1;
nodes = (
"320 -13 OFFCURVE",
"376 19 OFFCURVE",
"409 74 CURVE",
"410 42 OFFCURVE",
"413 20 OFFCURVE",
"416 0 CURVE",
"508 0 LINE",
"498 51 OFFCURVE",
"493 113 OFFCURVE",
"494 203 CURVE SMOOTH",
"495 327 LINE SMOOTH",
"496 478 OFFCURVE",
"429 549 OFFCURVE",
"281 549 CURVE SMOOTH",
"176 549 OFFCURVE",
"74 484 OFFCURVE",
"65 368 CURVE",
"159 368 LINE",
"163 434 OFFCURVE",
"207 475 OFFCURVE",
"282 475 CURVE SMOOTH",
"349 475 OFFCURVE",
"404 442 OFFCURVE",
"404 344 CURVE SMOOTH",
"404 331 LINE",
"183 306 OFFCURVE",
"40 269 OFFCURVE",
"40 142 CURVE SMOOTH",
"40 43 OFFCURVE",
"124 -13 OFFCURVE",
"225 -13 CURVE SMOOTH"
);
}
);
};
layerId = "C5488009-C580-4381-A4EE-96D70C5119DC";
paths = (
{
closed = 1;
nodes = (
"411 252 LINE SMOOTH",
"411 73 OFFCURVE",
"330 18 OFFCURVE",
"245 18 CURVE SMOOTH",
"180 18 OFFCURVE",
"141 66 OFFCURVE",
"141 138 CURVE SMOOTH",
"141 242 OFFCURVE",
"246 276 OFFCURVE",
"411 300 CURVE"
);
},
{
closed = 1;
nodes = (
"320 -13 OFFCURVE",
"376 19 OFFCURVE",
"409 74 CURVE",
"410 42 OFFCURVE",
"413 20 OFFCURVE",
"416 0 CURVE",
"508 0 LINE",
"498 51 OFFCURVE",
"493 113 OFFCURVE",
"494 203 CURVE SMOOTH",
"495 327 LINE SMOOTH",
"496 478 OFFCURVE",
"429 549 OFFCURVE",
"281 549 CURVE SMOOTH",
"176 549 OFFCURVE",
"74 484 OFFCURVE",
"65 368 CURVE",
"159 368 LINE",
"163 434 OFFCURVE",
"207 526 OFFCURVE",
"282 526 CURVE SMOOTH",
"349 526 OFFCURVE",
"409 442 OFFCURVE",
"409 344 CURVE SMOOTH",
"409 331 LINE",
"188 306 OFFCURVE",
"40 269 OFFCURVE",
"40 142 CURVE SMOOTH",
"40 43 OFFCURVE",
"124 -13 OFFCURVE",
"225 -13 CURVE SMOOTH"
);
}
);
width = 559;
},
{
background = {
paths = (
{
closed = 1;
nodes = (
"411 225 LINE SMOOTH",
"411 98 OFFCURVE",
"330 59 OFFCURVE",
"245 59 CURVE SMOOTH",
"180 59 OFFCURVE",
"141 93 OFFCURVE",
"141 144 CURVE SMOOTH",
"141 218 OFFCURVE",
"246 242 OFFCURVE",
"411 259 CURVE"
);
},
{
closed = 1;
nodes = (
"320 -13 OFFCURVE",
"376 19 OFFCURVE",
"409 74 CURVE",
"410 42 OFFCURVE",
"413 20 OFFCURVE",
"416 0 CURVE",
"508 0 LINE",
"498 51 OFFCURVE",
"493 113 OFFCURVE",
"494 203 CURVE SMOOTH",
"495 327 LINE SMOOTH",
"496 478 OFFCURVE",
"429 549 OFFCURVE",
"281 549 CURVE SMOOTH",
"176 549 OFFCURVE",
"74 484 OFFCURVE",
"65 368 CURVE",
"159 368 LINE",
"163 434 OFFCURVE",
"207 475 OFFCURVE",
"282 475 CURVE SMOOTH",
"349 475 OFFCURVE",
"404 442 OFFCURVE",
"404 344 CURVE SMOOTH",
"404 331 LINE",
"183 306 OFFCURVE",
"40 269 OFFCURVE",
"40 142 CURVE SMOOTH",
"40 43 OFFCURVE",
"124 -13 OFFCURVE",
"225 -13 CURVE SMOOTH"
);
}
);
};
layerId = "48ECFA74-86AE-4037-9A42-9B6212E42530";
paths = (
{
closed = 1;
nodes = (
"48 88 LINE",
"139 88 LINE",
"139 264 LINE",
"48 264 LINE"
);
},
{
closed = 1;
nodes = (
"159 450 LINE",
"404 450 LINE",
"404 538 LINE",
"159 538 LINE"
);
},
{
closed = 1;
nodes = (
"139 0 LINE",
"404 0 LINE",
"404 88 LINE",
"139 88 LINE"
);
},
{
closed = 1;
nodes = (
"404 0 LINE",
"495 0 LINE",
"495 450 LINE",
"404 450 LINE"
);
},
{
closed = 1;
nodes = (
"139 220 LINE",
"404 220 LINE",
"404 308 LINE",
"139 308 LINE"
);
},
{
closed = 1;
nodes = (
"68 362 LINE",
"159 362 LINE",
"159 450 LINE",
"68 450 LINE"
);
}
);
width = 559;
},
{
associatedMasterId = "48ECFA74-86AE-4037-9A42-9B6212E42530";
background = {
paths = (
{
closed = 1;
nodes = (
"411 225 LINE SMOOTH",
"411 98 OFFCURVE",
"330 59 OFFCURVE",
"245 59 CURVE SMOOTH",
"180 59 OFFCURVE",
"141 93 OFFCURVE",
"141 144 CURVE SMOOTH",
"141 218 OFFCURVE",
"246 242 OFFCURVE",
"411 259 CURVE"
);
},
{
closed = 1;
nodes = (
"320 -13 OFFCURVE",
"376 19 OFFCURVE",
"409 74 CURVE",
"410 42 OFFCURVE",
"413 20 OFFCURVE",
"416 0 CURVE",
"508 0 LINE",
"498 51 OFFCURVE",
"493 113 OFFCURVE",
"494 203 CURVE SMOOTH",
"495 327 LINE SMOOTH",
"496 478 OFFCURVE",
"429 549 OFFCURVE",
"281 549 CURVE SMOOTH",
"176 549 OFFCURVE",
"74 484 OFFCURVE",
"65 368 CURVE",
"159 368 LINE",
"163 434 OFFCURVE",
"207 475 OFFCURVE",
"282 475 CURVE SMOOTH",
"349 475 OFFCURVE",
"404 442 OFFCURVE",
"404 344 CURVE SMOOTH",
"404 331 LINE",
"183 306 OFFCURVE",
"40 269 OFFCURVE",
"40 142 CURVE SMOOTH",
"40 43 OFFCURVE",
"124 -13 OFFCURVE",
"225 -13 CURVE SMOOTH"
);
}
);
};
layerId = "D7E4FE7D-3C41-4977-95B6-17CC0E443726";
name = pixels;
paths = (
{
closed = 1;
nodes = (
"48 88 LINE",
"139 88 LINE",
"139 264 LINE",
"48 264 LINE"
);
},
{
closed = 1;
nodes = (
"159 450 LINE",
"404 450 LINE",
"404 538 LINE",
"159 538 LINE"
);
},
{
closed = 1;
nodes = (
"139 0 LINE",
"404 0 LINE",
"404 88 LINE",
"139 88 LINE"
);
},
{
closed = 1;
nodes = (
"404 0 LINE",
"495 0 LINE",
"495 450 LINE",
"404 450 LINE"
);
},
{
closed = 1;
nodes = (
"139 220 LINE",
"404 220 LINE",
"404 308 LINE",
"139 308 LINE"
);
},
{
closed = 1;
nodes = (
"68 362 LINE",
"159 362 LINE",
"159 450 LINE",
"68 450 LINE"
);
}
);
width = 559;
},
{
associatedMasterId = "C5488009-C580-4381-A4EE-96D70C5119DC";
background = {
paths = (
{
closed = 1;
nodes = (
"411 225 LINE SMOOTH",
"411 98 OFFCURVE",
"330 59 OFFCURVE",
"245 59 CURVE SMOOTH",
"180 59 OFFCURVE",
"141 93 OFFCURVE",
"141 144 CURVE SMOOTH",
"141 218 OFFCURVE",
"246 242 OFFCURVE",
"411 259 CURVE"
);
},
{
closed = 1;
nodes = (
"320 -13 OFFCURVE",
"376 19 OFFCURVE",
"409 74 CURVE",
"410 42 OFFCURVE",
"413 20 OFFCURVE",
"416 0 CURVE",
"508 0 LINE",
"498 51 OFFCURVE",
"493 113 OFFCURVE",
"494 203 CURVE SMOOTH",
"495 327 LINE SMOOTH",
"496 478 OFFCURVE",
"429 549 OFFCURVE",
"281 549 CURVE SMOOTH",
"176 549 OFFCURVE",
"74 484 OFFCURVE",
"65 368 CURVE",
"159 368 LINE",
"163 434 OFFCURVE",
"207 475 OFFCURVE",
"282 475 CURVE SMOOTH",
"349 475 OFFCURVE",
"404 442 OFFCURVE",
"404 344 CURVE SMOOTH",
"404 331 LINE",
"183 306 OFFCURVE",
"40 269 OFFCURVE",
"40 142 CURVE SMOOTH",
"40 43 OFFCURVE",
"124 -13 OFFCURVE",
"225 -13 CURVE SMOOTH"
);
}
);
};
layerId = "36881DD5-8594-48A2-A5CB-B17D2FB14184";
name = loopy;
paths = (
{
closed = 1;
nodes = (
"70 50 OFFCURVE",
"167 -12 OFFCURVE",
"284 -12 CURVE SMOOTH",
"415 -12 OFFCURVE",
"480 65 OFFCURVE",
"500 181 CURVE",
"548 163 OFFCURVE",
"585 246 OFFCURVE",
"503 272 CURVE",
"502 439 OFFCURVE",
"427 553 OFFCURVE",
"292 553 CURVE SMOOTH",
"180 553 OFFCURVE",
"100 490 OFFCURVE",
"96 393 CURVE SMOOTH",
"93 319 OFFCURVE",
"177 322 OFFCURVE",
"182 393 CURVE SMOOTH",
"186 445 OFFCURVE",
"235 477 OFFCURVE",
"292 477 CURVE SMOOTH",
"364 477 OFFCURVE",
"420 408 OFFCURVE",
"426 294 CURVE",
"382 307 OFFCURVE",
"329 316 OFFCURVE",
"294 316 CURVE SMOOTH",
"160 316 OFFCURVE",
"70 246 OFFCURVE",
"70 142 CURVE SMOOTH"
);
},
{
closed = 1;
nodes = (
"164 202 OFFCURVE",
"214 238 OFFCURVE",
"289 238 CURVE SMOOTH",
"338 238 OFFCURVE",
"394 226 OFFCURVE",
"429 208 CURVE",
"411 124 OFFCURVE",
"376 69 OFFCURVE",
"294 65 CURVE SMOOTH",
"222 62 OFFCURVE",
"164 95 OFFCURVE",
"164 148 CURVE SMOOTH"
);
}
);
width = 559;
}
);
leftKerningGroup = a;
note = a;
rightKerningGroup = a;
unicode = 0061;
},
{
glyphname = b;
lastChange = "2019-01-15 19:38:26 +0000";
layers = (
{
background = {
paths = (
{
closed = 1;
nodes = (
"159 409 OFFCURVE",
"235 469 OFFCURVE",
"316 469 CURVE SMOOTH",
"409 469 OFFCURVE",
"470 395 OFFCURVE",
"470 267 CURVE SMOOTH",
"470 139 OFFCURVE",
"409 65 OFFCURVE",
"316 65 CURVE SMOOTH",
"235 65 OFFCURVE",
"159 125 OFFCURVE",
"159 267 CURVE SMOOTH"
);
},
{
closed = 1;
nodes = (
"72 725 LINE",
"72 0 LINE",
"163 0 LINE",
"163 81 LINE",
"196 24 OFFCURVE",
"253 -13 OFFCURVE",
"339 -13 CURVE SMOOTH",
"462 -13 OFFCURVE",
"569 89 OFFCURVE",
"569 267 CURVE SMOOTH",
"569 444 OFFCURVE",
"462 547 OFFCURVE",
"339 547 CURVE SMOOTH",
"253 547 OFFCURVE",
"196 510 OFFCURVE",
"163 453 CURVE",
"163 725 LINE"
);
}
);
};
layerId = "137AEC82-B0BC-44E1-9F98-144717E162AD";
paths = (
{
closed = 1;
nodes = (
"159 409 OFFCURVE",
"235 469 OFFCURVE",
"316 469 CURVE SMOOTH",
"409 469 OFFCURVE",
"470 395 OFFCURVE",
"470 267 CURVE SMOOTH",
"470 139 OFFCURVE",
"409 65 OFFCURVE",
"316 65 CURVE SMOOTH",
"235 65 OFFCURVE",
"159 125 OFFCURVE",
"159 267 CURVE SMOOTH"
);
},
{
closed = 1;
nodes = (
"72 725 LINE",
"72 0 LINE",
"163 0 LINE",
"163 81 LINE",
"196 24 OFFCURVE",
"253 -13 OFFCURVE",
"339 -13 CURVE SMOOTH",
"462 -13 OFFCURVE",
"569 89 OFFCURVE",
"569 267 CURVE SMOOTH",
"569 444 OFFCURVE",
"462 547 OFFCURVE",
"339 547 CURVE SMOOTH",
"253 547 OFFCURVE",
"196 510 OFFCURVE",
"163 453 CURVE",
"163 725 LINE"
);
}
);
width = 601;
},
{
background = {
paths = (
{
closed = 1;
nodes = (
"159 409 OFFCURVE",
"235 469 OFFCURVE",
"316 469 CURVE SMOOTH",
"409 469 OFFCURVE",
"470 395 OFFCURVE",
"470 267 CURVE SMOOTH",
"470 139 OFFCURVE",
"409 65 OFFCURVE",
"316 65 CURVE SMOOTH",
"235 65 OFFCURVE",
"159 125 OFFCURVE",
"159 267 CURVE SMOOTH"
);
},
{
closed = 1;
nodes = (
"72 725 LINE",
"72 0 LINE",
"163 0 LINE",
"163 81 LINE",
"196 24 OFFCURVE",
"253 -13 OFFCURVE",
"339 -13 CURVE SMOOTH",
"462 -13 OFFCURVE",
"569 89 OFFCURVE",
"569 267 CURVE SMOOTH",
"569 444 OFFCURVE",
"462 547 OFFCURVE",
"339 547 CURVE SMOOTH",
"253 547 OFFCURVE",
"196 510 OFFCURVE",
"163 453 CURVE",
"163 725 LINE"
);
}
);
};
layerId = "C5488009-C580-4381-A4EE-96D70C5119DC";
paths = (
{
closed = 1;
nodes = (
"72 0 LINE",
"163 0 LINE",
"163 727 LINE",
"72 727 LINE"
);
},
{
closed = 1;
nodes = (
"476 -13 OFFCURVE",
"569 80 OFFCURVE",
"569 195 CURVE SMOOTH",
"569 310 OFFCURVE",
"476 402 OFFCURVE",
"362 402 CURVE SMOOTH",
"247 402 OFFCURVE",
"155 310 OFFCURVE",
"155 195 CURVE SMOOTH",
"155 80 OFFCURVE",
"247 -13 OFFCURVE",
"362 -13 CURVE SMOOTH"
);
}
);
width = 601;
},
{
background = {
paths = (
{
closed = 1;
nodes = (
"159 409 OFFCURVE",
"235 469 OFFCURVE",
"316 469 CURVE SMOOTH",
"409 469 OFFCURVE",
"470 395 OFFCURVE",
"470 267 CURVE SMOOTH",
"470 139 OFFCURVE",
"409 65 OFFCURVE",
"316 65 CURVE SMOOTH",
"235 65 OFFCURVE",
"159 125 OFFCURVE",
"159 267 CURVE SMOOTH"
);
},
{
closed = 1;
nodes = (
"72 725 LINE",
"72 0 LINE",
"163 0 LINE",
"163 81 LINE",
"196 24 OFFCURVE",
"253 -13 OFFCURVE",
"339 -13 CURVE SMOOTH",
"462 -13 OFFCURVE",
"569 89 OFFCURVE",
"569 267 CURVE SMOOTH",
"569 444 OFFCURVE",
"462 547 OFFCURVE",
"339 547 CURVE SMOOTH",
"253 547 OFFCURVE",
"196 510 OFFCURVE",
"163 453 CURVE",
"163 725 LINE"
);
}
);
};
layerId = "48ECFA74-86AE-4037-9A42-9B6212E42530";
paths = (
{
closed = 1;
nodes = (
"474 450 LINE",
"474 88 LINE",
"565 88 LINE",
"565 450 LINE"
);
},
{
closed = 1;
nodes = (
"163 538 LINE",
"163 450 LINE",
"474 450 LINE",
"474 538 LINE"
);
},
{
closed = 1;
nodes = (
"163 88 LINE",
"163 0 LINE",
"474 0 LINE",
"474 88 LINE"
);
},
{
closed = 1;
nodes = (
"72 725 LINE",
"72 88 LINE",
"163 88 LINE",
"163 725 LINE"
);
}
);
width = 601;
},
{
associatedMasterId = "C5488009-C580-4381-A4EE-96D70C5119DC";
background = {
paths = (
{
closed = 1;
nodes = (
"159 409 OFFCURVE",
"235 469 OFFCURVE",
"316 469 CURVE SMOOTH",
"409 469 OFFCURVE",
"470 395 OFFCURVE",
"470 267 CURVE SMOOTH",
"470 139 OFFCURVE",
"409 65 OFFCURVE",
"316 65 CURVE SMOOTH",
"235 65 OFFCURVE",
"159 125 OFFCURVE",
"159 267 CURVE SMOOTH"
);
},
{
closed = 1;
nodes = (
"72 725 LINE",
"72 0 LINE",
"163 0 LINE",
"163 81 LINE",
"196 24 OFFCURVE",
"253 -13 OFFCURVE",
"339 -13 CURVE SMOOTH",
"462 -13 OFFCURVE",
"569 89 OFFCURVE",
"569 267 CURVE SMOOTH",
"569 444 OFFCURVE",
"462 547 OFFCURVE",
"339 547 CURVE SMOOTH",
"253 547 OFFCURVE",
"196 510 OFFCURVE",
"163 453 CURVE",
"163 725 LINE"
);
}
);
};
layerId = "B0E85ACB-F895-4BA3-9D6F-A8B2FC81F167";
name = "Jan 15 19, 14:36";
paths = (
{
closed = 1;
nodes = (
"72 7 LINE",
"163 -2 LINE",
"238 718 LINE",
"148 727 LINE"
);
},
{
closed = 1;
nodes = (
"481 -17 OFFCURVE",
"568 70 OFFCURVE",
"568 178 CURVE SMOOTH",
"568 285 OFFCURVE",
"481 372 OFFCURVE",
"374 372 CURVE SMOOTH",
"267 372 OFFCURVE",
"180 285 OFFCURVE",
"180 178 CURVE SMOOTH",
"180 70 OFFCURVE",
"267 -17 OFFCURVE",
"374 -17 CURVE SMOOTH"
);
}
);
width = 601;
}
);
leftKerningGroup = b;
note = b;
rightKerningGroup = b;
unicode = 0062;
},
{
glyphname = c;
lastChange = "2018-12-20 17:19:46 +0000";
layers = (
{
background = {
paths = (
{
closed = 1;
nodes = (
"136 547 OFFCURVE",
"35 428 OFFCURVE",
"35 268 CURVE SMOOTH",
"35 104 OFFCURVE",
"132 -13 OFFCURVE",
"286 -13 CURVE SMOOTH",
"411 -13 OFFCURVE",
"508 74 OFFCURVE",
"526 175 CURVE",
"432 175 LINE",
"419 118 OFFCURVE",
"365 67 OFFCURVE",
"289 67 CURVE SMOOTH",
"209 67 OFFCURVE",
"134 132 OFFCURVE",
"134 269 CURVE SMOOTH",
"134 404 OFFCURVE",
"208 467 OFFCURVE",
"289 467 CURVE SMOOTH",
"359 467 OFFCURVE",
"415 422 OFFCURVE",
"428 358 CURVE",
"520 358 LINE",
"508 449 OFFCURVE",
"425 547 OFFCURVE",
"295 547 CURVE SMOOTH"
);
}
);
};
layerId = "137AEC82-B0BC-44E1-9F98-144717E162AD";
paths = (
{
closed = 1;
nodes = (
"136 547 OFFCURVE",
"35 428 OFFCURVE",
"35 268 CURVE SMOOTH",
"35 104 OFFCURVE",
"132 -13 OFFCURVE",
"286 -13 CURVE SMOOTH",
"411 -13 OFFCURVE",
"508 74 OFFCURVE",
"526 175 CURVE",
"432 175 LINE",
"419 118 OFFCURVE",
"365 67 OFFCURVE",
"289 67 CURVE SMOOTH",
"209 67 OFFCURVE",
"134 132 OFFCURVE",
"134 269 CURVE SMOOTH",
"134 404 OFFCURVE",
"208 467 OFFCURVE",
"289 467 CURVE SMOOTH",
"359 467 OFFCURVE",
"415 422 OFFCURVE",
"428 358 CURVE",
"520 358 LINE",
"508 449 OFFCURVE",
"425 547 OFFCURVE",
"295 547 CURVE SMOOTH"
);
}
);
width = 557;
},
{
background = {
paths = (
{
closed = 1;
nodes = (
"136 547 OFFCURVE",
"35 428 OFFCURVE",
"35 268 CURVE SMOOTH",
"35 104 OFFCURVE",
"132 -13 OFFCURVE",
"286 -13 CURVE SMOOTH",
"411 -13 OFFCURVE",
"508 74 OFFCURVE",
"526 175 CURVE",
"432 175 LINE",
"419 118 OFFCURVE",
"365 67 OFFCURVE",
"289 67 CURVE SMOOTH",
"209 67 OFFCURVE",
"134 132 OFFCURVE",
"134 269 CURVE SMOOTH",
"134 404 OFFCURVE",
"208 467 OFFCURVE",
"289 467 CURVE SMOOTH",
"359 467 OFFCURVE",
"415 422 OFFCURVE",
"428 358 CURVE",
"520 358 LINE",
"508 449 OFFCURVE",
"425 547 OFFCURVE",
"295 547 CURVE SMOOTH"
);
}
);
};
layerId = "C5488009-C580-4381-A4EE-96D70C5119DC";
paths = (
{
closed = 1;
nodes = (
"334 453 OFFCURVE",
"359 475 OFFCURVE",
"359 504 CURVE SMOOTH",
"359 532 OFFCURVE",
"334 554 OFFCURVE",
"304 554 CURVE SMOOTH",
"273 554 OFFCURVE",
"248 532 OFFCURVE",
"248 504 CURVE SMOOTH",
"248 475 OFFCURVE",
"273 453 OFFCURVE",
"304 453 CURVE SMOOTH"
);
},
{
closed = 1;
nodes = (
"123 217 OFFCURVE",
"147 239 OFFCURVE",
"147 268 CURVE SMOOTH",
"147 296 OFFCURVE",
"123 318 OFFCURVE",
"93 318 CURVE SMOOTH",
"61 318 OFFCURVE",
"37 296 OFFCURVE",
"37 268 CURVE SMOOTH",
"37 239 OFFCURVE",
"61 217 OFFCURVE",
"93 217 CURVE SMOOTH"
);
},
{
closed = 1;
nodes = (
"334 -19 OFFCURVE",
"359 3 OFFCURVE",
"359 32 CURVE SMOOTH",
"359 60 OFFCURVE",
"334 82 OFFCURVE",
"304 82 CURVE SMOOTH",
"273 82 OFFCURVE",
"248 60 OFFCURVE",
"248 32 CURVE SMOOTH",
"248 3 OFFCURVE",
"273 -19 OFFCURVE",
"304 -19 CURVE SMOOTH"
);
},
{
closed = 1;
nodes = (
"245 0 OFFCURVE",
"270 22 OFFCURVE",
"270 51 CURVE SMOOTH",
"270 79 OFFCURVE",
"245 101 OFFCURVE",
"216 101 CURVE SMOOTH",
"184 101 OFFCURVE",
"160 79 OFFCURVE",
"160 51 CURVE SMOOTH",
"160 22 OFFCURVE",
"184 0 OFFCURVE",
"216 0 CURVE SMOOTH"
);
},
{
closed = 1;
nodes = (
"174 53 OFFCURVE",
"199 75 OFFCURVE",
"199 104 CURVE SMOOTH",
"199 132 OFFCURVE",
"174 154 OFFCURVE",
"145 154 CURVE SMOOTH",
"113 154 OFFCURVE",
"89 132 OFFCURVE",
"89 104 CURVE SMOOTH",
"89 75 OFFCURVE",
"113 53 OFFCURVE",
"145 53 CURVE SMOOTH"
);
},
{
closed = 1;
nodes = (
"133 131 OFFCURVE",
"158 153 OFFCURVE",
"158 182 CURVE SMOOTH",
"158 210 OFFCURVE",
"133 232 OFFCURVE",
"103 232 CURVE SMOOTH",
"71 232 OFFCURVE",
"47 210 OFFCURVE",
"47 182 CURVE SMOOTH",
"47 153 OFFCURVE",
"71 131 OFFCURVE",
"103 131 CURVE SMOOTH"
);
},
{
closed = 1;
nodes = (
"184 532 OFFCURVE",
"160 510 OFFCURVE",
"160 481 CURVE SMOOTH",
"160 453 OFFCURVE",
"184 431 OFFCURVE",
"216 431 CURVE SMOOTH",
"245 431 OFFCURVE",
"270 453 OFFCURVE",
"270 481 CURVE SMOOTH",
"270 510 OFFCURVE",
"245 532 OFFCURVE",
"216 532 CURVE SMOOTH"
);
},
{
closed = 1;
nodes = (
"113 479 OFFCURVE",
"89 457 OFFCURVE",
"89 428 CURVE SMOOTH",
"89 400 OFFCURVE",
"113 378 OFFCURVE",
"145 378 CURVE SMOOTH",
"174 378 OFFCURVE",
"199 400 OFFCURVE",
"199 428 CURVE SMOOTH",
"199 457 OFFCURVE",
"174 479 OFFCURVE",
"145 479 CURVE SMOOTH"
);
},
{
closed = 1;
nodes = (
"71 401 OFFCURVE",
"47 379 OFFCURVE",
"47 350 CURVE SMOOTH",
"47 322 OFFCURVE",
"71 300 OFFCURVE",
"103 300 CURVE SMOOTH",
"133 300 OFFCURVE",
"158 322 OFFCURVE",
"158 350 CURVE SMOOTH",
"158 379 OFFCURVE",
"133 401 OFFCURVE",
"103 401 CURVE SMOOTH"
);
},
{
closed = 1;
nodes = (
"425 0 OFFCURVE",
"449 22 OFFCURVE",
"449 51 CURVE SMOOTH",
"449 79 OFFCURVE",
"425 101 OFFCURVE",
"393 101 CURVE SMOOTH",
"363 101 OFFCURVE",
"338 79 OFFCURVE",
"338 51 CURVE SMOOTH",
"338 22 OFFCURVE",
"363 0 OFFCURVE",
"393 0 CURVE SMOOTH"
);
},
{
closed = 1;
nodes = (
"496 53 OFFCURVE",
"520 75 OFFCURVE",
"520 104 CURVE SMOOTH",
"520 132 OFFCURVE",
"496 154 OFFCURVE",
"464 154 CURVE SMOOTH",
"434 154 OFFCURVE",
"409 132 OFFCURVE",
"409 104 CURVE SMOOTH",
"409 75 OFFCURVE",
"434 53 OFFCURVE",
"464 53 CURVE SMOOTH"
);
},
{
closed = 1;
nodes = (
"363 532 OFFCURVE",
"338 510 OFFCURVE",
"338 481 CURVE SMOOTH",
"338 453 OFFCURVE",
"363 431 OFFCURVE",
"393 431 CURVE SMOOTH",
"425 431 OFFCURVE",
"449 453 OFFCURVE",
"449 481 CURVE SMOOTH",
"449 510 OFFCURVE",
"425 532 OFFCURVE",
"393 532 CURVE SMOOTH"
);
},
{
closed = 1;
nodes = (
"434 479 OFFCURVE",
"409 457 OFFCURVE",
"409 428 CURVE SMOOTH",
"409 400 OFFCURVE",
"434 378 OFFCURVE",
"464 378 CURVE SMOOTH",
"496 378 OFFCURVE",
"520 400 OFFCURVE",
"520 428 CURVE SMOOTH",
"520 457 OFFCURVE",
"496 479 OFFCURVE",
"464 479 CURVE SMOOTH"
);
}
);
width = 557;
},
{
background = {
paths = (
{
closed = 1;
nodes = (
"136 547 OFFCURVE",
"35 428 OFFCURVE",
"35 268 CURVE SMOOTH",
"35 104 OFFCURVE",
"132 -13 OFFCURVE",
"286 -13 CURVE SMOOTH",
"411 -13 OFFCURVE",
"508 74 OFFCURVE",
"526 175 CURVE",
"432 175 LINE",
"419 118 OFFCURVE",
"365 67 OFFCURVE",
"289 67 CURVE SMOOTH",
"209 67 OFFCURVE",
"134 132 OFFCURVE",
"134 269 CURVE SMOOTH",
"134 404 OFFCURVE",
"208 467 OFFCURVE",
"289 467 CURVE SMOOTH",
"359 467 OFFCURVE",
"415 422 OFFCURVE",
"428 358 CURVE",
"520 358 LINE",
"508 449 OFFCURVE",
"425 547 OFFCURVE",
"295 547 CURVE SMOOTH"
);
}
);
};
layerId = "48ECFA74-86AE-4037-9A42-9B6212E42530";
paths = (
{
closed = 1;
nodes = (
"40 88 LINE",
"131 88 LINE",
"131 450 LINE",
"40 450 LINE"
);
},
{
closed = 1;
nodes = (
"131 450 LINE",
"426 450 LINE",
"426 538 LINE",
"131 538 LINE"
);
},
{
closed = 1;
nodes = (
"131 0 LINE",
"426 0 LINE",
"426 88 LINE",
"131 88 LINE"
);
},
{
closed = 1;
nodes = (
"426 362 LINE",
"517 362 LINE",
"517 450 LINE",
"426 450 LINE"
);
},
{
closed = 1;
nodes = (
"426 88 LINE",
"517 88 LINE",
"517 176 LINE",
"426 176 LINE"
);
}
);
width = 557;
}
);
leftKerningGroup = c;
note = c;
rightKerningGroup = c;
unicode = 0063;
},
{
glyphname = d;
lastChange = "2018-12-20 17:01:08 +0000";
layers = (
{
background = {
paths = (
{
closed = 1;
nodes = (
"441 453 LINE",
"408 510 OFFCURVE",
"351 547 OFFCURVE",
"265 547 CURVE SMOOTH",
"142 547 OFFCURVE",
"35 444 OFFCURVE",
"35 267 CURVE SMOOTH",
"35 89 OFFCURVE",
"142 -13 OFFCURVE",
"265 -13 CURVE SMOOTH",
"351 -13 OFFCURVE",
"408 24 OFFCURVE",
"441 81 CURVE",
"441 0 LINE",
"532 0 LINE",
"532 725 LINE",
"441 725 LINE"
);
},
{
closed = 1;
nodes = (
"445 125 OFFCURVE",
"369 65 OFFCURVE",
"288 65 CURVE SMOOTH",
"195 65 OFFCURVE",
"134 139 OFFCURVE",
"134 267 CURVE SMOOTH",
"134 395 OFFCURVE",
"195 469 OFFCURVE",
"288 469 CURVE SMOOTH",
"369 469 OFFCURVE",
"445 409 OFFCURVE",
"445 267 CURVE SMOOTH"
);
}
);
};
layerId = "137AEC82-B0BC-44E1-9F98-144717E162AD";
paths = (
{
closed = 1;
nodes = (
"441 453 LINE",
"408 510 OFFCURVE",
"351 547 OFFCURVE",
"265 547 CURVE SMOOTH",
"142 547 OFFCURVE",
"35 444 OFFCURVE",
"35 267 CURVE SMOOTH",
"35 89 OFFCURVE",
"142 -13 OFFCURVE",
"265 -13 CURVE SMOOTH",
"351 -13 OFFCURVE",
"408 24 OFFCURVE",
"441 81 CURVE",
"441 0 LINE",
"532 0 LINE",
"532 725 LINE",
"441 725 LINE"
);
},
{
closed = 1;
nodes = (
"445 125 OFFCURVE",
"369 65 OFFCURVE",
"288 65 CURVE SMOOTH",
"195 65 OFFCURVE",
"134 139 OFFCURVE",
"134 267 CURVE SMOOTH",
"134 395 OFFCURVE",
"195 469 OFFCURVE",
"288 469 CURVE SMOOTH",
"369 469 OFFCURVE",
"445 409 OFFCURVE",
"445 267 CURVE SMOOTH"
);
}
);
width = 604;
},
{
background = {
paths = (
{
closed = 1;
nodes = (
"441 453 LINE",
"408 510 OFFCURVE",
"351 547 OFFCURVE",
"265 547 CURVE SMOOTH",
"142 547 OFFCURVE",
"35 444 OFFCURVE",
"35 267 CURVE SMOOTH",
"35 89 OFFCURVE",
"142 -13 OFFCURVE",
"265 -13 CURVE SMOOTH",
"351 -13 OFFCURVE",
"408 24 OFFCURVE",
"441 81 CURVE",
"441 0 LINE",
"532 0 LINE",
"532 725 LINE",
"441 725 LINE"
);
},
{
closed = 1;
nodes = (
"445 125 OFFCURVE",
"369 65 OFFCURVE",
"288 65 CURVE SMOOTH",
"195 65 OFFCURVE",
"134 139 OFFCURVE",
"134 267 CURVE SMOOTH",
"134 395 OFFCURVE",
"195 469 OFFCURVE",
"288 469 CURVE SMOOTH",
"369 469 OFFCURVE",
"445 409 OFFCURVE",
"445 267 CURVE SMOOTH"
);
}
);
};
layerId = "C5488009-C580-4381-A4EE-96D70C5119DC";
paths = (
{
closed = 1;
nodes = (
"35 116 OFFCURVE",
"141 -10 OFFCURVE",
"298 -10 CURVE SMOOTH",
"454 -10 OFFCURVE",
"560 116 OFFCURVE",
"560 273 CURVE SMOOTH",
"560 725 LINE",
"465 725 LINE",
"465 494.533 LINE",
"421.128 532.416 OFFCURVE",
"364.045 555 OFFCURVE",
"298 555 CURVE SMOOTH",
"141 555 OFFCURVE",
"35 429 OFFCURVE",
"35 273 CURVE SMOOTH"
);
},
{
closed = 1;
nodes = (
"128 387 OFFCURVE",
"199 467 OFFCURVE",
"298 467 CURVE SMOOTH",
"396 467 OFFCURVE",
"467 387 OFFCURVE",
"467 273 CURVE SMOOTH",
"467 159 OFFCURVE",
"396 78 OFFCURVE",
"298 78 CURVE SMOOTH",
"199 78 OFFCURVE",
"128 158 OFFCURVE",
"128 273 CURVE SMOOTH"
);
}
);
width = 604;
},
{
background = {
paths = (
{
closed = 1;
nodes = (
"441 453 LINE",
"408 510 OFFCURVE",
"351 547 OFFCURVE",
"265 547 CURVE SMOOTH",
"142 547 OFFCURVE",
"35 444 OFFCURVE",
"35 267 CURVE SMOOTH",
"35 89 OFFCURVE",
"142 -13 OFFCURVE",
"265 -13 CURVE SMOOTH",
"351 -13 OFFCURVE",
"408 24 OFFCURVE",
"441 81 CURVE",
"441 0 LINE",
"532 0 LINE",
"532 725 LINE",
"441 725 LINE"
);
},
{
closed = 1;
nodes = (
"445 125 OFFCURVE",
"369 65 OFFCURVE",
"288 65 CURVE SMOOTH",
"195 65 OFFCURVE",
"134 139 OFFCURVE",
"134 267 CURVE SMOOTH",
"134 395 OFFCURVE",
"195 469 OFFCURVE",
"288 469 CURVE SMOOTH",
"369 469 OFFCURVE",
"445 409 OFFCURVE",
"445 267 CURVE SMOOTH"
);
}
);
};
layerId = "48ECFA74-86AE-4037-9A42-9B6212E42530";
paths = (
{
closed = 1;
nodes = (
"39 88 LINE",
"130 88 LINE",
"130 450 LINE",
"39 450 LINE"
);
},
{
closed = 1;
nodes = (
"130 450 LINE",
"441 450 LINE",
"441 538 LINE",
"130 538 LINE"
);
},
{
closed = 1;
nodes = (
"130 0 LINE",
"441 0 LINE",
"441 88 LINE",
"130 88 LINE"
);
},
{
closed = 1;
nodes = (
"441 0 LINE",
"532 0 LINE",
"532 725 LINE",
"441 725 LINE"
);
}
);
width = 604;
}
);
leftKerningGroup = c;
note = d;
unicode = 0064;
},
{
glyphname = e;
lastChange = "2018-12-18 18:21:57 +0000";
layers = (
{
background = {
paths = (
{
closed = 1;
nodes = (
"547 239 LINE",
"559 409 OFFCURVE",
"460 547 OFFCURVE",
"296 547 CURVE SMOOTH",
"149 547 OFFCURVE",
"35 438 OFFCURVE",
"35 268 CURVE SMOOTH",
"35 109 OFFCURVE",
"129 -13 OFFCURVE",
"299 -13 CURVE SMOOTH",
"430 -13 OFFCURVE",
"515 63 OFFCURVE",
"540 156 CURVE",
"446 156 LINE",
"423 103 OFFCURVE",
"379 67 OFFCURVE",
"299 67 CURVE SMOOTH",
"219 67 OFFCURVE",
"137 123 OFFCURVE",
"133 239 CURVE"
);
},
{
closed = 1;
nodes = (
"392 469 OFFCURVE",
"449 393 OFFCURVE",
"451 317 CURVE",
"134 317 LINE",
"142 425 OFFCURVE",
"215 469 OFFCURVE",
"296 469 CURVE SMOOTH"
);
}
);
};
layerId = "137AEC82-B0BC-44E1-9F98-144717E162AD";
paths = (
{
closed = 1;
nodes = (
"547 239 LINE",
"559 409 OFFCURVE",
"460 547 OFFCURVE",
"296 547 CURVE SMOOTH",
"149 547 OFFCURVE",
"35 438 OFFCURVE",
"35 268 CURVE SMOOTH",
"35 109 OFFCURVE",
"129 -13 OFFCURVE",
"299 -13 CURVE SMOOTH",
"430 -13 OFFCURVE",
"515 63 OFFCURVE",
"540 156 CURVE",
"446 156 LINE",
"423 103 OFFCURVE",
"379 67 OFFCURVE",
"299 67 CURVE SMOOTH",
"219 67 OFFCURVE",
"137 123 OFFCURVE",
"133 239 CURVE"
);
},
{
closed = 1;
nodes = (
"392 469 OFFCURVE",
"449 393 OFFCURVE",
"451 317 CURVE",
"134 317 LINE",
"142 425 OFFCURVE",
"215 469 OFFCURVE",
"296 469 CURVE SMOOTH"
);
}
);
width = 581;
},
{
background = {
paths = (
{
closed = 1;
nodes = (
"547 239 LINE",
"559 409 OFFCURVE",
"460 547 OFFCURVE",
"296 547 CURVE SMOOTH",
"149 547 OFFCURVE",
"35 438 OFFCURVE",
"35 268 CURVE SMOOTH",
"35 109 OFFCURVE",
"129 -13 OFFCURVE",
"299 -13 CURVE SMOOTH",
"430 -13 OFFCURVE",
"515 63 OFFCURVE",
"540 156 CURVE",
"446 156 LINE",
"423 103 OFFCURVE",
"379 67 OFFCURVE",
"299 67 CURVE SMOOTH",
"219 67 OFFCURVE",
"137 123 OFFCURVE",
"133 239 CURVE"
);
},
{
closed = 1;
nodes = (
"392 469 OFFCURVE",
"449 393 OFFCURVE",
"451 317 CURVE",
"134 317 LINE",
"142 425 OFFCURVE",
"215 469 OFFCURVE",
"296 469 CURVE SMOOTH"
);
}
);
};
layerId = "C5488009-C580-4381-A4EE-96D70C5119DC";
paths = (
{
closed = 1;
nodes = (
"547 239 LINE",
"559 409 OFFCURVE",
"460 547 OFFCURVE",
"296 547 CURVE SMOOTH",
"149 547 OFFCURVE",
"35 438 OFFCURVE",
"35 268 CURVE SMOOTH",
"35 109 OFFCURVE",
"129 -13 OFFCURVE",
"299 -13 CURVE SMOOTH",
"430 -13 OFFCURVE",
"515 63 OFFCURVE",
"540 156 CURVE",
"446 156 LINE",
"423 103 OFFCURVE",
"379 67 OFFCURVE",
"299 67 CURVE SMOOTH",
"219 67 OFFCURVE",
"137 123 OFFCURVE",
"133 239 CURVE"
);
},
{
closed = 1;
nodes = (
"392 469 OFFCURVE",
"449 393 OFFCURVE",
"451 317 CURVE",
"134 317 LINE",
"142 425 OFFCURVE",
"215 469 OFFCURVE",
"296 469 CURVE SMOOTH"
);
}
);
width = 581;
},
{
background = {
paths = (
{
closed = 1;
nodes = (
"547 239 LINE",
"559 409 OFFCURVE",
"460 547 OFFCURVE",
"296 547 CURVE SMOOTH",
"149 547 OFFCURVE",
"35 438 OFFCURVE",
"35 268 CURVE SMOOTH",
"35 109 OFFCURVE",
"129 -13 OFFCURVE",
"299 -13 CURVE SMOOTH",
"430 -13 OFFCURVE",
"515 63 OFFCURVE",
"540 156 CURVE",
"446 156 LINE",
"423 103 OFFCURVE",
"379 67 OFFCURVE",
"299 67 CURVE SMOOTH",
"219 67 OFFCURVE",
"137 123 OFFCURVE",
"133 239 CURVE"
);
},
{
closed = 1;
nodes = (
"392 469 OFFCURVE",
"449 393 OFFCURVE",
"451 317 CURVE",
"134 317 LINE",
"142 425 OFFCURVE",
"215 469 OFFCURVE",
"296 469 CURVE SMOOTH"
);
}
);
};
layerId = "48ECFA74-86AE-4037-9A42-9B6212E42530";
paths = (
{
closed = 1;
nodes = (
"39 88 LINE",
"130 88 LINE",
"130 450 LINE",
"39 450 LINE"
);
},
{
closed = 1;
nodes = (
"130 450 LINE",
"452 450 LINE",
"452 538 LINE",
"130 538 LINE"
);
},
{
closed = 1;
nodes = (
"130 0 LINE",
"445 0 LINE",
"445 88 LINE",
"130 88 LINE"
);
},
{
closed = 1;
nodes = (
"452 274 LINE",
"543 274 LINE",
"543 450 LINE",
"452 450 LINE"
);
},
{
closed = 1;
nodes = (
"445 88 LINE",
"536 88 LINE",
"536 176 LINE",
"445 176 LINE"
);
},
{
closed = 1;
nodes = (
"130 239 LINE",
"452 239 LINE",
"452 318 LINE",
"130 318 LINE"
);
}
);
width = 581;
}
);
leftKerningGroup = c;
note = e;
rightKerningGroup = e;
unicode = 0065;
},
{
glyphname = f;
lastChange = "2018-12-18 18:22:09 +0000";
layers = (
{
background = {
paths = (
{
closed = 1;
nodes = (
"95 538 LINE",
"20 538 LINE",
"20 465 LINE",
"95 465 LINE",
"95 0 LINE",
"186 0 LINE",
"186 465 LINE",
"287 465 LINE",
"287 538 LINE",
"186 538 LINE",
"186 582 LINE SMOOTH",
"186 638 OFFCURVE",
"194 649 OFFCURVE",
"242 649 CURVE SMOOTH",
"287 649 LINE",
"287 725 LINE",
"240 725 LINE SMOOTH",
"118 725 OFFCURVE",
"95 689 OFFCURVE",
"95 577 CURVE SMOOTH"
);
}
);
};
layerId = "137AEC82-B0BC-44E1-9F98-144717E162AD";
paths = (
{
closed = 1;
nodes = (
"95 538 LINE",
"20 538 LINE",
"20 465 LINE",
"95 465 LINE",
"95 0 LINE",
"186 0 LINE",
"186 465 LINE",
"287 465 LINE",
"287 538 LINE",
"186 538 LINE",
"186 582 LINE SMOOTH",
"186 638 OFFCURVE",
"194 649 OFFCURVE",
"242 649 CURVE SMOOTH",
"287 649 LINE",
"287 725 LINE",
"240 725 LINE SMOOTH",
"118 725 OFFCURVE",
"95 689 OFFCURVE",
"95 577 CURVE SMOOTH"
);
}
);
width = 313;
},
{
background = {
paths = (
{
closed = 1;
nodes = (
"95 538 LINE",
"20 538 LINE",
"20 465 LINE",
"95 465 LINE",
"95 0 LINE",
"186 0 LINE",
"186 465 LINE",
"287 465 LINE",
"287 538 LINE",
"186 538 LINE",
"186 582 LINE SMOOTH",
"186 638 OFFCURVE",
"194 649 OFFCURVE",
"242 649 CURVE SMOOTH",
"287 649 LINE",
"287 725 LINE",
"240 725 LINE SMOOTH",
"118 725 OFFCURVE",
"95 689 OFFCURVE",
"95 577 CURVE SMOOTH"
);
}
);
};
layerId = "C5488009-C580-4381-A4EE-96D70C5119DC";
paths = (
{
closed = 1;
nodes = (
"95 538 LINE",
"20 538 LINE",
"20 465 LINE",
"95 465 LINE",
"95 0 LINE",
"186 0 LINE",
"186 465 LINE",
"287 465 LINE",
"287 538 LINE",
"186 538 LINE",
"186 582 LINE SMOOTH",
"186 638 OFFCURVE",
"194 649 OFFCURVE",
"242 649 CURVE SMOOTH",
"287 649 LINE",
"287 725 LINE",
"240 725 LINE SMOOTH",
"118 725 OFFCURVE",
"95 689 OFFCURVE",
"95 577 CURVE SMOOTH"
);
}
);
width = 313;
},
{
background = {
paths = (
{
closed = 1;
nodes = (
"95 538 LINE",
"20 538 LINE",
"20 465 LINE",
"95 465 LINE",
"95 0 LINE",
"186 0 LINE",
"186 465 LINE",
"287 465 LINE",
"287 538 LINE",
"186 538 LINE",
"186 582 LINE SMOOTH",
"186 638 OFFCURVE",
"194 649 OFFCURVE",
"242 649 CURVE SMOOTH",
"287 649 LINE",
"287 725 LINE",
"240 725 LINE SMOOTH",
"118 725 OFFCURVE",
"95 689 OFFCURVE",
"95 577 CURVE SMOOTH"
);
}
);
};
layerId = "48ECFA74-86AE-4037-9A42-9B6212E42530";
paths = (
{
closed = 1;
nodes = (
"96 0 LINE",
"187 0 LINE",
"187 649 LINE",
"96 649 LINE"
);
},
{
closed = 1;
nodes = (
"96 649 LINE",
"287 649 LINE",
"287 725 LINE",
"96 725 LINE"
);
},
{
closed = 1;
nodes = (
"20 465 LINE",
"287 465 LINE",
"287 539 LINE",
"20 539 LINE"
);
}
);
width = 313;
}
);
leftKerningGroup = f;
note = f;
rightKerningGroup = f;
unicode = 0066;
},
{
glyphname = g;
lastChange = "2018-12-19 19:39:10 +0000";
layers = (
{
background = {
paths = (
{
closed = 1;
nodes = (
"434 453 LINE",
"401 510 OFFCURVE",
"349 547 OFFCURVE",
"263 547 CURVE SMOOTH",
"144 547 OFFCURVE",
"35 450 OFFCURVE",
"35 278 CURVE SMOOTH",
"35 105 OFFCURVE",
"144 9 OFFCURVE",
"263 9 CURVE SMOOTH",
"349 9 OFFCURVE",
"401 45 OFFCURVE",
"434 102 CURVE",
"434 51 LINE SMOOTH",
"434 -22 OFFCURVE",
"419 -47 OFFCURVE",
"399 -68 CURVE SMOOTH",
"375 -94 OFFCURVE",
"338 -108 OFFCURVE",
"289 -108 CURVE SMOOTH",
"205 -108 OFFCURVE",
"176 -71 OFFCURVE",
"164 -23 CURVE",
"67 -23 LINE",
"84 -132 OFFCURVE",
"166 -188 OFFCURVE",
"288 -188 CURVE SMOOTH",
"368 -188 OFFCURVE",
"435 -162 OFFCURVE",
"474 -117 CURVE SMOOTH",
"505 -83 OFFCURVE",
"525 -38 OFFCURVE",
"525 72 CURVE SMOOTH",
"525 538 LINE",
"434 538 LINE"
);
},
{
closed = 1;
nodes = (
"438 141 OFFCURVE",
"367 86 OFFCURVE",
"286 86 CURVE SMOOTH",
"197 86 OFFCURVE",
"134 155 OFFCURVE",
"134 278 CURVE SMOOTH",
"134 400 OFFCURVE",
"197 469 OFFCURVE",
"286 469 CURVE SMOOTH",
"367 469 OFFCURVE",
"438 414 OFFCURVE",
"438 278 CURVE SMOOTH"
);
}
);
};
layerId = "137AEC82-B0BC-44E1-9F98-144717E162AD";
paths = (
{
closed = 1;
nodes = (
"434 453 LINE",
"401 510 OFFCURVE",
"349 547 OFFCURVE",
"263 547 CURVE SMOOTH",
"144 547 OFFCURVE",
"35 450 OFFCURVE",
"35 278 CURVE SMOOTH",
"35 105 OFFCURVE",
"144 9 OFFCURVE",
"263 9 CURVE SMOOTH",
"349 9 OFFCURVE",
"401 45 OFFCURVE",
"434 102 CURVE",
"434 51 LINE SMOOTH",
"434 -22 OFFCURVE",
"419 -47 OFFCURVE",
"399 -68 CURVE SMOOTH",
"375 -94 OFFCURVE",
"338 -108 OFFCURVE",
"289 -108 CURVE SMOOTH",
"205 -108 OFFCURVE",
"176 -71 OFFCURVE",
"164 -23 CURVE",
"67 -23 LINE",
"84 -132 OFFCURVE",
"166 -188 OFFCURVE",
"288 -188 CURVE SMOOTH",
"368 -188 OFFCURVE",
"435 -162 OFFCURVE",
"474 -117 CURVE SMOOTH",
"505 -83 OFFCURVE",
"525 -38 OFFCURVE",
"525 72 CURVE SMOOTH",
"525 538 LINE",
"434 538 LINE"
);
},
{
closed = 1;
nodes = (
"438 141 OFFCURVE",
"367 86 OFFCURVE",
"286 86 CURVE SMOOTH",
"197 86 OFFCURVE",
"134 155 OFFCURVE",
"134 278 CURVE SMOOTH",
"134 400 OFFCURVE",
"197 469 OFFCURVE",
"286 469 CURVE SMOOTH",
"367 469 OFFCURVE",
"438 414 OFFCURVE",
"438 278 CURVE SMOOTH"
);
}
);
width = 597;
},
{
background = {
paths = (
{
closed = 1;
nodes = (
"434 453 LINE",
"401 510 OFFCURVE",
"349 547 OFFCURVE",
"263 547 CURVE SMOOTH",
"144 547 OFFCURVE",
"35 450 OFFCURVE",
"35 278 CURVE SMOOTH",
"35 105 OFFCURVE",
"144 9 OFFCURVE",
"263 9 CURVE SMOOTH",
"349 9 OFFCURVE",
"401 45 OFFCURVE",
"434 102 CURVE",
"434 51 LINE SMOOTH",
"434 -22 OFFCURVE",
"419 -47 OFFCURVE",
"399 -68 CURVE SMOOTH",
"375 -94 OFFCURVE",
"338 -108 OFFCURVE",
"289 -108 CURVE SMOOTH",
"205 -108 OFFCURVE",
"176 -71 OFFCURVE",
"164 -23 CURVE",
"67 -23 LINE",
"84 -132 OFFCURVE",
"166 -188 OFFCURVE",
"288 -188 CURVE SMOOTH",
"368 -188 OFFCURVE",
"435 -162 OFFCURVE",
"474 -117 CURVE SMOOTH",
"505 -83 OFFCURVE",
"525 -38 OFFCURVE",
"525 72 CURVE SMOOTH",
"525 538 LINE",
"434 538 LINE"
);
},
{
closed = 1;
nodes = (
"438 141 OFFCURVE",
"367 86 OFFCURVE",
"286 86 CURVE SMOOTH",
"197 86 OFFCURVE",
"134 155 OFFCURVE",
"134 278 CURVE SMOOTH",
"134 400 OFFCURVE",
"197 469 OFFCURVE",
"286 469 CURVE SMOOTH",
"367 469 OFFCURVE",
"438 414 OFFCURVE",
"438 278 CURVE SMOOTH"
);
}
);
};
layerId = "C5488009-C580-4381-A4EE-96D70C5119DC";
paths = (
{
closed = 1;
nodes = (
"199 235 OFFCURVE",
"149 287 OFFCURVE",
"149 356 CURVE SMOOTH",
"149 425 OFFCURVE",
"200 479 OFFCURVE",
"265 479 CURVE SMOOTH",
"331 479 OFFCURVE",
"383 425 OFFCURVE",
"383 356 CURVE SMOOTH",
"383 288 OFFCURVE",
"331 235 OFFCURVE",
"265 235 CURVE SMOOTH"
);
},
{
closed = 1;
nodes = (
"377 160 OFFCURVE",
"468 247 OFFCURVE",
"468 356 CURVE SMOOTH",
"468 465 OFFCURVE",
"377 554 OFFCURVE",
"265 554 CURVE SMOOTH",
"153 554 OFFCURVE",
"64 466 OFFCURVE",
"64 356 CURVE SMOOTH",
"64 247 OFFCURVE",
"153 160 OFFCURVE",
"265 160 CURVE SMOOTH"
);
},
{
closed = 1;
nodes = (
"367 469 LINE",
"549 452 LINE",
"549 538 LINE",
"320 538 LINE"
);
},
{
closed = 1;
nodes = (
"114 274 LINE",
"79 238 OFFCURVE",
"61 194 OFFCURVE",
"61 151 CURVE SMOOTH",
"61 72 OFFCURVE",
"124 0 OFFCURVE",
"257 0 CURVE SMOOTH",
"390 0 OFFCURVE",
"417 83 OFFCURVE",
"457 74 CURVE SMOOTH",
"476 70 OFFCURVE",
"484 57 OFFCURVE",
"484 39 CURVE SMOOTH",
"484 -26 OFFCURVE",
"407 -109 OFFCURVE",
"269 -109 CURVE SMOOTH",
"180 -109 OFFCURVE",
"124 -74 OFFCURVE",
"124 -16 CURVE SMOOTH",
"124 8 OFFCURVE",
"142 39 OFFCURVE",
"190 55 CURVE",
"127 71 LINE",
"69 60 OFFCURVE",
"50 7 OFFCURVE",
"50 -28 CURVE SMOOTH",
"50 -138 OFFCURVE",
"166 -188 OFFCURVE",
"277 -188 CURVE SMOOTH",
"471 -188 OFFCURVE",
"566 -66 OFFCURVE",
"566 34 CURVE SMOOTH",
"566 89 OFFCURVE",
"537 136 OFFCURVE",
"480 151 CURVE SMOOTH",
"471 153 OFFCURVE",
"463 154 OFFCURVE",
"456 154 CURVE SMOOTH",
"390 154 OFFCURVE",
"373 76 OFFCURVE",
"256 76 CURVE SMOOTH",
"175 76 OFFCURVE",
"135 117 OFFCURVE",
"135 163 CURVE SMOOTH",
"135 187 OFFCURVE",
"149 213 OFFCURVE",
"179 234 CURVE"
);
}
);
width = 597;
},
{
background = {
paths = (
{
closed = 1;
nodes = (
"434 453 LINE",
"401 510 OFFCURVE",
"349 547 OFFCURVE",
"263 547 CURVE SMOOTH",
"144 547 OFFCURVE",
"35 450 OFFCURVE",
"35 278 CURVE SMOOTH",
"35 105 OFFCURVE",
"144 9 OFFCURVE",
"263 9 CURVE SMOOTH",
"349 9 OFFCURVE",
"401 45 OFFCURVE",
"434 102 CURVE",
"434 51 LINE SMOOTH",
"434 -22 OFFCURVE",
"419 -47 OFFCURVE",
"399 -68 CURVE SMOOTH",
"375 -94 OFFCURVE",
"338 -108 OFFCURVE",
"289 -108 CURVE SMOOTH",
"205 -108 OFFCURVE",
"176 -71 OFFCURVE",
"164 -23 CURVE",
"67 -23 LINE",
"84 -132 OFFCURVE",
"166 -188 OFFCURVE",
"288 -188 CURVE SMOOTH",
"368 -188 OFFCURVE",
"435 -162 OFFCURVE",
"474 -117 CURVE SMOOTH",
"505 -83 OFFCURVE",
"525 -38 OFFCURVE",
"525 72 CURVE SMOOTH",
"525 538 LINE",
"434 538 LINE"
);
},
{
closed = 1;
nodes = (
"438 141 OFFCURVE",
"367 86 OFFCURVE",
"286 86 CURVE SMOOTH",
"197 86 OFFCURVE",
"134 155 OFFCURVE",
"134 278 CURVE SMOOTH",
"134 400 OFFCURVE",
"197 469 OFFCURVE",
"286 469 CURVE SMOOTH",
"367 469 OFFCURVE",
"438 414 OFFCURVE",
"438 278 CURVE SMOOTH"
);
}
);
};
layerId = "48ECFA74-86AE-4037-9A42-9B6212E42530";
paths = (
{
closed = 1;
nodes = (
"40 88 LINE",
"131 88 LINE",
"131 450 LINE",
"40 450 LINE"
);
},
{
closed = 1;
nodes = (
"131 450 LINE",
"435 450 LINE",
"435 538 LINE",
"131 538 LINE"
);
},
{
closed = 1;
nodes = (
"131 0 LINE",
"435 0 LINE",
"435 88 LINE",
"131 88 LINE"
);
},
{
closed = 1;
nodes = (
"435 -100 LINE",
"526 -100 LINE",
"526 450 LINE",
"435 450 LINE"
);
},
{
closed = 1;
nodes = (
"87 -188 LINE",
"435 -188 LINE",
"435 -100 LINE",
"87 -100 LINE"
);
}
);
width = 597;
}
);
leftKerningGroup = c;
note = g;
rightKerningGroup = g;
unicode = 0067;
},
{
glyphname = h;
lastChange = "2018-12-21 18:30:29 +0000";
layers = (
{
background = {
paths = (
{
closed = 1;
nodes = (
"163 725 LINE",
"72 725 LINE",
"72 0 LINE",
"163 0 LINE",
"163 292 LINE SMOOTH",
"163 407 OFFCURVE",
"217 468 OFFCURVE",
"305 468 CURVE SMOOTH",
"409 468 OFFCURVE",
"423 396 OFFCURVE",
"423 313 CURVE SMOOTH",
"423 0 LINE",
"514 0 LINE",
"514 340 LINE SMOOTH",
"514 463 OFFCURVE",
"467 547 OFFCURVE",
"337 547 CURVE SMOOTH",
"246 547 OFFCURVE",
"194 508 OFFCURVE",
"163 457 CURVE"
);
}
);
};
layerId = "137AEC82-B0BC-44E1-9F98-144717E162AD";
paths = (
{
closed = 1;
nodes = (
"163 725 LINE",
"72 725 LINE",
"72 0 LINE",
"163 0 LINE",
"163 292 LINE SMOOTH",
"163 407 OFFCURVE",
"217 468 OFFCURVE",
"305 468 CURVE SMOOTH",
"409 468 OFFCURVE",
"423 396 OFFCURVE",
"423 313 CURVE SMOOTH",
"423 0 LINE",
"514 0 LINE",
"514 340 LINE SMOOTH",
"514 463 OFFCURVE",
"467 547 OFFCURVE",
"337 547 CURVE SMOOTH",
"246 547 OFFCURVE",
"194 508 OFFCURVE",
"163 457 CURVE"
);
}
);
width = 578;
},
{
background = {
paths = (
{
closed = 1;
nodes = (
"163 725 LINE",
"72 725 LINE",
"72 0 LINE",
"163 0 LINE",
"163 292 LINE SMOOTH",
"163 407 OFFCURVE",
"217 468 OFFCURVE",
"305 468 CURVE SMOOTH",
"409 468 OFFCURVE",
"423 396 OFFCURVE",
"423 313 CURVE SMOOTH",
"423 0 LINE",
"514 0 LINE",
"514 340 LINE SMOOTH",
"514 463 OFFCURVE",
"467 547 OFFCURVE",
"337 547 CURVE SMOOTH",
"246 547 OFFCURVE",
"194 508 OFFCURVE",
"163 457 CURVE"
);
}
);
};
layerId = "C5488009-C580-4381-A4EE-96D70C5119DC";
paths = (
{
closed = 1;
nodes = (
"72 725 LINE",
"72 0 LINE",
"163 0 LINE",
"163 279 LINE SMOOTH",
"163 421 OFFCURVE",
"222 466 OFFCURVE",
"305 468 CURVE SMOOTH",
"388 469 OFFCURVE",
"423 421 OFFCURVE",
"423 320 CURVE SMOOTH",
"423 0 LINE",
"514 0 LINE",
"514 538 LINE",
"163 538 LINE",
"163 725 LINE"
);
}
);
width = 578;
},
{
background = {
paths = (
{
closed = 1;
nodes = (
"163 725 LINE",
"72 725 LINE",
"72 0 LINE",
"163 0 LINE",
"163 292 LINE SMOOTH",
"163 407 OFFCURVE",
"217 468 OFFCURVE",
"305 468 CURVE SMOOTH",
"409 468 OFFCURVE",
"423 396 OFFCURVE",
"423 313 CURVE SMOOTH",
"423 0 LINE",
"514 0 LINE",
"514 340 LINE SMOOTH",
"514 463 OFFCURVE",
"467 547 OFFCURVE",
"337 547 CURVE SMOOTH",
"246 547 OFFCURVE",
"194 508 OFFCURVE",
"163 457 CURVE"
);
}
);
};
layerId = "48ECFA74-86AE-4037-9A42-9B6212E42530";
paths = (
{
closed = 1;
nodes = (
"424 450 LINE",
"424 -2 LINE",
"515 -2 LINE",
"515 450 LINE"
);
},
{
closed = 1;
nodes = (
"163 538 LINE",
"163 450 LINE",
"424 450 LINE",
"424 538 LINE"
);
},
{
closed = 1;
nodes = (
"72 725 LINE",
"72 0 LINE",
"163 0 LINE",
"163 725 LINE"
);
}
);
width = 578;
}
);
leftKerningGroup = b;
note = h;
rightKerningGroup = a;
unicode = 0068;
},
{
glyphname = i;
lastChange = "2018-12-19 19:58:15 +0000";
layers = (
{
background = {
paths = (
{
closed = 1;
nodes = (
"72 538 LINE",
"72 0 LINE",
"163 0 LINE",
"163 538 LINE"
);
},
{
closed = 1;
nodes = (
"72 725 LINE",
"72 615 LINE",
"163 615 LINE",
"163 725 LINE"
);
}
);
};
layerId = "137AEC82-B0BC-44E1-9F98-144717E162AD";
paths = (
{
closed = 1;
nodes = (
"72 538 LINE",
"72 0 LINE",
"163 0 LINE",
"163 538 LINE"
);
},
{
closed = 1;
nodes = (
"72 725 LINE",
"72 615 LINE",
"163 615 LINE",
"163 725 LINE"
);
}
);
width = 235;
},
{
background = {
paths = (
{
closed = 1;
nodes = (
"72 538 LINE",
"72 0 LINE",
"163 0 LINE",
"163 538 LINE"
);
},
{
closed = 1;
nodes = (
"72 725 LINE",
"72 615 LINE",
"163 615 LINE",
"163 725 LINE"
);
}
);
};
layerId = "C5488009-C580-4381-A4EE-96D70C5119DC";
paths = (
{
closed = 1;
nodes = (
"72 388 LINE",
"72 0 LINE",
"163 0 LINE",
"163 388 LINE"
);
},
{
closed = 1;
nodes = (
"172 445 OFFCURVE",
"197 490 OFFCURVE",
"197 545 CURVE SMOOTH",
"197 600 OFFCURVE",
"172 645 OFFCURVE",
"117 645 CURVE SMOOTH",
"61 645 OFFCURVE",
"36 600 OFFCURVE",
"36 545 CURVE SMOOTH",
"36 490 OFFCURVE",
"61 445 OFFCURVE",
"117 445 CURVE SMOOTH"
);
}
);
width = 235;
},
{
background = {
paths = (
{
closed = 1;
nodes = (
"72 538 LINE",
"72 0 LINE",
"163 0 LINE",
"163 538 LINE"
);
},
{
closed = 1;
nodes = (
"72 725 LINE",
"72 615 LINE",
"163 615 LINE",
"163 725 LINE"
);
}
);
};
layerId = "48ECFA74-86AE-4037-9A42-9B6212E42530";
paths = (
{
closed = 1;
nodes = (
"72 538 LINE",
"72 0 LINE",
"163 0 LINE",
"163 538 LINE"
);
},
{
closed = 1;
nodes = (
"72 725 LINE",
"72 637 LINE",
"163 637 LINE",
"163 725 LINE"
);
}
);
width = 235;
}
);
leftKerningGroup = b;
note = i;
unicode = 0069;
},
{
glyphname = j;
lastChange = "2018-12-18 18:21:57 +0000";
layers = (
{
background = {
paths = (
{
closed = 1;
nodes = (
"72 -29 LINE SMOOTH",
"72 -85 OFFCURVE",
"63 -99 OFFCURVE",
"16 -99 CURVE SMOOTH",
"-10 -99 LINE",
"-10 -175 LINE",
"36 -175 LINE SMOOTH",
"140 -175 OFFCURVE",
"163 -139 OFFCURVE",
"163 -27 CURVE SMOOTH",
"163 538 LINE",
"72 538 LINE"
);
},
{
closed = 1;
nodes = (
"72 725 LINE",
"72 615 LINE",
"163 615 LINE",
"163 725 LINE"
);
}
);
};
layerId = "137AEC82-B0BC-44E1-9F98-144717E162AD";
paths = (
{
closed = 1;
nodes = (
"72 -29 LINE SMOOTH",
"72 -85 OFFCURVE",
"63 -99 OFFCURVE",
"16 -99 CURVE SMOOTH",
"-10 -99 LINE",
"-10 -175 LINE",
"36 -175 LINE SMOOTH",
"140 -175 OFFCURVE",
"163 -139 OFFCURVE",
"163 -27 CURVE SMOOTH",
"163 538 LINE",
"72 538 LINE"
);
},
{
closed = 1;
nodes = (
"72 725 LINE",
"72 615 LINE",
"163 615 LINE",
"163 725 LINE"
);
}
);
width = 235;
},
{
background = {
paths = (
{
closed = 1;
nodes = (
"72 -29 LINE SMOOTH",
"72 -85 OFFCURVE",
"63 -99 OFFCURVE",
"16 -99 CURVE SMOOTH",
"-10 -99 LINE",
"-10 -175 LINE",
"36 -175 LINE SMOOTH",
"140 -175 OFFCURVE",
"163 -139 OFFCURVE",
"163 -27 CURVE SMOOTH",
"163 538 LINE",
"72 538 LINE"
);
},
{
closed = 1;
nodes = (
"72 725 LINE",
"72 615 LINE",
"163 615 LINE",
"163 725 LINE"
);
}
);
};
layerId = "C5488009-C580-4381-A4EE-96D70C5119DC";
paths = (
{
closed = 1;
nodes = (
"72 -29 LINE SMOOTH",
"72 -85 OFFCURVE",
"63 -99 OFFCURVE",
"16 -99 CURVE SMOOTH",
"-10 -99 LINE",
"-10 -175 LINE",
"36 -175 LINE SMOOTH",
"140 -175 OFFCURVE",
"163 -139 OFFCURVE",
"163 -27 CURVE SMOOTH",
"163 538 LINE",
"72 538 LINE"
);
},
{
closed = 1;
nodes = (
"72 725 LINE",
"72 615 LINE",
"163 615 LINE",
"163 725 LINE"
);
}
);
width = 235;
},
{
background = {
paths = (
{
closed = 1;
nodes = (
"72 -29 LINE SMOOTH",
"72 -85 OFFCURVE",
"63 -99 OFFCURVE",
"16 -99 CURVE SMOOTH",
"-10 -99 LINE",
"-10 -175 LINE",
"36 -175 LINE SMOOTH",
"140 -175 OFFCURVE",
"163 -139 OFFCURVE",
"163 -27 CURVE SMOOTH",
"163 538 LINE",
"72 538 LINE"
);
},
{
closed = 1;
nodes = (
"72 725 LINE",
"72 615 LINE",
"163 615 LINE",
"163 725 LINE"
);
}
);
};
layerId = "48ECFA74-86AE-4037-9A42-9B6212E42530";
paths = (
{
closed = 1;
nodes = (
"72 538 LINE",
"72 -98 LINE",
"163 -98 LINE",
"163 538 LINE"
);
},
{
closed = 1;
nodes = (
"72 725 LINE",
"72 637 LINE",
"163 637 LINE",
"163 725 LINE"
);
},
{
closed = 1;
nodes = (
"-10 -98 LINE",
"-10 -175 LINE",
"163 -175 LINE",
"163 -98 LINE"
);
}
);
width = 235;
}
);
leftKerningGroup = b;
note = j;
unicode = 006A;
},
{
glyphname = k;
lastChange = "2018-12-18 18:21:57 +0000";
layers = (
{
background = {
paths = (
{
closed = 1;
nodes = (
"72 725 LINE",
"72 0 LINE",
"163 0 LINE",
"163 180 LINE",
"226 248 LINE",
"409 0 LINE",
"520 0 LINE",
"287 315 LINE",
"492 538 LINE",
"380 538 LINE",
"163 296 LINE",
"163 725 LINE"
);
}
);
};
layerId = "137AEC82-B0BC-44E1-9F98-144717E162AD";
paths = (
{
closed = 1;
nodes = (
"72 725 LINE",
"72 0 LINE",
"163 0 LINE",
"163 180 LINE",
"226 248 LINE",
"409 0 LINE",
"520 0 LINE",
"287 315 LINE",
"492 538 LINE",
"380 538 LINE",
"163 296 LINE",
"163 725 LINE"
);
}
);
width = 505;
},
{
background = {
paths = (
{
closed = 1;
nodes = (
"72 725 LINE",
"72 0 LINE",
"163 0 LINE",
"163 180 LINE",
"226 248 LINE",
"409 0 LINE",
"520 0 LINE",
"287 315 LINE",
"492 538 LINE",
"380 538 LINE",
"163 296 LINE",
"163 725 LINE"
);
}
);
};
layerId = "C5488009-C580-4381-A4EE-96D70C5119DC";
paths = (
{
closed = 1;
nodes = (
"72 725 LINE",
"72 0 LINE",
"163 0 LINE",
"163 180 LINE",
"226 248 LINE",
"409 0 LINE",
"520 0 LINE",
"287 315 LINE",
"492 538 LINE",
"380 538 LINE",
"163 296 LINE",
"163 725 LINE"
);
}
);
width = 505;
},
{
background = {
paths = (
{
closed = 1;
nodes = (
"72 725 LINE",
"72 0 LINE",
"163 0 LINE",
"163 180 LINE",
"226 248 LINE",
"409 0 LINE",
"520 0 LINE",
"287 315 LINE",
"492 538 LINE",
"380 538 LINE",
"163 296 LINE",
"163 725 LINE"
);
}
);
};
layerId = "48ECFA74-86AE-4037-9A42-9B6212E42530";
paths = (
{
closed = 1;
nodes = (
"72 725 LINE",
"72 0 LINE",
"163 0 LINE",
"163 725 LINE"
);
},
{
closed = 1;
nodes = (
"163 220 LINE",
"293 220 LINE",
"293 308 LINE",
"163 308 LINE"
);
},
{
closed = 1;
nodes = (
"293 308 LINE",
"384 308 LINE",
"384 396 LINE",
"293 396 LINE"
);
},
{
closed = 1;
nodes = (
"384 396 LINE",
"475 396 LINE",
"475 538 LINE",
"384 538 LINE"
);
},
{
closed = 1;
nodes = (
"293 88 LINE",
"384 88 LINE",
"384 220 LINE",
"293 220 LINE"
);
},
{
closed = 1;
nodes = (
"384 0 LINE",
"505 0 LINE",
"505 88 LINE",
"384 88 LINE"
);
}
);
width = 505;
}
);
leftKerningGroup = b;
note = k;
rightKerningGroup = k;
unicode = 006B;
},
{
glyphname = l;
lastChange = "2018-12-18 18:21:57 +0000";
layers = (
{
background = {
paths = (
{
closed = 1;
nodes = (
"163 725 LINE",
"72 725 LINE",
"72 0 LINE",
"163 0 LINE"
);
}
);
};
layerId = "137AEC82-B0BC-44E1-9F98-144717E162AD";
paths = (
{
closed = 1;
nodes = (
"163 725 LINE",
"72 725 LINE",
"72 0 LINE",
"163 0 LINE"
);
}
);
width = 235;
},
{
background = {
paths = (
{
closed = 1;
nodes = (
"163 725 LINE",
"72 725 LINE",
"72 0 LINE",
"163 0 LINE"
);
}
);
};
layerId = "C5488009-C580-4381-A4EE-96D70C5119DC";
paths = (
{
closed = 1;
nodes = (
"163 725 LINE",
"72 725 LINE",
"72 0 LINE",
"163 0 LINE"
);
}
);
width = 235;
},
{
background = {
paths = (
{
closed = 1;
nodes = (
"163 725 LINE",
"72 725 LINE",
"72 0 LINE",
"163 0 LINE"
);
}
);
};
layerId = "48ECFA74-86AE-4037-9A42-9B6212E42530";
paths = (
{
closed = 1;
nodes = (
"163 725 LINE",
"72 725 LINE",
"72 0 LINE",
"163 0 LINE"
);
}
);
width = 235;
}
);
leftKerningGroup = b;
note = l;
unicode = 006C;
},
{
glyphname = m;
lastChange = "2018-12-18 18:21:57 +0000";
layers = (
{
background = {
paths = (
{
closed = 1;
nodes = (
"163 292 LINE SMOOTH",
"163 407 OFFCURVE",
"215 468 OFFCURVE",
"293 468 CURVE SMOOTH",
"392 468 OFFCURVE",
"408 396 OFFCURVE",
"408 313 CURVE SMOOTH",
"408 0 LINE",
"499 0 LINE",
"499 292 LINE SMOOTH",
"499 407 OFFCURVE",
"551 468 OFFCURVE",
"629 468 CURVE SMOOTH",
"728 468 OFFCURVE",
"744 396 OFFCURVE",
"744 313 CURVE SMOOTH",
"744 0 LINE",
"835 0 LINE",
"835 340 LINE SMOOTH",
"835 463 OFFCURVE",
"786 547 OFFCURVE",
"661 547 CURVE SMOOTH",
"586 547 OFFCURVE",
"523 518 OFFCURVE",
"480 452 CURVE",
"456 511 OFFCURVE",
"407 547 OFFCURVE",
"325 547 CURVE SMOOTH",
"244 547 OFFCURVE",
"194 508 OFFCURVE",
"163 457 CURVE",
"163 538 LINE",
"72 538 LINE",
"72 0 LINE",
"163 0 LINE"
);
}
);
};
layerId = "137AEC82-B0BC-44E1-9F98-144717E162AD";
paths = (
{
closed = 1;
nodes = (
"163 292 LINE SMOOTH",
"163 407 OFFCURVE",
"215 468 OFFCURVE",
"293 468 CURVE SMOOTH",
"392 468 OFFCURVE",
"408 396 OFFCURVE",
"408 313 CURVE SMOOTH",
"408 0 LINE",
"499 0 LINE",
"499 292 LINE SMOOTH",
"499 407 OFFCURVE",
"551 468 OFFCURVE",
"629 468 CURVE SMOOTH",
"728 468 OFFCURVE",
"744 396 OFFCURVE",
"744 313 CURVE SMOOTH",
"744 0 LINE",
"835 0 LINE",
"835 340 LINE SMOOTH",
"835 463 OFFCURVE",
"786 547 OFFCURVE",
"661 547 CURVE SMOOTH",
"586 547 OFFCURVE",
"523 518 OFFCURVE",
"480 452 CURVE",
"456 511 OFFCURVE",
"407 547 OFFCURVE",
"325 547 CURVE SMOOTH",
"244 547 OFFCURVE",
"194 508 OFFCURVE",
"163 457 CURVE",
"163 538 LINE",
"72 538 LINE",
"72 0 LINE",
"163 0 LINE"
);
}
);
width = 899;
},
{
background = {
paths = (
{
closed = 1;
nodes = (
"163 292 LINE SMOOTH",
"163 407 OFFCURVE",
"215 468 OFFCURVE",
"293 468 CURVE SMOOTH",
"392 468 OFFCURVE",
"408 396 OFFCURVE",
"408 313 CURVE SMOOTH",
"408 0 LINE",
"499 0 LINE",
"499 292 LINE SMOOTH",
"499 407 OFFCURVE",
"551 468 OFFCURVE",
"629 468 CURVE SMOOTH",
"728 468 OFFCURVE",
"744 396 OFFCURVE",
"744 313 CURVE SMOOTH",
"744 0 LINE",
"835 0 LINE",
"835 340 LINE SMOOTH",
"835 463 OFFCURVE",
"786 547 OFFCURVE",
"661 547 CURVE SMOOTH",
"586 547 OFFCURVE",
"523 518 OFFCURVE",
"480 452 CURVE",
"456 511 OFFCURVE",
"407 547 OFFCURVE",
"325 547 CURVE SMOOTH",
"244 547 OFFCURVE",
"194 508 OFFCURVE",
"163 457 CURVE",
"163 538 LINE",
"72 538 LINE",
"72 0 LINE",
"163 0 LINE"
);
}
);
};
layerId = "C5488009-C580-4381-A4EE-96D70C5119DC";
paths = (
{
closed = 1;
nodes = (
"163 292 LINE SMOOTH",
"163 407 OFFCURVE",
"215 468 OFFCURVE",
"293 468 CURVE SMOOTH",
"392 468 OFFCURVE",
"408 396 OFFCURVE",
"408 313 CURVE SMOOTH",
"408 0 LINE",
"499 0 LINE",
"499 292 LINE SMOOTH",
"499 407 OFFCURVE",
"551 468 OFFCURVE",
"629 468 CURVE SMOOTH",
"728 468 OFFCURVE",
"744 396 OFFCURVE",
"744 313 CURVE SMOOTH",
"744 0 LINE",
"835 0 LINE",
"835 340 LINE SMOOTH",
"835 463 OFFCURVE",
"786 547 OFFCURVE",
"661 547 CURVE SMOOTH",
"586 547 OFFCURVE",
"523 518 OFFCURVE",
"480 452 CURVE",
"456 511 OFFCURVE",
"407 547 OFFCURVE",
"325 547 CURVE SMOOTH",
"244 547 OFFCURVE",
"194 508 OFFCURVE",
"163 457 CURVE",
"163 538 LINE",
"72 538 LINE",
"72 0 LINE",
"163 0 LINE"
);
}
);
width = 899;
},
{
background = {
paths = (
{
closed = 1;
nodes = (
"163 292 LINE SMOOTH",
"163 407 OFFCURVE",
"215 468 OFFCURVE",
"293 468 CURVE SMOOTH",
"392 468 OFFCURVE",
"408 396 OFFCURVE",
"408 313 CURVE SMOOTH",
"408 0 LINE",
"499 0 LINE",
"499 292 LINE SMOOTH",
"499 407 OFFCURVE",
"551 468 OFFCURVE",
"629 468 CURVE SMOOTH",
"728 468 OFFCURVE",
"744 396 OFFCURVE",
"744 313 CURVE SMOOTH",
"744 0 LINE",
"835 0 LINE",
"835 340 LINE SMOOTH",
"835 463 OFFCURVE",
"786 547 OFFCURVE",
"661 547 CURVE SMOOTH",
"586 547 OFFCURVE",
"523 518 OFFCURVE",
"480 452 CURVE",
"456 511 OFFCURVE",
"407 547 OFFCURVE",
"325 547 CURVE SMOOTH",
"244 547 OFFCURVE",
"194 508 OFFCURVE",
"163 457 CURVE",
"163 538 LINE",
"72 538 LINE",
"72 0 LINE",
"163 0 LINE"
);
}
);
};
layerId = "48ECFA74-86AE-4037-9A42-9B6212E42530";
paths = (
{
closed = 1;
nodes = (
"408 450 LINE",
"408 -2 LINE",
"499 -2 LINE",
"499 450 LINE"
);
},
{
closed = 1;
nodes = (
"163 538 LINE",
"163 450 LINE",
"744 450 LINE",
"744 538 LINE"
);
},
{
closed = 1;
nodes = (
"72 538 LINE",
"72 0 LINE",
"163 0 LINE",
"163 538 LINE"
);
},
{
closed = 1;
nodes = (
"744 450 LINE",
"744 -2 LINE",
"835 -2 LINE",
"835 450 LINE"
);
}
);
width = 899;
}
);
leftKerningGroup = m;
note = m;
rightKerningGroup = a;
unicode = 006D;
},
{
glyphname = n;
lastChange = "2018-12-18 18:21:57 +0000";
layers = (
{
background = {
paths = (
{
closed = 1;
nodes = (
"163 538 LINE",
"72 538 LINE",
"72 0 LINE",
"163 0 LINE",
"163 292 LINE SMOOTH",
"163 407 OFFCURVE",
"217 468 OFFCURVE",
"305 468 CURVE SMOOTH",
"409 468 OFFCURVE",
"423 396 OFFCURVE",
"423 313 CURVE SMOOTH",
"423 0 LINE",
"514 0 LINE",
"514 340 LINE SMOOTH",
"514 463 OFFCURVE",
"467 547 OFFCURVE",
"337 547 CURVE SMOOTH",
"246 547 OFFCURVE",
"194 508 OFFCURVE",
"163 457 CURVE"
);
}
);
};
layerId = "137AEC82-B0BC-44E1-9F98-144717E162AD";
paths = (
{
closed = 1;
nodes = (
"163 538 LINE",
"72 538 LINE",
"72 0 LINE",
"163 0 LINE",
"163 292 LINE SMOOTH",
"163 407 OFFCURVE",
"217 468 OFFCURVE",
"305 468 CURVE SMOOTH",
"409 468 OFFCURVE",
"423 396 OFFCURVE",
"423 313 CURVE SMOOTH",
"423 0 LINE",
"514 0 LINE",
"514 340 LINE SMOOTH",
"514 463 OFFCURVE",
"467 547 OFFCURVE",
"337 547 CURVE SMOOTH",
"246 547 OFFCURVE",
"194 508 OFFCURVE",
"163 457 CURVE"
);
}
);
width = 578;
},
{
background = {
paths = (
{
closed = 1;
nodes = (
"163 538 LINE",
"72 538 LINE",
"72 0 LINE",
"163 0 LINE",
"163 292 LINE SMOOTH",
"163 407 OFFCURVE",
"217 468 OFFCURVE",
"305 468 CURVE SMOOTH",
"409 468 OFFCURVE",
"423 396 OFFCURVE",
"423 313 CURVE SMOOTH",
"423 0 LINE",
"514 0 LINE",
"514 340 LINE SMOOTH",
"514 463 OFFCURVE",
"467 547 OFFCURVE",
"337 547 CURVE SMOOTH",
"246 547 OFFCURVE",
"194 508 OFFCURVE",
"163 457 CURVE"
);
}
);
};
layerId = "C5488009-C580-4381-A4EE-96D70C5119DC";
paths = (
{
closed = 1;
nodes = (
"163 538 LINE",
"72 538 LINE",
"72 0 LINE",
"163 0 LINE",
"163 292 LINE SMOOTH",
"163 407 OFFCURVE",
"217 468 OFFCURVE",
"305 468 CURVE SMOOTH",
"409 468 OFFCURVE",
"423 396 OFFCURVE",
"423 313 CURVE SMOOTH",
"423 0 LINE",
"514 0 LINE",
"514 340 LINE SMOOTH",
"514 463 OFFCURVE",
"467 547 OFFCURVE",
"337 547 CURVE SMOOTH",
"246 547 OFFCURVE",
"194 508 OFFCURVE",
"163 457 CURVE"
);
}
);
width = 578;
},
{
background = {
paths = (
{
closed = 1;
nodes = (
"163 538 LINE",
"72 538 LINE",
"72 0 LINE",
"163 0 LINE",
"163 292 LINE SMOOTH",
"163 407 OFFCURVE",
"217 468 OFFCURVE",
"305 468 CURVE SMOOTH",
"409 468 OFFCURVE",
"423 396 OFFCURVE",
"423 313 CURVE SMOOTH",
"423 0 LINE",
"514 0 LINE",
"514 340 LINE SMOOTH",
"514 463 OFFCURVE",
"467 547 OFFCURVE",
"337 547 CURVE SMOOTH",
"246 547 OFFCURVE",
"194 508 OFFCURVE",
"163 457 CURVE"
);
}
);
};
layerId = "48ECFA74-86AE-4037-9A42-9B6212E42530";
paths = (
{
closed = 1;
nodes = (
"425 450 LINE",
"425 -2 LINE",
"516 -2 LINE",
"516 450 LINE"
);
},
{
closed = 1;
nodes = (
"163 538 LINE",
"163 450 LINE",
"425 450 LINE",
"425 538 LINE"
);
},
{
closed = 1;
nodes = (
"72 538 LINE",
"72 0 LINE",
"163 0 LINE",
"163 538 LINE"
);
}
);
width = 578;
}
);
leftKerningGroup = m;
note = n;
rightKerningGroup = a;
unicode = 006E;
},
{
glyphname = o;
lastChange = "2018-12-19 16:45:43 +0000";
layers = (
{
background = {
paths = (
{
closed = 1;
nodes = (
"134 414 OFFCURVE",
"213 467 OFFCURVE",
"295 467 CURVE SMOOTH",
"377 467 OFFCURVE",
"456 410 OFFCURVE",
"456 267 CURVE SMOOTH",
"456 129 OFFCURVE",
"377 67 OFFCURVE",
"295 67 CURVE SMOOTH",
"213 67 OFFCURVE",
"134 124 OFFCURVE",
"134 267 CURVE SMOOTH"
);
},
{
closed = 1;
nodes = (
"170 547 OFFCURVE",
"37 462 OFFCURVE",
"37 267 CURVE SMOOTH",
"37 72 OFFCURVE",
"170 -13 OFFCURVE",
"295 -13 CURVE SMOOTH",
"420 -13 OFFCURVE",
"553 72 OFFCURVE",
"553 267 CURVE SMOOTH",
"553 462 OFFCURVE",
"420 547 OFFCURVE",
"295 547 CURVE SMOOTH"
);
}
);
};
layerId = "137AEC82-B0BC-44E1-9F98-144717E162AD";
paths = (
{
closed = 1;
nodes = (
"134 414 OFFCURVE",
"213 467 OFFCURVE",
"295 467 CURVE SMOOTH",
"377 467 OFFCURVE",
"456 410 OFFCURVE",
"456 267 CURVE SMOOTH",
"456 129 OFFCURVE",
"377 67 OFFCURVE",
"295 67 CURVE SMOOTH",
"213 67 OFFCURVE",
"134 124 OFFCURVE",
"134 267 CURVE SMOOTH"
);
},
{
closed = 1;
nodes = (
"170 547 OFFCURVE",
"37 462 OFFCURVE",
"37 267 CURVE SMOOTH",
"37 72 OFFCURVE",
"170 -13 OFFCURVE",
"295 -13 CURVE SMOOTH",
"420 -13 OFFCURVE",
"553 72 OFFCURVE",
"553 267 CURVE SMOOTH",
"553 462 OFFCURVE",
"420 547 OFFCURVE",
"295 547 CURVE SMOOTH"
);
}
);
width = 590;
},
{
background = {
paths = (
{
closed = 1;
nodes = (
"134 414 OFFCURVE",
"213 467 OFFCURVE",
"295 467 CURVE SMOOTH",
"377 467 OFFCURVE",
"456 410 OFFCURVE",
"456 267 CURVE SMOOTH",
"456 129 OFFCURVE",
"377 67 OFFCURVE",
"295 67 CURVE SMOOTH",
"213 67 OFFCURVE",
"134 124 OFFCURVE",
"134 267 CURVE SMOOTH"
);
},
{
closed = 1;
nodes = (
"170 547 OFFCURVE",
"37 462 OFFCURVE",
"37 267 CURVE SMOOTH",
"37 72 OFFCURVE",
"170 -13 OFFCURVE",
"295 -13 CURVE SMOOTH",
"420 -13 OFFCURVE",
"553 72 OFFCURVE",
"553 267 CURVE SMOOTH",
"553 462 OFFCURVE",
"420 547 OFFCURVE",
"295 547 CURVE SMOOTH"
);
}
);
};
layerId = "C5488009-C580-4381-A4EE-96D70C5119DC";
paths = (
{
closed = 1;
nodes = (
"40 88 LINE",
"131 88 LINE",
"131 450 LINE",
"40 450 LINE"
);
},
{
closed = 1;
nodes = (
"131 450 LINE",
"459 450 LINE",
"459 538 LINE",
"131 538 LINE"
);
},
{
closed = 1;
nodes = (
"131 0 LINE",
"459 0 LINE",
"459 88 LINE",
"131 88 LINE"
);
},
{
closed = 1;
nodes = (
"459 88 LINE",
"550 88 LINE",
"550 450 LINE",
"459 450 LINE"
);
},
{
closed = 1;
nodes = (
"331 201 OFFCURVE",
"359 234 OFFCURVE",
"359 270 CURVE SMOOTH",
"359 305 OFFCURVE",
"331 338 OFFCURVE",
"296 338 CURVE SMOOTH",
"260 338 OFFCURVE",
"232 305 OFFCURVE",
"232 270 CURVE SMOOTH",
"232 234 OFFCURVE",
"260 201 OFFCURVE",
"296 201 CURVE SMOOTH"
);
}
);
width = 590;
},
{
background = {
paths = (
{
closed = 1;
nodes = (
"134 414 OFFCURVE",
"213 467 OFFCURVE",
"295 467 CURVE SMOOTH",
"377 467 OFFCURVE",
"456 410 OFFCURVE",
"456 267 CURVE SMOOTH",
"456 129 OFFCURVE",
"377 67 OFFCURVE",
"295 67 CURVE SMOOTH",
"213 67 OFFCURVE",
"134 124 OFFCURVE",
"134 267 CURVE SMOOTH"
);
},
{
closed = 1;
nodes = (
"170 547 OFFCURVE",
"37 462 OFFCURVE",
"37 267 CURVE SMOOTH",
"37 72 OFFCURVE",
"170 -13 OFFCURVE",
"295 -13 CURVE SMOOTH",
"420 -13 OFFCURVE",
"553 72 OFFCURVE",
"553 267 CURVE SMOOTH",
"553 462 OFFCURVE",
"420 547 OFFCURVE",
"295 547 CURVE SMOOTH"
);
}
);
};
layerId = "48ECFA74-86AE-4037-9A42-9B6212E42530";
paths = (
{
closed = 1;
nodes = (
"40 88 LINE",
"131 88 LINE",
"131 450 LINE",
"40 450 LINE"
);
},
{
closed = 1;
nodes = (
"131 450 LINE",
"459 450 LINE",
"459 538 LINE",
"131 538 LINE"
);
},
{
closed = 1;
nodes = (
"131 0 LINE",
"459 0 LINE",
"459 88 LINE",
"131 88 LINE"
);
},
{
closed = 1;
nodes = (
"459 88 LINE",
"550 88 LINE",
"550 450 LINE",
"459 450 LINE"
);
}
);
width = 590;
},
{
associatedMasterId = "48ECFA74-86AE-4037-9A42-9B6212E42530";
background = {
paths = (
{
closed = 1;
nodes = (
"134 414 OFFCURVE",
"213 467 OFFCURVE",
"295 467 CURVE SMOOTH",
"377 467 OFFCURVE",
"456 410 OFFCURVE",
"456 267 CURVE SMOOTH",
"456 129 OFFCURVE",
"377 67 OFFCURVE",
"295 67 CURVE SMOOTH",
"213 67 OFFCURVE",
"134 124 OFFCURVE",
"134 267 CURVE SMOOTH"
);
},
{
closed = 1;
nodes = (
"170 547 OFFCURVE",
"37 462 OFFCURVE",
"37 267 CURVE SMOOTH",
"37 72 OFFCURVE",
"170 -13 OFFCURVE",
"295 -13 CURVE SMOOTH",
"420 -13 OFFCURVE",
"553 72 OFFCURVE",
"553 267 CURVE SMOOTH",
"553 462 OFFCURVE",
"420 547 OFFCURVE",
"295 547 CURVE SMOOTH"
);
}
);
};
layerId = "13C41F92-232C-4996-B033-F3389F6DD595";
name = pixel;
paths = (
{
closed = 1;
nodes = (
"40 88 LINE",
"131 88 LINE",
"131 450 LINE",
"40 450 LINE"
);
},
{
closed = 1;
nodes = (
"131 450 LINE",
"459 450 LINE",
"459 538 LINE",
"131 538 LINE"
);
},
{
closed = 1;
nodes = (
"131 0 LINE",
"459 0 LINE",
"459 88 LINE",
"131 88 LINE"
);
},
{
closed = 1;
nodes = (
"459 88 LINE",
"550 88 LINE",
"550 450 LINE",
"459 450 LINE"
);
}
);
width = 590;
}
);
leftKerningGroup = c;
note = o;
rightKerningGroup = b;
unicode = 006F;
},
{
glyphname = p;
lastChange = "2018-12-19 19:38:29 +0000";
layers = (
{
background = {
paths = (
{
closed = 1;
nodes = (
"72 538 LINE",
"72 -175 LINE",
"163 -175 LINE",
"163 81 LINE",
"196 24 OFFCURVE",
"253 -13 OFFCURVE",
"339 -13 CURVE SMOOTH",
"462 -13 OFFCURVE",
"569 89 OFFCURVE",
"569 267 CURVE SMOOTH",
"569 444 OFFCURVE",
"462 547 OFFCURVE",
"339 547 CURVE SMOOTH",
"253 547 OFFCURVE",
"196 510 OFFCURVE",
"163 453 CURVE",
"163 538 LINE"
);
},
{
closed = 1;
nodes = (
"159 409 OFFCURVE",
"235 469 OFFCURVE",
"316 469 CURVE SMOOTH",
"409 469 OFFCURVE",
"470 395 OFFCURVE",
"470 267 CURVE SMOOTH",
"470 139 OFFCURVE",
"409 65 OFFCURVE",
"316 65 CURVE SMOOTH",
"235 65 OFFCURVE",
"159 125 OFFCURVE",
"159 267 CURVE SMOOTH"
);
}
);
};
layerId = "137AEC82-B0BC-44E1-9F98-144717E162AD";
paths = (
{
closed = 1;
nodes = (
"72 538 LINE",
"72 -175 LINE",
"163 -175 LINE",
"163 81 LINE",
"196 24 OFFCURVE",
"253 -13 OFFCURVE",
"339 -13 CURVE SMOOTH",
"462 -13 OFFCURVE",
"569 89 OFFCURVE",
"569 267 CURVE SMOOTH",
"569 444 OFFCURVE",
"462 547 OFFCURVE",
"339 547 CURVE SMOOTH",
"253 547 OFFCURVE",
"196 510 OFFCURVE",
"163 453 CURVE",
"163 538 LINE"
);
},
{
closed = 1;
nodes = (
"159 409 OFFCURVE",
"235 469 OFFCURVE",
"316 469 CURVE SMOOTH",
"409 469 OFFCURVE",
"470 395 OFFCURVE",
"470 267 CURVE SMOOTH",
"470 139 OFFCURVE",
"409 65 OFFCURVE",
"316 65 CURVE SMOOTH",
"235 65 OFFCURVE",
"159 125 OFFCURVE",
"159 267 CURVE SMOOTH"
);
}
);
width = 604;
},
{
background = {
paths = (
{
closed = 1;
nodes = (
"72 538 LINE",
"72 -175 LINE",
"163 -175 LINE",
"163 81 LINE",
"196 24 OFFCURVE",
"253 -13 OFFCURVE",
"339 -13 CURVE SMOOTH",
"462 -13 OFFCURVE",
"569 89 OFFCURVE",
"569 267 CURVE SMOOTH",
"569 444 OFFCURVE",
"462 547 OFFCURVE",
"339 547 CURVE SMOOTH",
"253 547 OFFCURVE",
"196 510 OFFCURVE",
"163 453 CURVE",
"163 538 LINE"
);
},
{
closed = 1;
nodes = (
"159 409 OFFCURVE",
"235 469 OFFCURVE",
"316 469 CURVE SMOOTH",
"409 469 OFFCURVE",
"470 395 OFFCURVE",
"470 267 CURVE SMOOTH",
"470 139 OFFCURVE",
"409 65 OFFCURVE",
"316 65 CURVE SMOOTH",
"235 65 OFFCURVE",
"159 125 OFFCURVE",
"159 267 CURVE SMOOTH"
);
}
);
};
layerId = "C5488009-C580-4381-A4EE-96D70C5119DC";
paths = (
{
closed = 1;
nodes = (
"483 0 OFFCURVE",
"560 111 OFFCURVE",
"560 276 CURVE SMOOTH",
"560 441 OFFCURVE",
"483 554 OFFCURVE",
"359 554 CURVE SMOOTH",
"235 554 OFFCURVE",
"157 441 OFFCURVE",
"157 276 CURVE SMOOTH",
"157 111 OFFCURVE",
"235 0 OFFCURVE",
"359 0 CURVE SMOOTH"
);
},
{
closed = 1;
nodes = (
"293 76 OFFCURVE",
"247 157 OFFCURVE",
"247 276 CURVE SMOOTH",
"247 395 OFFCURVE",
"293 479 OFFCURVE",
"359 479 CURVE SMOOTH",
"425 479 OFFCURVE",
"470 395 OFFCURVE",
"470 276 CURVE SMOOTH",
"470 157 OFFCURVE",
"425 76 OFFCURVE",
"359 76 CURVE SMOOTH"
);
},
{
closed = 1;
nodes = (
"163 538 LINE",
"72 538 LINE",
"72 -175 LINE",
"163 -175 LINE"
);
}
);
width = 604;
},
{
background = {
paths = (
{
closed = 1;
nodes = (
"72 538 LINE",
"72 -175 LINE",
"163 -175 LINE",
"163 81 LINE",
"196 24 OFFCURVE",
"253 -13 OFFCURVE",
"339 -13 CURVE SMOOTH",
"462 -13 OFFCURVE",
"569 89 OFFCURVE",
"569 267 CURVE SMOOTH",
"569 444 OFFCURVE",
"462 547 OFFCURVE",
"339 547 CURVE SMOOTH",
"253 547 OFFCURVE",
"196 510 OFFCURVE",
"163 453 CURVE",
"163 538 LINE"
);
},
{
closed = 1;
nodes = (
"159 409 OFFCURVE",
"235 469 OFFCURVE",
"316 469 CURVE SMOOTH",
"409 469 OFFCURVE",
"470 395 OFFCURVE",
"470 267 CURVE SMOOTH",
"470 139 OFFCURVE",
"409 65 OFFCURVE",
"316 65 CURVE SMOOTH",
"235 65 OFFCURVE",
"159 125 OFFCURVE",
"159 267 CURVE SMOOTH"
);
}
);
};
layerId = "48ECFA74-86AE-4037-9A42-9B6212E42530";
paths = (
{
closed = 1;
nodes = (
"564 450 LINE",
"473 450 LINE",
"473 88 LINE",
"564 88 LINE"
);
},
{
closed = 1;
nodes = (
"473 88 LINE",
"163 88 LINE",
"163 0 LINE",
"473 0 LINE"
);
},
{
closed = 1;
nodes = (
"473 538 LINE",
"163 538 LINE",
"163 450 LINE",
"473 450 LINE"
);
},
{
closed = 1;
nodes = (
"163 538 LINE",
"72 538 LINE",
"72 -175 LINE",
"163 -175 LINE"
);
}
);
width = 604;
}
);
leftKerningGroup = m;
note = p;
rightKerningGroup = b;
unicode = 0070;
},
{
glyphname = q;
lastChange = "2018-12-18 18:21:57 +0000";
layers = (
{
background = {
paths = (
{
closed = 1;
nodes = (
"441 453 LINE",
"408 510 OFFCURVE",
"351 547 OFFCURVE",
"265 547 CURVE SMOOTH",
"142 547 OFFCURVE",
"35 444 OFFCURVE",
"35 267 CURVE SMOOTH",
"35 89 OFFCURVE",
"142 -13 OFFCURVE",
"265 -13 CURVE SMOOTH",
"351 -13 OFFCURVE",
"408 24 OFFCURVE",
"441 81 CURVE",
"441 -175 LINE",
"532 -175 LINE",
"532 538 LINE",
"441 538 LINE"
);
},
{
closed = 1;
nodes = (
"445 125 OFFCURVE",
"369 65 OFFCURVE",
"288 65 CURVE SMOOTH",
"195 65 OFFCURVE",
"134 139 OFFCURVE",
"134 267 CURVE SMOOTH",
"134 395 OFFCURVE",
"195 469 OFFCURVE",
"288 469 CURVE SMOOTH",
"369 469 OFFCURVE",
"445 409 OFFCURVE",
"445 267 CURVE SMOOTH"
);
}
);
};
layerId = "137AEC82-B0BC-44E1-9F98-144717E162AD";
paths = (
{
closed = 1;
nodes = (
"441 453 LINE",
"408 510 OFFCURVE",
"351 547 OFFCURVE",
"265 547 CURVE SMOOTH",
"142 547 OFFCURVE",
"35 444 OFFCURVE",
"35 267 CURVE SMOOTH",
"35 89 OFFCURVE",
"142 -13 OFFCURVE",
"265 -13 CURVE SMOOTH",
"351 -13 OFFCURVE",
"408 24 OFFCURVE",
"441 81 CURVE",
"441 -175 LINE",
"532 -175 LINE",
"532 538 LINE",
"441 538 LINE"
);
},
{
closed = 1;
nodes = (
"445 125 OFFCURVE",
"369 65 OFFCURVE",
"288 65 CURVE SMOOTH",
"195 65 OFFCURVE",
"134 139 OFFCURVE",
"134 267 CURVE SMOOTH",
"134 395 OFFCURVE",
"195 469 OFFCURVE",
"288 469 CURVE SMOOTH",
"369 469 OFFCURVE",
"445 409 OFFCURVE",
"445 267 CURVE SMOOTH"
);
}
);
width = 604;
},
{
background = {
paths = (
{
closed = 1;
nodes = (
"441 453 LINE",
"408 510 OFFCURVE",
"351 547 OFFCURVE",
"265 547 CURVE SMOOTH",
"142 547 OFFCURVE",
"35 444 OFFCURVE",
"35 267 CURVE SMOOTH",
"35 89 OFFCURVE",
"142 -13 OFFCURVE",
"265 -13 CURVE SMOOTH",
"351 -13 OFFCURVE",
"408 24 OFFCURVE",
"441 81 CURVE",
"441 -175 LINE",
"532 -175 LINE",
"532 538 LINE",
"441 538 LINE"
);
},
{
closed = 1;
nodes = (
"445 125 OFFCURVE",
"369 65 OFFCURVE",
"288 65 CURVE SMOOTH",
"195 65 OFFCURVE",
"134 139 OFFCURVE",
"134 267 CURVE SMOOTH",
"134 395 OFFCURVE",
"195 469 OFFCURVE",
"288 469 CURVE SMOOTH",
"369 469 OFFCURVE",
"445 409 OFFCURVE",
"445 267 CURVE SMOOTH"
);
}
);
};
layerId = "C5488009-C580-4381-A4EE-96D70C5119DC";
paths = (
{
closed = 1;
nodes = (
"441 453 LINE",
"408 510 OFFCURVE",
"351 547 OFFCURVE",
"265 547 CURVE SMOOTH",
"142 547 OFFCURVE",
"35 444 OFFCURVE",
"35 267 CURVE SMOOTH",
"35 89 OFFCURVE",
"142 -13 OFFCURVE",
"265 -13 CURVE SMOOTH",
"351 -13 OFFCURVE",
"408 24 OFFCURVE",
"441 81 CURVE",
"441 -175 LINE",
"532 -175 LINE",
"532 538 LINE",
"441 538 LINE"
);
},
{
closed = 1;
nodes = (
"445 125 OFFCURVE",
"369 65 OFFCURVE",
"288 65 CURVE SMOOTH",
"195 65 OFFCURVE",
"134 139 OFFCURVE",
"134 267 CURVE SMOOTH",
"134 395 OFFCURVE",
"195 469 OFFCURVE",
"288 469 CURVE SMOOTH",
"369 469 OFFCURVE",
"445 409 OFFCURVE",
"445 267 CURVE SMOOTH"
);
}
);
width = 604;
},
{
background = {
paths = (
{
closed = 1;
nodes = (
"441 453 LINE",
"408 510 OFFCURVE",
"351 547 OFFCURVE",
"265 547 CURVE SMOOTH",
"142 547 OFFCURVE",
"35 444 OFFCURVE",
"35 267 CURVE SMOOTH",
"35 89 OFFCURVE",
"142 -13 OFFCURVE",
"265 -13 CURVE SMOOTH",
"351 -13 OFFCURVE",
"408 24 OFFCURVE",
"441 81 CURVE",
"441 -175 LINE",
"532 -175 LINE",
"532 538 LINE",
"441 538 LINE"
);
},
{
closed = 1;
nodes = (
"445 125 OFFCURVE",
"369 65 OFFCURVE",
"288 65 CURVE SMOOTH",
"195 65 OFFCURVE",
"134 139 OFFCURVE",
"134 267 CURVE SMOOTH",
"134 395 OFFCURVE",
"195 469 OFFCURVE",
"288 469 CURVE SMOOTH",
"369 469 OFFCURVE",
"445 409 OFFCURVE",
"445 267 CURVE SMOOTH"
);
}
);
};
layerId = "48ECFA74-86AE-4037-9A42-9B6212E42530";
paths = (
{
closed = 1;
nodes = (
"131 88 LINE",
"131 450 LINE",
"40 450 LINE",
"40 88 LINE"
);
},
{
closed = 1;
nodes = (
"441 0 LINE",
"441 88 LINE",
"131 88 LINE",
"131 0 LINE"
);
},
{
closed = 1;
nodes = (
"441 450 LINE",
"441 538 LINE",
"131 538 LINE",
"131 450 LINE"
);
},
{
closed = 1;
nodes = (
"532 -175 LINE",
"532 450 LINE",
"441 450 LINE",
"441 -175 LINE"
);
}
);
width = 604;
}
);
leftKerningGroup = c;
note = q;
rightKerningGroup = g;
unicode = 0071;
},
{
glyphname = r;
lastChange = "2018-12-20 15:53:10 +0000";
layers = (
{
background = {
paths = (
{
closed = 1;
nodes = (
"340 540 LINE",
"330 541 OFFCURVE",
"322 541 OFFCURVE",
"313 541 CURVE SMOOTH",
"243 539 OFFCURVE",
"188 505 OFFCURVE",
"161 444 CURVE",
"161 538 LINE",
"72 538 LINE",
"72 0 LINE",
"163 0 LINE",
"163 282 LINE SMOOTH",
"163 400 OFFCURVE",
"205 447 OFFCURVE",
"289 447 CURVE SMOOTH",
"304 447 OFFCURVE",
"321 445 OFFCURVE",
"340 443 CURVE"
);
}
);
};
layerId = "137AEC82-B0BC-44E1-9F98-144717E162AD";
paths = (
{
closed = 1;
nodes = (
"340 540 LINE",
"330 541 OFFCURVE",
"322 541 OFFCURVE",
"313 541 CURVE SMOOTH",
"243 539 OFFCURVE",
"188 505 OFFCURVE",
"161 444 CURVE",
"161 538 LINE",
"72 538 LINE",
"72 0 LINE",
"163 0 LINE",
"163 282 LINE SMOOTH",
"163 400 OFFCURVE",
"205 447 OFFCURVE",
"289 447 CURVE SMOOTH",
"304 447 OFFCURVE",
"321 445 OFFCURVE",
"340 443 CURVE"
);
}
);
width = 355;
},
{
background = {
paths = (
{
closed = 1;
nodes = (
"340 540 LINE",
"330 541 OFFCURVE",
"322 541 OFFCURVE",
"313 541 CURVE SMOOTH",
"243 539 OFFCURVE",
"188 505 OFFCURVE",
"161 444 CURVE",
"161 538 LINE",
"72 538 LINE",
"72 0 LINE",
"163 0 LINE",
"163 282 LINE SMOOTH",
"163 400 OFFCURVE",
"205 447 OFFCURVE",
"289 447 CURVE SMOOTH",
"304 447 OFFCURVE",
"321 445 OFFCURVE",
"340 443 CURVE"
);
}
);
};
layerId = "C5488009-C580-4381-A4EE-96D70C5119DC";
paths = (
{
closed = 1;
nodes = (
"140 0 LINE",
"140 193 LINE",
"355 538 LINE",
"254 538 LINE",
"118 300 LINE",
"140 294 LINE",
"140 538 LINE",
"49 538 LINE",
"49 0 LINE"
);
}
);
width = 355;
},
{
background = {
paths = (
{
closed = 1;
nodes = (
"340 540 LINE",
"330 541 OFFCURVE",
"322 541 OFFCURVE",
"313 541 CURVE SMOOTH",
"243 539 OFFCURVE",
"188 505 OFFCURVE",
"161 444 CURVE",
"161 538 LINE",
"72 538 LINE",
"72 0 LINE",
"163 0 LINE",
"163 282 LINE SMOOTH",
"163 400 OFFCURVE",
"205 447 OFFCURVE",
"289 447 CURVE SMOOTH",
"304 447 OFFCURVE",
"321 445 OFFCURVE",
"340 443 CURVE"
);
}
);
};
layerId = "48ECFA74-86AE-4037-9A42-9B6212E42530";
paths = (
{
closed = 1;
nodes = (
"163 0 LINE",
"163 405 LINE SMOOTH",
"163 438 OFFCURVE",
"170 450 OFFCURVE",
"204 450 CURVE SMOOTH",
"338 450 LINE",
"338 538 LINE",
"178 538 LINE SMOOTH",
"152 538 OFFCURVE",
"144 532 OFFCURVE",
"144 507 CURVE SMOOTH",
"144 485 OFFCURVE",
"135 469 OFFCURVE",
"115 469 CURVE SMOOTH",
"72 469 LINE",
"72 0 LINE"
);
}
);
width = 355;
},
{
associatedMasterId = "48ECFA74-86AE-4037-9A42-9B6212E42530";
background = {
paths = (
{
closed = 1;
nodes = (
"340 540 LINE",
"330 541 OFFCURVE",
"322 541 OFFCURVE",
"313 541 CURVE SMOOTH",
"243 539 OFFCURVE",
"188 505 OFFCURVE",
"161 444 CURVE",
"161 538 LINE",
"72 538 LINE",
"72 0 LINE",
"163 0 LINE",
"163 282 LINE SMOOTH",
"163 400 OFFCURVE",
"205 447 OFFCURVE",
"289 447 CURVE SMOOTH",
"304 447 OFFCURVE",
"321 445 OFFCURVE",
"340 443 CURVE"
);
}
);
};
layerId = "6231B4DE-058E-474A-8CEC-420712DD1CB5";
name = pixels;
paths = (
{
closed = 1;
nodes = (
"72 0 LINE",
"163 0 LINE",
"163 450 LINE",
"72 450 LINE"
);
},
{
closed = 1;
nodes = (
"162 450 LINE",
"338 450 LINE",
"338 538 LINE",
"162 538 LINE"
);
}
);
width = 355;
}
);
leftKerningGroup = m;
note = r;
rightKerningGroup = r;
unicode = 0072;
},
{
glyphname = s;
lastChange = "2018-12-20 16:45:34 +0000";
layers = (
{
background = {
paths = (
{
closed = 1;
nodes = (
"475 381 LINE",
"458 483 OFFCURVE",
"379 548 OFFCURVE",
"263 548 CURVE SMOOTH",
"144 548 OFFCURVE",
"48 493 OFFCURVE",
"48 398 CURVE SMOOTH",
"48 298 OFFCURVE",
"128 264 OFFCURVE",
"201 249 CURVE SMOOTH",
"281 233 LINE SMOOTH",
"339 221 OFFCURVE",
"390 198 OFFCURVE",
"390 144 CURVE SMOOTH",
"390 94 OFFCURVE",
"334 64 OFFCURVE",
"265 64 CURVE SMOOTH",
"185 64 OFFCURVE",
"142 105 OFFCURVE",
"128 174 CURVE",
"32 174 LINE",
"42 80 OFFCURVE",
"122 -13 OFFCURVE",
"263 -13 CURVE SMOOTH",
"386 -13 OFFCURVE",
"482 48 OFFCURVE",
"482 154 CURVE SMOOTH",
"482 258 OFFCURVE",
"396 295 OFFCURVE",
"298 314 CURVE SMOOTH",
"222 329 LINE SMOOTH",
"170 339 OFFCURVE",
"140 359 OFFCURVE",
"140 402 CURVE SMOOTH",
"140 451 OFFCURVE",
"200 470 OFFCURVE",
"253 470 CURVE SMOOTH",
"316 470 OFFCURVE",
"366 445 OFFCURVE",
"380 381 CURVE"
);
}
);
};
layerId = "137AEC82-B0BC-44E1-9F98-144717E162AD";
paths = (
{
closed = 1;
nodes = (
"475 381 LINE",
"458 483 OFFCURVE",
"379 548 OFFCURVE",
"263 548 CURVE SMOOTH",
"144 548 OFFCURVE",
"48 493 OFFCURVE",
"48 398 CURVE SMOOTH",
"48 298 OFFCURVE",
"128 264 OFFCURVE",
"201 249 CURVE SMOOTH",
"281 233 LINE SMOOTH",
"339 221 OFFCURVE",
"390 198 OFFCURVE",
"390 144 CURVE SMOOTH",
"390 94 OFFCURVE",
"334 64 OFFCURVE",
"265 64 CURVE SMOOTH",
"185 64 OFFCURVE",
"142 105 OFFCURVE",
"128 174 CURVE",
"32 174 LINE",
"42 80 OFFCURVE",
"122 -13 OFFCURVE",
"263 -13 CURVE SMOOTH",
"386 -13 OFFCURVE",
"482 48 OFFCURVE",
"482 154 CURVE SMOOTH",
"482 258 OFFCURVE",
"396 295 OFFCURVE",
"298 314 CURVE SMOOTH",
"222 329 LINE SMOOTH",
"170 339 OFFCURVE",
"140 359 OFFCURVE",
"140 402 CURVE SMOOTH",
"140 451 OFFCURVE",
"200 470 OFFCURVE",
"253 470 CURVE SMOOTH",
"316 470 OFFCURVE",
"366 445 OFFCURVE",
"380 381 CURVE"
);
}
);
width = 525;
},
{
background = {
paths = (
{
closed = 1;
nodes = (
"475 381 LINE",
"458 483 OFFCURVE",
"379 548 OFFCURVE",
"263 548 CURVE SMOOTH",
"144 548 OFFCURVE",
"48 493 OFFCURVE",
"48 398 CURVE SMOOTH",
"48 298 OFFCURVE",
"128 264 OFFCURVE",
"201 249 CURVE SMOOTH",
"281 233 LINE SMOOTH",
"339 221 OFFCURVE",
"390 198 OFFCURVE",
"390 144 CURVE SMOOTH",
"390 94 OFFCURVE",
"334 64 OFFCURVE",
"265 64 CURVE SMOOTH",
"185 64 OFFCURVE",
"142 105 OFFCURVE",
"128 174 CURVE",
"32 174 LINE",
"42 80 OFFCURVE",
"122 -13 OFFCURVE",
"263 -13 CURVE SMOOTH",
"386 -13 OFFCURVE",
"482 48 OFFCURVE",
"482 154 CURVE SMOOTH",
"482 258 OFFCURVE",
"396 295 OFFCURVE",
"298 314 CURVE SMOOTH",
"222 329 LINE SMOOTH",
"170 339 OFFCURVE",
"140 359 OFFCURVE",
"140 402 CURVE SMOOTH",
"140 451 OFFCURVE",
"200 470 OFFCURVE",
"253 470 CURVE SMOOTH",
"316 470 OFFCURVE",
"366 445 OFFCURVE",
"380 381 CURVE"
);
}
);
};
layerId = "C5488009-C580-4381-A4EE-96D70C5119DC";
paths = (
{
closed = 1;
nodes = (
"228 101 LINE",
"250 74 OFFCURVE",
"272 66 OFFCURVE",
"296 66 CURVE SMOOTH",
"344 66 OFFCURVE",
"381 93 OFFCURVE",
"381 138 CURVE SMOOTH",
"381 238 OFFCURVE",
"171 267 OFFCURVE",
"171 498 CURVE SMOOTH",
"171 575 OFFCURVE",
"215 643 OFFCURVE",
"268 643 CURVE SMOOTH",
"321 643 OFFCURVE",
"365 575 OFFCURVE",
"365 492 CURVE SMOOTH",
"365 297 OFFCURVE",
"277 208 OFFCURVE",
"100 0 CURVE",
"-10 0 LINE",
"143 177 OFFCURVE",
"278 295 OFFCURVE",
"278 492 CURVE SMOOTH",
"278 535 OFFCURVE",
"273 556 OFFCURVE",
"268 556 CURVE SMOOTH",
"263 556 OFFCURVE",
"258 537 OFFCURVE",
"258 498 CURVE SMOOTH",
"258 297 OFFCURVE",
"467 292 OFFCURVE",
"467 137 CURVE SMOOTH",
"467 48 OFFCURVE",
"392 -12 OFFCURVE",
"302 -12 CURVE SMOOTH",
"262 -12 OFFCURVE",
"218 2 OFFCURVE",
"173 36 CURVE"
);
}
);
width = 525;
},
{
background = {
paths = (
{
closed = 1;
nodes = (
"475 381 LINE",
"458 483 OFFCURVE",
"379 548 OFFCURVE",
"263 548 CURVE SMOOTH",
"144 548 OFFCURVE",
"48 493 OFFCURVE",
"48 398 CURVE SMOOTH",
"48 298 OFFCURVE",
"128 264 OFFCURVE",
"201 249 CURVE SMOOTH",
"281 233 LINE SMOOTH",
"339 221 OFFCURVE",
"390 198 OFFCURVE",
"390 144 CURVE SMOOTH",
"390 94 OFFCURVE",
"334 64 OFFCURVE",
"265 64 CURVE SMOOTH",
"185 64 OFFCURVE",
"142 105 OFFCURVE",
"128 174 CURVE",
"32 174 LINE",
"42 80 OFFCURVE",
"122 -13 OFFCURVE",
"263 -13 CURVE SMOOTH",
"386 -13 OFFCURVE",
"482 48 OFFCURVE",
"482 154 CURVE SMOOTH",
"482 258 OFFCURVE",
"396 295 OFFCURVE",
"298 314 CURVE SMOOTH",
"222 329 LINE SMOOTH",
"170 339 OFFCURVE",
"140 359 OFFCURVE",
"140 402 CURVE SMOOTH",
"140 451 OFFCURVE",
"200 470 OFFCURVE",
"253 470 CURVE SMOOTH",
"316 470 OFFCURVE",
"366 445 OFFCURVE",
"380 381 CURVE"
);
}
);
};
layerId = "48ECFA74-86AE-4037-9A42-9B6212E42530";
paths = (
{
closed = 1;
nodes = (
"49 274 LINE",
"140 274 LINE",
"140 450 LINE",
"49 450 LINE"
);
},
{
closed = 1;
nodes = (
"140 450 LINE",
"382 450 LINE",
"382 538 LINE",
"140 538 LINE"
);
},
{
closed = 1;
nodes = (
"127 0 LINE",
"389 0 LINE",
"389 88 LINE",
"127 88 LINE"
);
},
{
closed = 1;
nodes = (
"382 362 LINE",
"473 362 LINE",
"473 450 LINE",
"382 450 LINE"
);
},
{
closed = 1;
nodes = (
"389 88 LINE",
"480 88 LINE",
"480 264 LINE",
"389 264 LINE"
);
},
{
closed = 1;
nodes = (
"140 230 LINE",
"389 230 LINE",
"389 318 LINE",
"140 318 LINE"
);
},
{
closed = 1;
nodes = (
"36 88 LINE",
"127 88 LINE",
"127 176 LINE",
"36 176 LINE"
);
}
);
width = 525;
}
);
leftKerningGroup = s;
note = s;
rightKerningGroup = s;
unicode = 0073;
},
{
glyphname = t;
lastChange = "2018-12-18 18:21:57 +0000";
layers = (
{
background = {
paths = (
{
closed = 1;
nodes = (
"98 538 LINE",
"13 538 LINE",
"13 465 LINE",
"98 465 LINE",
"98 135 LINE SMOOTH",
"98 23 OFFCURVE",
"122 0 OFFCURVE",
"225 0 CURVE SMOOTH",
"291 0 LINE",
"291 76 LINE",
"245 76 LINE SMOOTH",
"193 76 OFFCURVE",
"189 90 OFFCURVE",
"189 146 CURVE SMOOTH",
"189 465 LINE",
"291 465 LINE",
"291 538 LINE",
"189 538 LINE",
"189 673 LINE",
"98 673 LINE"
);
}
);
};
layerId = "137AEC82-B0BC-44E1-9F98-144717E162AD";
paths = (
{
closed = 1;
nodes = (
"98 538 LINE",
"13 538 LINE",
"13 465 LINE",
"98 465 LINE",
"98 135 LINE SMOOTH",
"98 23 OFFCURVE",
"122 0 OFFCURVE",
"225 0 CURVE SMOOTH",
"291 0 LINE",
"291 76 LINE",
"245 76 LINE SMOOTH",
"193 76 OFFCURVE",
"189 90 OFFCURVE",
"189 146 CURVE SMOOTH",
"189 465 LINE",
"291 465 LINE",
"291 538 LINE",
"189 538 LINE",
"189 673 LINE",
"98 673 LINE"
);
}
);
width = 325;
},
{
background = {
paths = (
{
closed = 1;
nodes = (
"98 538 LINE",
"13 538 LINE",
"13 465 LINE",
"98 465 LINE",
"98 135 LINE SMOOTH",
"98 23 OFFCURVE",
"122 0 OFFCURVE",
"225 0 CURVE SMOOTH",
"291 0 LINE",
"291 76 LINE",
"245 76 LINE SMOOTH",
"193 76 OFFCURVE",
"189 90 OFFCURVE",
"189 146 CURVE SMOOTH",
"189 465 LINE",
"291 465 LINE",
"291 538 LINE",
"189 538 LINE",
"189 673 LINE",
"98 673 LINE"
);
}
);
};
layerId = "C5488009-C580-4381-A4EE-96D70C5119DC";
paths = (
{
closed = 1;
nodes = (
"98 538 LINE",
"13 538 LINE",
"13 465 LINE",
"98 465 LINE",
"98 135 LINE SMOOTH",
"98 23 OFFCURVE",
"122 0 OFFCURVE",
"225 0 CURVE SMOOTH",
"291 0 LINE",
"291 76 LINE",
"245 76 LINE SMOOTH",
"193 76 OFFCURVE",
"189 90 OFFCURVE",
"189 146 CURVE SMOOTH",
"189 465 LINE",
"291 465 LINE",
"291 538 LINE",
"189 538 LINE",
"189 673 LINE",
"98 673 LINE"
);
}
);
width = 325;
},
{
background = {
paths = (
{
closed = 1;
nodes = (
"98 538 LINE",
"13 538 LINE",
"13 465 LINE",
"98 465 LINE",
"98 135 LINE SMOOTH",
"98 23 OFFCURVE",
"122 0 OFFCURVE",
"225 0 CURVE SMOOTH",
"291 0 LINE",
"291 76 LINE",
"245 76 LINE SMOOTH",
"193 76 OFFCURVE",
"189 90 OFFCURVE",
"189 146 CURVE SMOOTH",
"189 465 LINE",
"291 465 LINE",
"291 538 LINE",
"189 538 LINE",
"189 673 LINE",
"98 673 LINE"
);
}
);
};
layerId = "48ECFA74-86AE-4037-9A42-9B6212E42530";
paths = (
{
closed = 1;
nodes = (
"99 77 LINE",
"190 77 LINE",
"190 673 LINE",
"99 673 LINE"
);
},
{
closed = 1;
nodes = (
"13 464 LINE",
"292 464 LINE",
"292 539 LINE",
"13 539 LINE"
);
},
{
closed = 1;
nodes = (
"99 0 LINE",
"291 0 LINE",
"291 77 LINE",
"99 77 LINE"
);
}
);
width = 325;
}
);
leftKerningGroup = t;
note = t;
rightKerningGroup = t;
unicode = 0074;
},
{
glyphname = u;
lastChange = "2018-12-18 18:21:57 +0000";
layers = (
{
background = {
paths = (
{
closed = 1;
nodes = (
"405 0 LINE",
"496 0 LINE",
"496 538 LINE",
"405 538 LINE",
"405 242 LINE SMOOTH",
"405 127 OFFCURVE",
"354 66 OFFCURVE",
"268 66 CURVE SMOOTH",
"169 66 OFFCURVE",
"155 138 OFFCURVE",
"155 221 CURVE SMOOTH",
"155 538 LINE",
"64 538 LINE",
"64 194 LINE SMOOTH",
"64 71 OFFCURVE",
"111 -13 OFFCURVE",
"236 -13 CURVE SMOOTH",
"325 -13 OFFCURVE",
"374 26 OFFCURVE",
"405 77 CURVE"
);
}
);
};
layerId = "137AEC82-B0BC-44E1-9F98-144717E162AD";
paths = (
{
closed = 1;
nodes = (
"405 0 LINE",
"496 0 LINE",
"496 538 LINE",
"405 538 LINE",
"405 242 LINE SMOOTH",
"405 127 OFFCURVE",
"354 66 OFFCURVE",
"268 66 CURVE SMOOTH",
"169 66 OFFCURVE",
"155 138 OFFCURVE",
"155 221 CURVE SMOOTH",
"155 538 LINE",
"64 538 LINE",
"64 194 LINE SMOOTH",
"64 71 OFFCURVE",
"111 -13 OFFCURVE",
"236 -13 CURVE SMOOTH",
"325 -13 OFFCURVE",
"374 26 OFFCURVE",
"405 77 CURVE"
);
}
);
width = 568;
},
{
background = {
paths = (
{
closed = 1;
nodes = (
"405 0 LINE",
"496 0 LINE",
"496 538 LINE",
"405 538 LINE",
"405 242 LINE SMOOTH",
"405 127 OFFCURVE",
"354 66 OFFCURVE",
"268 66 CURVE SMOOTH",
"169 66 OFFCURVE",
"155 138 OFFCURVE",
"155 221 CURVE SMOOTH",
"155 538 LINE",
"64 538 LINE",
"64 194 LINE SMOOTH",
"64 71 OFFCURVE",
"111 -13 OFFCURVE",
"236 -13 CURVE SMOOTH",
"325 -13 OFFCURVE",
"374 26 OFFCURVE",
"405 77 CURVE"
);
}
);
};
layerId = "C5488009-C580-4381-A4EE-96D70C5119DC";
paths = (
{
closed = 1;
nodes = (
"405 0 LINE",
"496 0 LINE",
"496 538 LINE",
"405 538 LINE",
"405 242 LINE SMOOTH",
"405 127 OFFCURVE",
"354 66 OFFCURVE",
"268 66 CURVE SMOOTH",
"169 66 OFFCURVE",
"155 138 OFFCURVE",
"155 221 CURVE SMOOTH",
"155 538 LINE",
"64 538 LINE",
"64 194 LINE SMOOTH",
"64 71 OFFCURVE",
"111 -13 OFFCURVE",
"236 -13 CURVE SMOOTH",
"325 -13 OFFCURVE",
"374 26 OFFCURVE",
"405 77 CURVE"
);
}
);
width = 568;
},
{
background = {
paths = (
{
closed = 1;
nodes = (
"405 0 LINE",
"496 0 LINE",
"496 538 LINE",
"405 538 LINE",
"405 242 LINE SMOOTH",
"405 127 OFFCURVE",
"354 66 OFFCURVE",
"268 66 CURVE SMOOTH",
"169 66 OFFCURVE",
"155 138 OFFCURVE",
"155 221 CURVE SMOOTH",
"155 538 LINE",
"64 538 LINE",
"64 194 LINE SMOOTH",
"64 71 OFFCURVE",
"111 -13 OFFCURVE",
"236 -13 CURVE SMOOTH",
"325 -13 OFFCURVE",
"374 26 OFFCURVE",
"405 77 CURVE"
);
}
);
};
layerId = "48ECFA74-86AE-4037-9A42-9B6212E42530";
paths = (
{
closed = 1;
nodes = (
"155 86 LINE",
"155 538 LINE",
"64 538 LINE",
"64 86 LINE"
);
},
{
closed = 1;
nodes = (
"408 -2 LINE",
"408 86 LINE",
"155 86 LINE",
"155 -2 LINE"
);
},
{
closed = 1;
nodes = (
"499 -2 LINE",
"499 536 LINE",
"408 536 LINE",
"408 -2 LINE"
);
}
);
width = 568;
}
);
leftKerningGroup = u;
note = u;
rightKerningGroup = g;
unicode = 0075;
},
{
glyphname = v;
lastChange = "2018-12-18 18:21:57 +0000";
layers = (
{
background = {
paths = (
{
closed = 1;
nodes = (
"101 538 LINE",
"0 538 LINE",
"203 0 LINE",
"284 0 LINE",
"487 538 LINE",
"393 538 LINE",
"247 126 LINE"
);
}
);
};
layerId = "137AEC82-B0BC-44E1-9F98-144717E162AD";
paths = (
{
closed = 1;
nodes = (
"101 538 LINE",
"0 538 LINE",
"203 0 LINE",
"284 0 LINE",
"487 538 LINE",
"393 538 LINE",
"247 126 LINE"
);
}
);
width = 487;
},
{
background = {
paths = (
{
closed = 1;
nodes = (
"101 538 LINE",
"0 538 LINE",
"203 0 LINE",
"284 0 LINE",
"487 538 LINE",
"393 538 LINE",
"247 126 LINE"
);
}
);
};
layerId = "C5488009-C580-4381-A4EE-96D70C5119DC";
paths = (
{
closed = 1;
nodes = (
"101 538 LINE",
"0 538 LINE",
"203 0 LINE",
"284 0 LINE",
"487 538 LINE",
"393 538 LINE",
"247 126 LINE"
);
}
);
width = 487;
},
{
background = {
paths = (
{
closed = 1;
nodes = (
"101 538 LINE",
"0 538 LINE",
"203 0 LINE",
"284 0 LINE",
"487 538 LINE",
"393 538 LINE",
"247 126 LINE"
);
}
);
};
layerId = "48ECFA74-86AE-4037-9A42-9B6212E42530";
paths = (
{
closed = 1;
nodes = (
"97 88 LINE",
"188 88 LINE",
"188 308 LINE",
"97 308 LINE"
);
},
{
closed = 1;
nodes = (
"188 0 LINE",
"299 0 LINE",
"299 88 LINE",
"188 88 LINE"
);
},
{
closed = 1;
nodes = (
"6 308 LINE",
"97 308 LINE",
"97 538 LINE",
"6 538 LINE"
);
},
{
closed = 1;
nodes = (
"299 88 LINE",
"390 88 LINE",
"390 308 LINE",
"299 308 LINE"
);
},
{
closed = 1;
nodes = (
"390 308 LINE",
"481 308 LINE",
"481 538 LINE",
"390 538 LINE"
);
}
);
width = 487;
}
);
leftKerningGroup = v;
note = v;
rightKerningGroup = v;
unicode = 0076;
},
{
glyphname = w;
lastChange = "2018-12-18 18:21:57 +0000";
layers = (
{
background = {
paths = (
{
closed = 1;
nodes = (
"206 140 LINE",
"103 538 LINE",
"5 538 LINE",
"160 0 LINE",
"243 0 LINE",
"358 433 LINE",
"477 0 LINE",
"560 0 LINE",
"715 538 LINE",
"617 538 LINE",
"514 140 LINE",
"407 538 LINE",
"313 538 LINE"
);
}
);
};
layerId = "137AEC82-B0BC-44E1-9F98-144717E162AD";
paths = (
{
closed = 1;
nodes = (
"206 140 LINE",
"103 538 LINE",
"5 538 LINE",
"160 0 LINE",
"243 0 LINE",
"358 433 LINE",
"477 0 LINE",
"560 0 LINE",
"715 538 LINE",
"617 538 LINE",
"514 140 LINE",
"407 538 LINE",
"313 538 LINE"
);
}
);
width = 720;
},
{
background = {
paths = (
{
closed = 1;
nodes = (
"206 140 LINE",
"103 538 LINE",
"5 538 LINE",
"160 0 LINE",
"243 0 LINE",
"358 433 LINE",
"477 0 LINE",
"560 0 LINE",
"715 538 LINE",
"617 538 LINE",
"514 140 LINE",
"407 538 LINE",
"313 538 LINE"
);
}
);
};
layerId = "C5488009-C580-4381-A4EE-96D70C5119DC";
paths = (
{
closed = 1;
nodes = (
"206 140 LINE",
"103 538 LINE",
"5 538 LINE",
"160 0 LINE",
"243 0 LINE",
"358 433 LINE",
"477 0 LINE",
"560 0 LINE",
"715 538 LINE",
"617 538 LINE",
"514 140 LINE",
"407 538 LINE",
"313 538 LINE"
);
}
);
width = 720;
},
{
background = {
paths = (
{
closed = 1;
nodes = (
"206 140 LINE",
"103 538 LINE",
"5 538 LINE",
"160 0 LINE",
"243 0 LINE",
"358 433 LINE",
"477 0 LINE",
"560 0 LINE",
"715 538 LINE",
"617 538 LINE",
"514 140 LINE",
"407 538 LINE",
"313 538 LINE"
);
}
);
};
layerId = "48ECFA74-86AE-4037-9A42-9B6212E42530";
paths = (
{
closed = 1;
nodes = (
"87 88 LINE",
"165 88 LINE",
"165 308 LINE",
"87 308 LINE"
);
},
{
closed = 1;
nodes = (
"165 0 LINE",
"243 0 LINE",
"243 88 LINE",
"165 88 LINE"
);
},
{
closed = 1;
nodes = (
"9 308 LINE",
"87 308 LINE",
"87 538 LINE",
"9 538 LINE"
);
},
{
closed = 1;
nodes = (
"243 88 LINE",
"321 88 LINE",
"321 308 LINE",
"243 308 LINE"
);
},
{
closed = 1;
nodes = (
"399 88 LINE",
"477 88 LINE",
"477 308 LINE",
"399 308 LINE"
);
},
{
closed = 1;
nodes = (
"477 0 LINE",
"555 0 LINE",
"555 88 LINE",
"477 88 LINE"
);
},
{
closed = 1;
nodes = (
"321 308 LINE",
"399 308 LINE",
"399 538 LINE",
"321 538 LINE"
);
},
{
closed = 1;
nodes = (
"555 88 LINE",
"633 88 LINE",
"633 308 LINE",
"555 308 LINE"
);
},
{
closed = 1;
nodes = (
"633 308 LINE",
"711 308 LINE",
"711 538 LINE",
"633 538 LINE"
);
}
);
width = 720;
}
);
leftKerningGroup = w;
note = w;
rightKerningGroup = w;
unicode = 0077;
},
{
glyphname = x;
lastChange = "2018-12-19 21:50:12 +0000";
layers = (
{
background = {
paths = (
{
closed = 1;
nodes = (
"494 538 LINE",
"392 538 LINE",
"260 353 LINE",
"129 538 LINE",
"20 538 LINE",
"206 277 LINE",
"8 0 LINE",
"112 0 LINE",
"257 205 LINE",
"403 0 LINE",
"512 0 LINE",
"311 281 LINE"
);
}
);
};
layerId = "137AEC82-B0BC-44E1-9F98-144717E162AD";
paths = (
{
closed = 1;
nodes = (
"494 538 LINE",
"392 538 LINE",
"260 353 LINE",
"129 538 LINE",
"20 538 LINE",
"206 277 LINE",
"8 0 LINE",
"112 0 LINE",
"257 205 LINE",
"403 0 LINE",
"512 0 LINE",
"311 281 LINE"
);
}
);
width = 520;
},
{
background = {
paths = (
{
closed = 1;
nodes = (
"494 538 LINE",
"392 538 LINE",
"260 353 LINE",
"129 538 LINE",
"20 538 LINE",
"206 277 LINE",
"8 0 LINE",
"112 0 LINE",
"257 205 LINE",
"403 0 LINE",
"512 0 LINE",
"311 281 LINE"
);
}
);
};
layerId = "C5488009-C580-4381-A4EE-96D70C5119DC";
paths = (
{
closed = 1;
nodes = (
"35 446 LINE",
"36 446 OFFCURVE",
"36 446 OFFCURVE",
"37 446 CURVE SMOOTH",
"107 446 OFFCURVE",
"193 391 OFFCURVE",
"193 270 CURVE SMOOTH",
"193 149 OFFCURVE",
"107 91 OFFCURVE",
"37 91 CURVE SMOOTH",
"36 91 OFFCURVE",
"36 91 OFFCURVE",
"35 91 CURVE",
"35 0 LINE",
"36 0 OFFCURVE",
"36 0 OFFCURVE",
"37 0 CURVE SMOOTH",
"159 0 OFFCURVE",
"272 115 OFFCURVE",
"272 270 CURVE SMOOTH",
"272 424 OFFCURVE",
"159 538 OFFCURVE",
"37 538 CURVE SMOOTH",
"36 538 OFFCURVE",
"36 538 OFFCURVE",
"35 538 CURVE"
);
},
{
closed = 1;
nodes = (
"485 538 LINE",
"364 537 OFFCURVE",
"251 423 OFFCURVE",
"251 270 CURVE SMOOTH",
"251 116 OFFCURVE",
"363 1 OFFCURVE",
"485 0 CURVE",
"485 91 LINE",
"415 93 OFFCURVE",
"330 149 OFFCURVE",
"330 270 CURVE SMOOTH",
"330 391 OFFCURVE",
"415 444 OFFCURVE",
"485 446 CURVE"
);
}
);
width = 520;
},
{
background = {
paths = (
{
closed = 1;
nodes = (
"494 538 LINE",
"392 538 LINE",
"260 353 LINE",
"129 538 LINE",
"20 538 LINE",
"206 277 LINE",
"8 0 LINE",
"112 0 LINE",
"257 205 LINE",
"403 0 LINE",
"512 0 LINE",
"311 281 LINE"
);
}
);
};
layerId = "48ECFA74-86AE-4037-9A42-9B6212E42530";
paths = (
{
closed = 1;
nodes = (
"398 428 LINE",
"489 428 LINE",
"489 538 LINE",
"398 538 LINE"
);
},
{
closed = 1;
nodes = (
"214 230 LINE",
"307 230 LINE",
"307 318 LINE",
"214 318 LINE"
);
},
{
closed = 1;
nodes = (
"32 428 LINE",
"123 428 LINE",
"123 538 LINE",
"32 538 LINE"
);
},
{
closed = 1;
nodes = (
"32 0 LINE",
"123 0 LINE",
"123 120 LINE",
"32 120 LINE"
);
},
{
closed = 1;
nodes = (
"398 0 LINE",
"489 0 LINE",
"489 120 LINE",
"398 120 LINE"
);
},
{
closed = 1;
nodes = (
"123 318 LINE",
"214 318 LINE",
"214 428 LINE",
"123 428 LINE"
);
},
{
closed = 1;
nodes = (
"307 318 LINE",
"398 318 LINE",
"398 428 LINE",
"307 428 LINE"
);
},
{
closed = 1;
nodes = (
"307 120 LINE",
"398 120 LINE",
"398 230 LINE",
"307 230 LINE"
);
},
{
closed = 1;
nodes = (
"123 120 LINE",
"214 120 LINE",
"214 230 LINE",
"123 230 LINE"
);
}
);
width = 520;
}
);
leftKerningGroup = x;
note = x;
rightKerningGroup = x;
unicode = 0078;
},
{
glyphname = y;
lastChange = "2018-12-19 21:25:21 +0000";
layers = (
{
background = {
paths = (
{
closed = 1;
nodes = (
"371 538 LINE",
"238 123 LINE",
"101 538 LINE",
"0 538 LINE",
"194 0 LINE",
"190 -11 LINE",
"166 -95 OFFCURVE",
"137 -99 OFFCURVE",
"77 -99 CURVE SMOOTH",
"40 -99 LINE",
"40 -175 LINE",
"87 -175 LINE SMOOTH",
"207 -175 OFFCURVE",
"235 -140 OFFCURVE",
"274 -23 CURVE SMOOTH",
"466 538 LINE"
);
}
);
};
layerId = "137AEC82-B0BC-44E1-9F98-144717E162AD";
paths = (
{
closed = 1;
nodes = (
"371 538 LINE",
"238 123 LINE",
"101 538 LINE",
"0 538 LINE",
"194 0 LINE",
"190 -11 LINE",
"166 -95 OFFCURVE",
"137 -99 OFFCURVE",
"77 -99 CURVE SMOOTH",
"40 -99 LINE",
"40 -175 LINE",
"87 -175 LINE SMOOTH",
"207 -175 OFFCURVE",
"235 -140 OFFCURVE",
"274 -23 CURVE SMOOTH",
"466 538 LINE"
);
}
);
width = 466;
},
{
background = {
paths = (
{
closed = 1;
nodes = (
"371 538 LINE",
"238 123 LINE",
"101 538 LINE",
"0 538 LINE",
"194 0 LINE",
"190 -11 LINE",
"166 -95 OFFCURVE",
"137 -99 OFFCURVE",
"77 -99 CURVE SMOOTH",
"40 -99 LINE",
"40 -175 LINE",
"87 -175 LINE SMOOTH",
"207 -175 OFFCURVE",
"235 -140 OFFCURVE",
"274 -23 CURVE SMOOTH",
"466 538 LINE"
);
}
);
};
layerId = "C5488009-C580-4381-A4EE-96D70C5119DC";
paths = (
{
closed = 1;
nodes = (
"430 -175 LINE",
"430 538 LINE",
"339 538 LINE",
"339 218 LINE SMOOTH",
"339 117 OFFCURVE",
"292 90 OFFCURVE",
"233 88 CURVE SMOOTH",
"174 89 OFFCURVE",
"127 117 OFFCURVE",
"127 218 CURVE SMOOTH",
"127 538 LINE",
"36 538 LINE",
"36 0 LINE",
"339 0 LINE",
"339 -97 LINE",
"40 -97 LINE",
"40 -175 LINE"
);
}
);
width = 466;
},
{
background = {
paths = (
{
closed = 1;
nodes = (
"371 538 LINE",
"238 123 LINE",
"101 538 LINE",
"0 538 LINE",
"194 0 LINE",
"190 -11 LINE",
"166 -95 OFFCURVE",
"137 -99 OFFCURVE",
"77 -99 CURVE SMOOTH",
"40 -99 LINE",
"40 -175 LINE",
"87 -175 LINE SMOOTH",
"207 -175 OFFCURVE",
"235 -140 OFFCURVE",
"274 -23 CURVE SMOOTH",
"466 538 LINE"
);
}
);
};
layerId = "48ECFA74-86AE-4037-9A42-9B6212E42530";
paths = (
{
closed = 1;
nodes = (
"97 88 LINE",
"188 88 LINE",
"188 308 LINE",
"97 308 LINE"
);
},
{
closed = 1;
nodes = (
"188 -98 LINE",
"280 -98 LINE",
"280 88 LINE",
"188 88 LINE"
);
},
{
closed = 1;
nodes = (
"6 308 LINE",
"97 308 LINE",
"97 538 LINE",
"6 538 LINE"
);
},
{
closed = 1;
nodes = (
"280 88 LINE",
"371 88 LINE",
"371 308 LINE",
"280 308 LINE"
);
},
{
closed = 1;
nodes = (
"371 308 LINE",
"462 308 LINE",
"462 538 LINE",
"371 538 LINE"
);
},
{
closed = 1;
nodes = (
"41 -98 LINE",
"41 -175 LINE",
"188 -175 LINE",
"188 -98 LINE"
);
}
);
width = 466;
}
);
leftKerningGroup = v;
note = y;
rightKerningGroup = v;
unicode = 0079;
},
{
glyphname = z;
lastChange = "2018-12-18 18:21:57 +0000";
layers = (
{
background = {
paths = (
{
closed = 1;
nodes = (
"33 0 LINE",
"456 0 LINE",
"456 79 LINE",
"140 79 LINE",
"450 459 LINE",
"450 538 LINE",
"53 538 LINE",
"53 459 LINE",
"344 459 LINE",
"33 79 LINE"
);
}
);
};
layerId = "137AEC82-B0BC-44E1-9F98-144717E162AD";
paths = (
{
closed = 1;
nodes = (
"33 0 LINE",
"456 0 LINE",
"456 79 LINE",
"140 79 LINE",
"450 459 LINE",
"450 538 LINE",
"53 538 LINE",
"53 459 LINE",
"344 459 LINE",
"33 79 LINE"
);
}
);
width = 488;
},
{
background = {
paths = (
{
closed = 1;
nodes = (
"33 0 LINE",
"456 0 LINE",
"456 79 LINE",
"140 79 LINE",
"450 459 LINE",
"450 538 LINE",
"53 538 LINE",
"53 459 LINE",
"344 459 LINE",
"33 79 LINE"
);
}
);
};
layerId = "C5488009-C580-4381-A4EE-96D70C5119DC";
paths = (
{
closed = 1;
nodes = (
"33 0 LINE",
"456 0 LINE",
"456 79 LINE",
"140 79 LINE",
"450 459 LINE",
"450 538 LINE",
"53 538 LINE",
"53 459 LINE",
"344 459 LINE",
"33 79 LINE"
);
}
);
width = 488;
},
{
background = {
paths = (
{
closed = 1;
nodes = (
"33 0 LINE",
"456 0 LINE",
"456 79 LINE",
"140 79 LINE",
"450 459 LINE",
"450 538 LINE",
"53 538 LINE",
"53 459 LINE",
"344 459 LINE",
"33 79 LINE"
);
}
);
};
layerId = "48ECFA74-86AE-4037-9A42-9B6212E42530";
paths = (
{
closed = 1;
nodes = (
"129 178 LINE",
"268 178 LINE",
"268 270 LINE",
"129 270 LINE"
);
},
{
closed = 1;
nodes = (
"34 79 LINE",
"129 79 LINE",
"129 178 LINE",
"34 178 LINE"
);
},
{
closed = 1;
nodes = (
"53 459 LINE",
"450 459 LINE",
"450 538 LINE",
"53 538 LINE"
);
},
{
closed = 1;
nodes = (
"34 0 LINE",
"455 0 LINE",
"455 79 LINE",
"34 79 LINE"
);
},
{
closed = 1;
nodes = (
"359 360 LINE",
"450 360 LINE",
"450 459 LINE",
"359 459 LINE"
);
},
{
closed = 1;
nodes = (
"268 270 LINE",
"359 270 LINE",
"359 360 LINE",
"268 360 LINE"
);
}
);
width = 488;
}
);
leftKerningGroup = z;
note = z;
rightKerningGroup = z;
unicode = 007A;
},
